<?xml version="1.0" encoding="UTF-8"?>
<svg width="26px" height="26px" viewBox="0 0 26 26" version="1.1" xmlns="http://www.w3.org/2000/svg" xmlns:xlink="http://www.w3.org/1999/xlink">
    <title>newtab</title>
    <defs>
        <polygon id="path-1" points="0 0 25.509434 0 25.509434 26 0 26"></polygon>
    </defs>
    <g id="Page-1" stroke="none" stroke-width="1" fill="none" fill-rule="evenodd">
        <g id="desktop-product" transform="translate(-809.000000, -1434.000000)">
            <g id="ing-nutr-logo" transform="translate(426.000000, 1094.000000)">
                <g id="Group-3-Copy" transform="translate(117.000000, 323.000000)">
                    <g id="newtab" transform="translate(266.000000, 17.000000)">
                        <mask id="mask-2" fill="white">
                            <use xlink:href="#path-1"></use>
                        </mask>
                        <g id="Clip-2"></g>
                        <path d="M3.62614176,2.96458525 C3.28334759,2.57582804 3.13657022,1.99269222 3.52829018,1.60393501 C4.55573181,0.58313582 10.5736042,0 23.2460116,0 C23.8820469,0 24.4202306,0.194378607 24.7630248,0.534852672 C25.0562659,0.826420582 25.3008948,1.3123671 25.3501343,1.99269222 C25.8880044,15.1621543 24.9587279,21.2367973 24.1266758,22.0632179 C23.7352695,22.4519751 23.1970858,22.4519751 22.7567537,22.0143117 C22.6099763,21.8199331 22.4142731,21.4797705 22.3164215,21.0424187 C21.5825347,18.1753342 20.9954252,16.3773321 19.9676699,15.4054391 C19.5276514,14.9194926 19.1848572,15.0652765 18.7448387,15.5023169 C17.2278256,17.0090626 15.466497,19.0011318 13.4602259,20.993824 C11.6502853,22.7918261 9.88895676,24.4926389 8.71473775,25.464532 C7.88268566,26.1451686 7.54020512,26.1937633 6.65954087,25.5134381 C6.12135715,25.0274916 5.19176711,24.2013825 4.26217706,23.2777726 C2.7944033,21.8199331 1.27770375,20.1677149 0.299187913,18.8070647 C-0.190383633,18.0781449 -0.0922184224,17.3978198 0.690594249,16.5717107 C1.66911009,15.3565329 3.33227339,13.6071255 5.19176711,11.8094349 C6.95309562,10.0594044 8.8612015,8.35859159 10.2314373,6.94934669 C10.7203816,6.51230633 10.8185468,6.17183226 10.3779011,5.7347919 C9.54616259,4.85977667 6.95309562,4.13085689 4.70250919,3.54772107 C4.21325127,3.40193712 3.87077072,3.15896386 3.62614176,2.96458525" id="Fill-1" fill="#FFFFFF" mask="url(#mask-2)"></path>
                    </g>
                </g>
            </g>
        </g>
    </g>
</svg>