<?xml version="1.0" encoding="UTF-8"?>
<svg width="37px" height="38px" viewBox="0 0 37 38" version="1.1" xmlns="http://www.w3.org/2000/svg" xmlns:xlink="http://www.w3.org/1999/xlink">
    <title>Fill 3 Copy</title>
    <g id="Page-1" stroke="none" stroke-width="1" fill="none" fill-rule="evenodd">
        <g id="mobile-home" transform="translate(-167.000000, -3824.000000)" fill="#FFFFFF">
            <g id="alter" transform="translate(-3.000000, 3475.000000)">
                <path d="M185.0844,351.178922 C185.0844,350.465722 185.538366,349.751913 186.504715,349.751913 C189.118363,349.751913 199.288769,358.535473 206.561342,366.440311 C206.902729,366.824295 207.015916,367.208888 207.015916,367.538104 C207.015916,368.087 206.731731,368.690665 206.219955,369.24017 C199.743343,376.266896 187.982233,386.751913 185.481772,386.751913 C184.800216,386.751913 184.515422,386.203016 184.515422,385.433831 C184.515422,385.159992 184.572624,384.720631 184.743014,384.28127 C185.311383,382.195221 186.731698,378.73693 186.731698,377.638528 C186.731698,377.145008 186.447513,377.034864 185.538366,377.034864 C184.061457,377.034864 181.958977,377.199776 179.970901,377.199776 C176.958664,377.199776 173.834458,377.090241 172.015554,376.87056 C170.766236,376.705648 170.140665,376.212128 170.140665,374.510062 C170.140665,370.886859 170.82283,365.34191 172.129958,360.895971 C172.414143,359.907714 173.095699,359.358209 174.573217,359.249281 C176.277108,359.08376 178.777568,359.028993 181.220218,359.028993 C182.811531,359.028993 184.515422,359.08376 185.765957,359.08376 C186.504715,359.08376 186.902087,358.919457 186.902087,358.37056 C186.902087,357.382303 185.879752,354.637821 185.368585,352.661916 C185.198196,352.002875 185.0844,351.45337 185.0844,351.178922" id="Fill-3-Copy"></path>
            </g>
        </g>
    </g>
</svg>