<?xml version="1.0" encoding="UTF-8"?>
<svg width="15px" height="8px" viewBox="0 0 15 8" version="1.1" xmlns="http://www.w3.org/2000/svg" xmlns:xlink="http://www.w3.org/1999/xlink">
    <title>language-arrow</title>
    <defs>
        <polygon id="path-1" points="0 0 14.242504 0 14.242504 8 0 8"></polygon>
    </defs>
    <g id="Page-1" stroke="none" stroke-width="1" fill="none" fill-rule="evenodd">
        <g id="mobile-menu" transform="translate(-340.000000, -59.000000)">
            <g id="langue" transform="translate(305.000000, 44.000000)">
                <g id="language-arrow" transform="translate(35.000000, 14.961700)">
                    <mask id="mask-2" fill="white">
                        <use xlink:href="#path-1"></use>
                    </mask>
                    <g id="Clip-2"></g>
                    <path d="M7.21292068,1.75724102 C8.3669297,1.75724102 13.1931499,0 13.7180637,0 C14.0327935,0 14.2426133,0.262274778 14.2426133,0.550412764 C14.2426133,0.707777631 14.1901583,0.891734246 14.0590209,1.04909911 C12.2227332,3.48825455 9.59998543,5.92777426 7.47519545,7.76369771 C7.29160311,7.92106258 7.05555581,8.00010928 6.84573599,8.00010928 C6.60968869,8.00010928 6.39986886,7.92106258 6.26873147,7.79028946 C4.56394541,6.242504 1.54742119,2.91125004 0.183592345,1.23269146 C0.0524549557,1.04909911 0,0.891734246 0,0.734005109 C0,0.419275375 0.261910508,0.183592345 0.577004512,0.183592345 C0.917961724,0.183592345 5.4032247,1.75724102 7.21292068,1.75724102" id="Fill-1" fill="#000000" mask="url(#mask-2)"></path>
                </g>
            </g>
        </g>
    </g>
</svg>