<?xml version="1.0" encoding="UTF-8"?>
<svg id="Calque_2" data-name="Calque 2" xmlns="http://www.w3.org/2000/svg" viewBox="0 0 91.8 89.88">
  <defs>
    <style>
      .cls-1 {
        fill: #fff;
      }
    </style>
  </defs>
  <g id="Calque_1-2" data-name="Calque 1">
    <path class="cls-1" d="M91.48,63.47c-.37,7.2-2.05,13.58-7.41,18.83-5.37,5.27-11.88,6.92-19.23,7.26-7.58,.42-30.29,.42-37.87,0-7.35-.36-13.84-2.01-19.23-7.26C2.35,77.05,.67,70.67,.32,63.47-.11,56.05-.11,33.81,.32,26.39c.37-7.2,2.03-13.58,7.41-18.83S19.64,.66,26.97,.32C34.55-.11,57.26-.11,64.84,.32c7.35,.36,13.87,2.01,19.23,7.26,5.39,5.25,7.07,11.63,7.41,18.83,.43,7.42,.43,29.64,0,37.06Zm-7.95-18.53c0-6.54,.55-20.58-1.84-26.49-1.62-3.95-4.71-6.98-8.72-8.54-6.02-2.33-20.38-1.81-27.05-1.81s-21.01-.54-27.05,1.81c-4.03,1.58-7.13,4.61-8.72,8.54-2.38,5.9-1.84,19.96-1.84,26.49s-.55,20.58,1.84,26.49c1.62,3.95,4.71,6.98,8.72,8.54,6.02,2.33,20.38,1.81,27.05,1.81s21.01,.54,27.05-1.81c4.03-1.58,7.13-4.61,8.72-8.54,2.4-5.9,1.84-19.96,1.84-26.49Zm-14.09,0c0,12.76-10.51,23.04-23.53,23.04s-23.53-10.29-23.53-23.04,10.51-23.04,23.53-23.04,23.53,10.29,23.53,23.04Zm-8.23,0c0-8.26-6.86-14.98-15.3-14.98s-15.3,6.72-15.3,14.98,6.88,14.98,15.3,14.98,15.3-6.72,15.3-14.98Zm9.2-29.36c-3.03,0-5.49,2.41-5.49,5.38s2.44,5.38,5.49,5.38,5.49-2.39,5.49-5.38-2.46-5.38-5.49-5.38Z"/>
  </g>
</svg>