<?xml version="1.0" encoding="UTF-8"?>
<svg id="Calque_2" data-name="Calque 2" xmlns="http://www.w3.org/2000/svg" viewBox="0 0 104.86 83.4">
  <defs>
    <style>
      .cls-1 {
        fill: #fff;
      }
    </style>
  </defs>
  <g id="Calque_1-2" data-name="Calque 1">
    <path class="cls-1" d="M94.08,20.78c.07,.91,.07,1.82,.07,2.74,0,27.82-21.62,59.88-61.15,59.88-12.18,0-23.49-3.45-33-9.45,1.73,.2,3.39,.26,5.19,.26,10.05,0,19.29-3.32,26.68-8.99-9.45-.2-17.37-6.26-20.09-14.6,1.33,.2,2.66,.33,4.06,.33,1.93,0,3.86-.26,5.66-.72-9.85-1.95-17.23-10.43-17.23-20.65v-.26c2.86,1.56,6.19,2.54,9.71,2.67-5.79-3.78-9.58-10.23-9.58-17.53,0-3.91,1.06-7.49,2.93-10.62,10.58,12.77,26.48,21.11,44.31,22.02-.33-1.56-.53-3.19-.53-4.82C51.1,9.45,60.68,0,72.59,0c6.19,0,11.78,2.54,15.7,6.65,4.86-.91,9.51-2.67,13.64-5.08-1.6,4.89-4.99,8.99-9.45,11.6,4.33-.46,8.52-1.63,12.38-3.26-2.93,4.17-6.59,7.88-10.78,10.88Z"/>
  </g>
</svg>