<?xml version="1.0" encoding="UTF-8"?>
<svg width="334px" height="83px" viewBox="0 0 334 83" version="1.1" xmlns="http://www.w3.org/2000/svg" xmlns:xlink="http://www.w3.org/1999/xlink">
    <title>Leamo-Logo Copy 3</title>
    <g id="Page-1" stroke="none" stroke-width="1" fill="none" fill-rule="evenodd">
        <g id="mobile-menu" transform="translate(-20.000000, -688.000000)" fill="#000000" fill-rule="nonzero">
            <g id="Leamo-Logo-Copy-3" transform="translate(20.198078, 688.044769)">
                <path d="M292.87518,65.3278472 C290.674916,62.1274628 289.594786,57.4469005 289.594786,51.3261653 C289.594786,45.2854397 290.714921,40.6448823 292.95519,37.4845026 C295.195459,34.324123 298.555863,32.7239308 303.11641,32.7239308 C307.636953,32.7239308 311.037362,34.324123 313.277631,37.4845026 C315.5179,40.6448823 316.638035,45.2854397 316.638035,51.3261653 C316.638035,57.3668909 315.5179,62.0474531 313.277631,65.2878424 C311.037362,68.5282316 307.676958,70.1684286 303.11641,70.1684286 C298.475853,70.1284238 295.03544,68.5282316 292.87518,65.3278472 M315.43789,80.6896925 C319.158337,79.2495195 322.318717,77.1692696 324.919029,74.4489428 C327.519342,71.728616 329.519582,68.4082172 330.91975,64.5277511 C332.319918,60.647285 333,56.2067516 333,51.2861605 C333,46.445579 332.319918,42.0850553 330.959755,38.1645843 C329.599592,34.2841182 327.599351,30.9637194 324.999039,28.2833974 C322.398727,25.6030754 319.238347,23.5228256 315.5179,22.0826526 C311.797453,20.6424796 307.636953,19.9223931 303.036401,19.9223931 C298.515858,19.9223931 294.355358,20.6424796 290.674916,22.0826526 C286.954469,23.5228256 283.794089,25.6030754 281.193777,28.2833974 C278.593465,30.9637194 276.593224,34.2441134 275.193056,38.1645843 C273.792888,42.0450505 273.112806,46.445579 273.112806,51.2861605 C273.112806,61.4073763 275.713119,69.2083133 280.953748,74.6489668 C286.194378,80.0896204 293.555262,82.8099471 303.076406,82.8099471 C307.596949,82.8499519 311.757448,82.1298654 315.43789,80.6896925 M180.381667,81.0497357 L196.263575,81.0497357 L196.263575,45.4054541 C196.263575,43.6852475 196.583614,42.0450505 197.223691,40.5648727 C197.863767,39.0846949 198.703868,37.8045411 199.783998,36.7644161 C201.064152,35.4842624 202.38431,34.5641519 203.704469,34.0440894 C205.024628,33.5240269 206.504805,33.2439933 208.064993,33.2439933 C209.065113,33.2439933 209.985223,33.4040125 210.905334,33.6840461 C211.825444,34.0040846 212.585536,34.524147 213.225613,35.2842383 C213.86569,36.0443296 214.385752,37.0844546 214.745795,38.4046132 C215.105839,39.7247717 215.305863,41.4449784 215.305863,43.5652331 L215.305863,81.0497357 L231.18777,81.0497357 L231.18777,44.7253724 C231.18777,43.2051898 231.507809,41.7650168 232.147886,40.4048534 C232.787963,39.0446901 233.628063,37.8445459 234.708193,36.7644161 C235.988347,35.4842624 237.308506,34.5641519 238.628664,34.0440894 C239.948823,33.5240269 241.429,33.2439933 242.989188,33.2439933 C243.989308,33.2439933 244.909419,33.4040125 245.829529,33.6840461 C246.74964,34.0040846 247.509731,34.524147 248.149808,35.2842383 C248.789885,36.0443296 249.309947,37.0844546 249.66999,38.4046132 C250.030034,39.7247717 250.230058,41.4449784 250.230058,43.5652331 L250.230058,81.0497357 L266.111965,81.0497357 L266.111965,41.4449784 C266.111965,33.8840702 264.591783,28.4034118 261.511413,25.0430082 C258.431043,21.6826045 253.83049,20.0024027 247.709755,20.0024027 C244.069318,20.0024027 240.748919,20.8024988 237.708554,22.402691 C234.668188,24.0028832 231.787842,26.6031956 229.067516,30.2436329 C227.947381,26.923234 225.987146,24.3629265 223.266819,22.6427198 C220.546492,20.9225132 217.026069,20.0424075 212.70555,20.0424075 C209.465161,20.0424075 206.344786,20.8425036 203.384431,22.4426958 C200.424075,24.042888 197.863767,26.4831812 195.663503,29.80358 L195.663503,21.8026189 L180.221648,21.8026189 L180.221648,81.0497357 L180.381667,81.0497357 Z M156.098751,57.6469246 C156.098751,60.0872177 155.658698,62.087458 154.738587,63.727655 C153.818477,65.367852 152.658337,66.6880106 151.218164,67.7681403 C148.657857,69.6483662 145.297453,70.6084815 141.216963,70.6084815 C138.77667,70.6084815 136.896444,70.0484142 135.536281,68.8882749 C134.176117,67.7681403 133.496036,66.2079529 133.496036,64.2477174 C133.496036,62.9675637 133.69606,61.8074243 134.056103,60.7272946 C134.416146,59.6871696 135.176237,58.7270543 136.256367,57.9269582 C137.336497,57.1268621 138.936689,56.4867852 140.976934,55.9267179 C143.017179,55.4066555 145.697501,55.0466122 149.0179,54.886593 L156.058746,54.5265497 L156.058746,57.6469246 L156.098751,57.6469246 Z M156.418789,81.0497357 L171.420591,81.0497357 L171.420591,43.6052379 C171.420591,39.9648006 170.980538,36.6844065 170.100432,33.8040605 C169.220327,30.8837098 167.820159,28.4034118 165.899928,26.3631667 C163.979697,24.3229217 161.41939,22.7627343 158.219005,21.6425997 C155.058626,20.56247 151.17816,20.0024027 146.657617,20.0024027 C139.256728,20.0024027 133.336016,21.4025709 128.935488,24.1629025 C124.534959,26.923234 121.814632,31.4037722 120.774507,37.6045171 L135.296252,38.9646804 C136.216362,34.2041086 139.816795,31.8038203 146.097549,31.8038203 C148.817876,31.8038203 151.17816,32.483902 153.1784,33.8440654 C155.17864,35.2042287 156.17876,37.6845267 156.17876,41.324964 L156.17876,44.2853196 L148.577847,44.6453628 C144.777391,44.805382 141.056944,45.1654253 137.416506,45.7654974 C133.736064,46.3655694 130.45567,47.4056944 127.495315,48.8458674 C124.534959,50.2860404 122.174676,52.2862806 120.334455,54.8465882 C118.534238,57.4068957 117.614128,60.7672994 117.614128,64.8477895 C117.614128,67.9681643 118.13419,70.6084815 119.21432,72.8487506 C120.254445,75.0890197 121.694618,76.9292407 123.454829,78.3694137 C125.215041,79.8095867 127.295291,80.8497117 129.695579,81.5297934 C132.095867,82.2098751 134.576165,82.5699183 137.256487,82.5699183 C141.85704,82.5699183 145.617492,81.7298174 148.537842,80.0896204 C151.458193,78.4094185 154.09851,76.2891639 156.418789,73.6088419 L156.418789,81.0497357 L156.418789,81.0497357 Z M73.0087698,44.8453868 C73.0887794,43.0451706 73.4088179,41.3649688 74.0488948,39.8047814 C74.6489668,38.2445939 75.4890678,36.8844306 76.6092023,35.7242912 C77.6893321,34.5641519 79.0494954,33.6440413 80.6496877,32.9239548 C82.2498799,32.2438731 84.0901009,31.8838299 86.2103556,31.8838299 C90.450865,31.8838299 93.5712398,33.0039644 95.5714801,35.2842383 C97.5717203,37.5645123 98.5718405,40.7248919 98.5718405,44.805382 L73.0087698,44.805382 L73.0087698,44.8453868 Z M97.7317395,62.5275108 C96.611605,67.8081451 92.8911581,70.4884671 86.6104037,70.4884671 C82.0898606,70.4884671 78.6494474,69.1283037 76.4091783,66.4479817 C74.1289044,63.7676598 72.9287602,60.0472129 72.768741,55.286641 L113.853676,55.286641 L113.853676,48.925877 C113.853676,40.084815 111.573402,33.0439692 106.97285,27.8033397 C102.412302,22.5627102 95.5714801,19.9623979 86.4903892,19.9623979 C82.0898606,19.9623979 78.0893801,20.6824844 74.4489428,22.0426478 C70.8085055,23.442816 67.6881307,25.5230658 65.0878184,28.2433926 C62.487506,30.9637194 60.4472609,34.2841182 59.0070879,38.1645843 C57.5669149,42.0450505 56.8468284,46.5255887 56.8468284,51.4861845 C56.8468284,61.4873859 59.3271264,69.2083133 64.2877222,74.6489668 C69.2483181,80.0896204 76.6492071,82.8099471 86.4903892,82.8099471 C94.6513695,82.8099471 100.892119,81.0897405 105.172633,77.6493272 C109.453148,74.208914 112.093465,69.1683085 113.173594,62.487506 L97.7317395,62.487506 L97.7317395,62.5275108 Z M0,81.0497357 L53.44642,81.0497357 L55.2466362,66.5279914 L16.9220327,66.5279914 L16.9220327,-7.10542736e-15 L0,-7.10542736e-15 L0,81.0497357 Z" id="Shape"></path>
            </g>
        </g>
    </g>
</svg>