<?xml version="1.0" encoding="UTF-8"?>
<svg width="170px" height="43px" viewBox="0 0 170 43" version="1.1" xmlns="http://www.w3.org/2000/svg" xmlns:xlink="http://www.w3.org/1999/xlink">
    <title>logo-alterfood-black</title>
    <g id="Page-1" stroke="none" stroke-width="1" fill="none" fill-rule="evenodd">
        <g id="desktop-home" transform="translate(-140.000000, -4805.000000)" fill="#FFFFFF" fill-rule="nonzero">
            <g id="Footer" transform="translate(-6.000000, 4370.000000)">
                <g id="logo-alterfood-black" transform="translate(231.000000, 456.500000) rotate(-360.000000) translate(-231.000000, -456.500000) translate(146.000000, 435.380903)">
                    <g id="Group" transform="translate(-0.000000, 0.000000)">
                        <path d="M13.4908257,20.0441979 L6.47247706,20.0441979 L4.99082569,25.0940928 L-6.99218556e-15,25.0940928 L7.95412844,0.233072069 L11.9311927,0.233072069 L19.8853211,25.0940928 L14.8944954,25.0940928 L13.4908257,20.0441979 Z M12.3990826,16.0819728 L10.059633,7.69137827 L7.72018349,16.0819728 L12.3990826,16.0819728 Z" id="Shape"></path>
                        <path d="M40.0825688,22.2972279 C38.912844,23.9287324 36.7293578,25.4048555 33.8440367,25.4048555 C28.7752294,25.4048555 26.1238532,22.3749186 26.1238532,16.4704262 L26.1238532,4.50606 L18.1697248,4.50606 L18.1697248,0.310762759 L30.7247706,0.310762759 L30.7247706,16.9365703 C30.7247706,19.8888165 31.8944954,21.2095583 33.766055,21.2095583 C35.0137615,21.2095583 35.793578,20.6657234 36.4174312,19.8111259 L40.0825688,22.2972279 Z" id="Path"></path>
                        <path d="M47.1788991,12.4305103 L47.1788991,18.2573121 C47.1788991,21.4426303 50.766055,21.7533931 52.8715596,20.6657234 L54.587156,24.1618045 C53.4174312,24.9387114 52.0917431,25.4048555 49.5963303,25.4048555 C45.1513761,25.4048555 42.6559633,22.1418465 42.6559633,18.02424 L42.6559633,12.4305103 L38.1330275,12.4305103 L38.1330275,8.15752241 L42.6559633,8.15752241 L42.6559633,2.25303 L47.1788991,0.854597586 L47.1788991,8.2352131 L54.587156,8.2352131 L54.587156,12.4305103 L47.1788991,12.4305103 Z" id="Path"></path>
                        <path d="M73.7706422,18.3350028 L62.2293578,18.3350028 C62.6972477,19.9665072 64.0229358,21.1318676 66.206422,21.1318676 C67.766055,21.1318676 69.0917431,20.3549607 69.8715596,19.5780538 L72.8348624,22.2972279 C71.5091743,24.1618045 68.7798165,25.4048555 66.206422,25.4048555 C60.9036697,25.4048555 57.5504587,21.520321 57.5504587,16.6258076 C57.5504587,11.7312941 60.6697248,7.84675965 66.0504587,7.84675965 C69.1697248,7.84675965 74.0045872,9.7113362 74.0045872,16.3150448 C73.9266055,17.014261 73.8486239,17.6357865 73.7706422,18.3350028 Z M62.1513761,14.9943031 L69.4036697,14.9943031 C69.2477064,13.5958707 68.0779817,12.1974383 65.8944954,12.1974383 C63.7889908,12.1197476 62.6192661,13.2851079 62.1513761,14.9943031 Z" id="Shape"></path>
                        <path d="M92.9541284,11.3428407 L88.8211009,13.9066334 C88.1972477,12.7412731 87.4174312,12.275129 86.3256881,12.275129 C84.2981651,12.275129 82.7385321,14.9943031 82.7385321,18.1796214 L82.7385321,25.0940928 L78.2155963,25.0940928 L78.2155963,8.2352131 L82.7385321,8.2352131 L82.7385321,11.26515 C83.5963303,9.32288276 85.5458716,7.92445034 87.7293578,7.92445034 C90.0688073,7.92445034 91.7844037,9.16750138 92.9541284,11.3428407 Z" id="Path"></path>
                        <path d="M99.9724771,8.2352131 L99.9724771,7.38061552 C99.9724771,3.26300896 102.46789,0 106.912844,0 C109.408257,0 110.733945,0.466144138 111.90367,1.24305103 L110.188073,4.73913207 C108.16055,3.65146241 104.495413,3.96222517 104.495413,7.14754345 L104.495413,8.15752241 L111.90367,8.15752241 L111.90367,12.4305103 L104.495413,12.4305103 L104.495413,25.1717834 L99.9724771,25.1717834 L99.9724771,12.4305103 L95.9954128,12.4305103 L95.9954128,8.15752241 L99.9724771,8.15752241 L99.9724771,8.2352131 Z" id="Path"></path>
                        <path d="M131.087156,16.7034983 C131.087156,21.520321 127.344037,25.4825462 122.587156,25.4825462 C117.518349,25.4825462 114.087156,21.5980117 114.087156,16.7034983 C114.087156,11.8089848 117.362385,7.92445034 122.587156,7.92445034 C127.344037,7.92445034 131.087156,11.8089848 131.087156,16.7034983 Z M126.56422,16.7034983 C126.56422,14.2173962 124.848624,12.1974383 122.587156,12.1974383 C120.325688,12.1974383 118.610092,14.2173962 118.610092,16.7034983 C118.610092,19.1896003 120.325688,21.2095583 122.587156,21.2095583 C124.848624,21.2095583 126.56422,19.1896003 126.56422,16.7034983 Z" id="Shape"></path>
                        <path d="M150.582569,16.7034983 C150.582569,21.520321 146.83945,25.4825462 142.082569,25.4825462 C137.013761,25.4825462 133.582569,21.5980117 133.582569,16.7034983 C133.582569,11.8089848 136.857798,7.92445034 142.082569,7.92445034 C146.917431,7.92445034 150.582569,11.8089848 150.582569,16.7034983 Z M146.059633,16.7034983 C146.059633,14.2173962 144.344037,12.1974383 142.082569,12.1974383 C139.821101,12.1974383 138.105505,14.2173962 138.105505,16.7034983 C138.105505,19.1896003 139.821101,21.2095583 142.082569,21.2095583 C144.344037,21.2095583 146.059633,19.1896003 146.059633,16.7034983 Z" id="Shape"></path>
                        <path d="M170,0.310762759 L170,25.1717834 L165.477064,25.1717834 L165.477064,23.2295162 C164.541284,24.5502579 162.825688,25.4825462 160.798165,25.4825462 C156.353211,25.4825462 153,21.7533931 153,16.7034983 C153,11.6536034 156.353211,7.92445034 160.798165,7.92445034 C162.825688,7.92445034 164.541284,8.85673862 165.477064,10.0997897 L165.477064,0.310762759 L170,0.310762759 Z M165.477064,16.7034983 C165.477064,14.2173962 163.683486,12.1974383 161.5,12.1974383 C159.316514,12.1974383 157.522936,14.2173962 157.522936,16.7034983 C157.522936,19.1896003 159.316514,21.2095583 161.5,21.2095583 C163.683486,21.2095583 165.477064,19.1896003 165.477064,16.7034983 Z" id="Shape"></path>
                        <path d="M18.4036697,9.63364552 C18.4036697,8.07983172 19.6513761,6.83678069 21.2110092,6.83678069 C22.7706422,6.83678069 24.0183486,8.07983172 24.0183486,9.63364552 C24.0183486,11.1874593 22.8486239,12.4305103 21.2110092,12.4305103 C19.6513761,12.4305103 18.4036697,11.26515 18.4036697,9.63364552 Z" id="Path"></path>
                    </g>
                    <g id="Group" transform="translate(6.632444, 30.718686)">
                        <path d="M6.15558082,7.52607803 C5.76598709,8.06365503 5.06471839,8.52443532 4.05177471,8.52443532 C2.33756233,8.52443532 1.48045615,7.52607803 1.48045615,5.60616016 L1.48045615,1.61273101 L0,1.61273101 L0,0.230390144 L3.03883104,0.230390144 L3.03883104,5.68295688 C3.03883104,6.68131417 3.42842476,7.14209446 4.05177471,7.14209446 C4.44136844,7.14209446 4.75304341,6.98850103 4.9088809,6.68131417 L6.15558082,7.52607803 Z" id="Path"></path>
                        <polygon id="Path" points="9.42816808 0.230390144 10.9086242 0.230390144 10.363193 2.84147844 9.42816808 2.84147844"></polygon>
                        <path d="M18.7784174,8.4476386 L18.7004987,7.75646817 C18.310905,8.21724846 17.4537988,8.52443532 16.7525301,8.52443532 C15.4279114,8.52443532 14.7266427,7.67967146 14.7266427,6.68131417 C14.7266427,5.22217659 16.5966926,4.45420945 18.4667424,5.06858316 C18.3888237,4.37741273 18.0771487,4.07022587 17.2200425,4.07022587 C16.6746113,4.07022587 16.2070989,4.2238193 15.8954239,4.37741273 L15.3499927,3.30225873 C15.8175051,2.99507187 16.4408551,2.68788501 17.4537988,2.68788501 C18.8563362,2.68788501 20.0251173,3.45585216 20.0251173,5.52936345 L20.0251173,8.37084189 L18.7784174,8.4476386 L18.7784174,8.4476386 Z M16.2070989,6.68131417 C16.2070989,7.14209446 16.5966926,7.3724846 17.1421238,7.3724846 C17.687555,7.3724846 18.310905,6.91170431 18.4667424,6.14373717 C17.2979613,5.68295688 16.2070989,5.99014374 16.2070989,6.68131417 Z" id="Shape"></path>
                        <path d="M27.739073,7.52607803 C27.3494793,8.06365503 26.6482106,8.52443532 25.6352669,8.52443532 C23.9210546,8.52443532 23.0639484,7.52607803 23.0639484,5.60616016 L23.0639484,1.61273101 L21.5834922,1.61273101 L21.5834922,0.230390144 L24.6223233,0.230390144 L24.6223233,5.68295688 C24.6223233,6.68131417 25.011917,7.14209446 25.6352669,7.14209446 C26.0248607,7.14209446 26.3365356,6.98850103 26.4923731,6.68131417 L27.739073,7.52607803 Z" id="Path"></path>
                        <path d="M34.4400851,7.06529774 L34.4400851,8.4476386 L29.5312042,8.4476386 L29.5312042,7.06529774 L31.2454165,7.06529774 L31.2454165,4.30061602 L29.7649604,4.30061602 L29.7649604,2.91827515 L32.8037914,2.91827515 L32.8037914,7.14209446 L34.4400851,7.06529774 L34.4400851,7.06529774 Z M31.0895791,0.921560575 C31.0895791,0.383983573 31.4791728,0 32.024604,0 C32.5700352,0 32.9596289,0.383983573 32.9596289,0.921560575 C32.9596289,1.45913758 32.5700352,1.84312115 32.024604,1.84312115 C31.4791728,1.84312115 31.0895791,1.45913758 31.0895791,0.921560575 Z" id="Shape"></path>
                        <path d="M42.2319595,5.14537988 L42.2319595,8.4476386 L40.7515034,8.4476386 L40.7515034,5.14537988 C40.7515034,4.2238193 40.5177471,4.14702259 40.2839909,4.14702259 C40.0502347,4.14702259 39.8164784,4.30061602 39.8164784,5.37577002 L39.8164784,8.4476386 L38.3360223,8.4476386 L38.3360223,5.14537988 C38.3360223,4.2238193 38.1801848,4.14702259 37.9464286,4.14702259 C37.7126723,4.14702259 37.4009974,4.30061602 37.4009974,5.37577002 L37.4009974,8.4476386 L35.9205412,8.4476386 L35.9205412,2.84147844 L37.4009974,2.84147844 L37.4009974,3.45585216 C37.6347536,2.99507187 37.9464286,2.76468172 38.413941,2.76468172 C38.9593722,2.76468172 39.348966,3.1486653 39.5048035,3.53264887 C39.7385597,3.07186858 40.1281534,2.76468172 40.7515034,2.76468172 C41.6865283,2.76468172 42.2319595,3.37905544 42.2319595,5.14537988 Z" id="Path"></path>
                        <path d="M48.9329715,6.22053388 L45.0370343,6.22053388 C45.1928718,6.75811088 45.6603843,7.14209446 46.361653,7.14209446 C46.9070842,7.14209446 47.2966779,6.91170431 47.6083529,6.60451745 L48.6212966,7.52607803 C48.1537841,8.14045175 47.2966779,8.52443532 46.4395717,8.52443532 C44.6474406,8.52443532 43.5565782,7.21889117 43.5565782,5.60616016 C43.5565782,3.99342916 44.5695219,2.68788501 46.361653,2.68788501 C47.3745967,2.68788501 49.0108903,3.30225873 49.0108903,5.45256674 C49.0108903,5.75975359 48.9329715,5.99014374 48.9329715,6.22053388 Z M45.0370343,5.06858316 L47.4525154,5.06858316 C47.3745967,4.60780287 46.9850029,4.14702259 46.2837342,4.14702259 C45.5824655,4.14702259 45.1928718,4.53100616 45.0370343,5.06858316 Z" id="Shape"></path>
                        <path d="M56.0235773,5.22217659 L56.0235773,8.37084189 L54.5431211,8.37084189 L54.5431211,5.22217659 C54.5431211,4.30061602 53.9976899,4.07022587 53.5301775,4.07022587 C53.062665,4.07022587 52.5172338,4.45420945 52.5172338,5.37577002 L52.5172338,8.37084189 L50.8809402,8.37084189 L50.8809402,2.76468172 L52.3613963,2.76468172 L52.3613963,3.37905544 C52.5951525,3.07186858 53.062665,2.68788501 53.7639337,2.68788501 C55.0106336,2.76468172 56.0235773,3.53264887 56.0235773,5.22217659 Z" id="Path"></path>
                        <path d="M60.6207832,4.2238193 L60.6207832,6.14373717 C60.6207832,7.21889117 61.7895644,7.29568789 62.4908331,6.91170431 L63.0362643,8.06365503 C62.6466706,8.29404517 62.1791581,8.4476386 61.3999707,8.4476386 C59.9195145,8.4476386 59.0624083,7.3724846 59.0624083,5.99014374 L59.0624083,4.14702259 L57.7377897,4.14702259 L57.7377897,2.76468172 L59.0624083,2.76468172 L59.0624083,0.767967146 L60.5428645,0.307186858 L60.5428645,2.76468172 L63.0362643,2.76468172 L63.0362643,4.14702259 L60.6207832,4.2238193 L60.6207832,4.2238193 Z" id="Path"></path>
                        <path d="M69.1918451,8.4476386 L69.1139264,7.75646817 C68.7243326,8.21724846 67.8672265,8.52443532 67.1659578,8.52443532 C65.8413391,8.52443532 65.1400704,7.67967146 65.1400704,6.68131417 C65.1400704,5.22217659 67.0101203,4.45420945 68.8801701,5.06858316 C68.8022514,4.37741273 68.4905764,4.07022587 67.711389,4.07022587 C67.1659578,4.07022587 66.6984453,4.2238193 66.3867703,4.37741273 L65.8413391,3.30225873 C66.3088516,2.99507187 66.9322015,2.68788501 67.9451452,2.68788501 C69.3476826,2.68788501 70.5164638,3.45585216 70.5164638,5.52936345 L70.5164638,8.37084189 L69.1918451,8.4476386 L69.1918451,8.4476386 Z M66.6205265,6.68131417 C66.6205265,7.14209446 67.0101203,7.3724846 67.5555515,7.3724846 C68.1009827,7.3724846 68.7243326,6.91170431 68.8801701,6.14373717 C67.711389,5.68295688 66.6205265,5.99014374 66.6205265,6.68131417 Z" id="Shape"></path>
                        <path d="M75.035751,4.2238193 L75.035751,6.14373717 C75.035751,7.21889117 76.2045321,7.29568789 76.9058008,6.91170431 L77.451232,8.06365503 C77.0616383,8.29404517 76.5941258,8.4476386 75.8149384,8.4476386 C74.3344823,8.4476386 73.4773761,7.3724846 73.4773761,5.99014374 L73.4773761,4.14702259 L72.1527574,4.14702259 L72.1527574,2.76468172 L73.4773761,2.76468172 L73.4773761,0.767967146 L74.9578322,0.307186858 L74.9578322,2.76468172 L77.451232,2.76468172 L77.451232,4.14702259 L75.035751,4.2238193 L75.035751,4.2238193 Z" id="Path"></path>
                        <path d="M84.9314315,7.06529774 L84.9314315,8.4476386 L80.0225506,8.4476386 L80.0225506,7.06529774 L81.736763,7.06529774 L81.736763,4.30061602 L80.2563068,4.30061602 L80.2563068,2.91827515 L83.2951379,2.91827515 L83.2951379,7.14209446 L84.9314315,7.06529774 L84.9314315,7.06529774 Z M81.5030067,0.921560575 C81.5030067,0.383983573 81.8926005,0 82.4380317,0 C82.9834629,0 83.3730566,0.383983573 83.3730566,0.921560575 C83.3730566,1.45913758 82.9834629,1.84312115 82.4380317,1.84312115 C81.8926005,1.91991786 81.5030067,1.45913758 81.5030067,0.921560575 Z" id="Shape"></path>
                        <path d="M92.3337122,5.60616016 C92.3337122,7.21889117 91.0870123,8.52443532 89.5286374,8.52443532 C87.8144251,8.52443532 86.7235626,7.21889117 86.7235626,5.60616016 C86.7235626,3.99342916 87.8144251,2.68788501 89.5286374,2.68788501 C91.0870123,2.76468172 92.3337122,3.99342916 92.3337122,5.60616016 Z M90.7753373,5.60616016 C90.7753373,4.7613963 90.2299061,4.14702259 89.4507187,4.14702259 C88.6715312,4.14702259 88.1261,4.83819302 88.1261,5.60616016 C88.1261,6.37412731 88.6715312,7.06529774 89.4507187,7.06529774 C90.2299061,7.14209446 90.7753373,6.45092402 90.7753373,5.60616016 Z" id="Shape"></path>
                        <path d="M99.1905617,5.22217659 L99.1905617,8.37084189 L97.7101056,8.37084189 L97.7101056,5.22217659 C97.7101056,4.30061602 97.1646744,4.07022587 96.6971619,4.07022587 C96.2296495,4.07022587 95.6842182,4.45420945 95.6842182,5.37577002 L95.6842182,8.37084189 L94.2037621,8.37084189 L94.2037621,2.76468172 L95.6842182,2.76468172 L95.6842182,3.37905544 C95.9179745,3.07186858 96.3854869,2.68788501 97.0867556,2.68788501 C98.2555368,2.76468172 99.1905617,3.53264887 99.1905617,5.22217659 Z" id="Path"></path>
                        <path d="M113.761367,6.22053388 L109.86543,6.22053388 C110.021267,6.75811088 110.48878,7.14209446 111.190048,7.14209446 C111.73548,7.14209446 112.125073,6.91170431 112.436748,6.60451745 L113.449692,7.52607803 C112.98218,8.14045175 112.125073,8.52443532 111.267967,8.52443532 C109.475836,8.52443532 108.384974,7.21889117 108.384974,5.60616016 C108.384974,3.99342916 109.397917,2.68788501 111.190048,2.68788501 C112.202992,2.68788501 113.839286,3.30225873 113.839286,5.45256674 C113.839286,5.75975359 113.761367,5.99014374 113.761367,6.22053388 Z M109.86543,5.06858316 L112.280911,5.06858316 C112.202992,4.60780287 111.813398,4.14702259 111.11213,4.14702259 C110.410861,4.14702259 110.021267,4.53100616 109.86543,5.06858316 Z" id="Shape"></path>
                        <path d="M120.851973,5.22217659 L120.851973,8.37084189 L119.371517,8.37084189 L119.371517,5.22217659 C119.371517,4.30061602 118.826085,4.07022587 118.358573,4.07022587 C117.89106,4.07022587 117.345629,4.45420945 117.345629,5.37577002 L117.345629,8.37084189 L115.865173,8.37084189 L115.865173,2.76468172 L117.345629,2.76468172 L117.345629,3.37905544 C117.579385,3.07186858 118.046898,2.68788501 118.748167,2.68788501 C119.839029,2.76468172 120.851973,3.53264887 120.851973,5.22217659 Z" id="Path"></path>
                        <path d="M128.254253,9.36919918 C128.254253,10.6747433 127.085472,11.5195072 125.449179,11.5195072 C123.657048,11.5195072 122.644104,10.6747433 122.644104,9.36919918 C122.644104,8.60123203 123.033698,8.06365503 123.50121,7.75646817 C123.345373,7.52607803 123.189535,6.75811088 123.657048,6.14373717 C123.267454,5.75975359 123.111616,5.29897331 123.111616,4.7613963 C123.111616,3.60944559 124.046641,2.68788501 125.449179,2.68788501 C125.916691,2.68788501 126.384204,2.84147844 126.773797,2.99507187 L127.552985,2.30390144 L128.410091,3.22546201 L127.630903,3.91663244 C127.786741,4.14702259 127.786741,4.45420945 127.786741,4.68459959 C127.786741,5.83655031 126.773797,6.68131417 125.449179,6.68131417 C125.215422,6.68131417 124.981666,6.68131417 124.825829,6.60451745 C124.74791,6.8349076 124.825829,7.14209446 125.682935,7.21889117 C127.163391,7.3724846 128.254253,7.98685832 128.254253,9.36919918 Z M126.695879,9.36919918 C126.695879,8.90841889 126.306285,8.67802875 125.527097,8.67802875 C125.137504,8.67802875 124.669991,8.67802875 124.514154,8.60123203 C124.202479,8.75482546 124.046641,8.98521561 124.046641,9.29240246 C124.046641,9.75318275 124.436235,10.1371663 125.37126,10.1371663 C126.228366,10.1371663 126.695879,9.75318275 126.695879,9.36919918 Z M124.514154,4.7613963 C124.514154,5.14537988 124.903747,5.45256674 125.37126,5.45256674 C125.838772,5.45256674 126.228366,5.14537988 126.228366,4.7613963 C126.228366,4.37741273 125.838772,4.07022587 125.37126,4.07022587 C124.903747,4.14702259 124.514154,4.45420945 124.514154,4.7613963 Z" id="Shape"></path>
                        <path d="M134.020241,8.4476386 L133.942322,7.75646817 C133.552728,8.21724846 132.695622,8.52443532 131.994353,8.52443532 C130.669735,8.52443532 129.968466,7.67967146 129.968466,6.68131417 C129.968466,5.22217659 131.838516,4.45420945 133.708566,5.06858316 C133.630647,4.37741273 133.318972,4.07022587 132.539784,4.07022587 C131.994353,4.07022587 131.526841,4.2238193 131.215166,4.37741273 L130.669735,3.30225873 C131.137247,2.99507187 131.760597,2.68788501 132.773541,2.68788501 C134.176078,2.68788501 135.344859,3.45585216 135.344859,5.52936345 L135.344859,8.37084189 L134.020241,8.4476386 L134.020241,8.4476386 Z M131.448922,6.68131417 C131.448922,7.14209446 131.838516,7.3724846 132.383947,7.3724846 C132.929378,7.3724846 133.552728,6.91170431 133.708566,6.14373717 C132.539784,5.68295688 131.448922,5.99014374 131.448922,6.68131417 Z" id="Shape"></path>
                        <path d="M142.591302,9.36919918 C142.591302,10.6747433 141.422521,11.5195072 139.786228,11.5195072 C137.994097,11.5195072 136.981153,10.6747433 136.981153,9.36919918 C136.981153,8.60123203 137.370747,8.06365503 137.838259,7.75646817 C137.682422,7.52607803 137.526584,6.75811088 137.994097,6.14373717 C137.604503,5.75975359 137.448665,5.29897331 137.448665,4.7613963 C137.448665,3.60944559 138.38369,2.68788501 139.786228,2.68788501 C140.25374,2.68788501 140.721253,2.84147844 141.110846,2.99507187 L141.890034,2.30390144 L142.74714,3.22546201 L141.967952,3.91663244 C142.12379,4.14702259 142.12379,4.45420945 142.12379,4.68459959 C142.12379,5.83655031 141.110846,6.68131417 139.786228,6.68131417 C139.552471,6.68131417 139.318715,6.68131417 139.162878,6.60451745 C139.084959,6.8349076 139.162878,7.14209446 140.019984,7.21889117 C141.578359,7.3724846 142.591302,7.98685832 142.591302,9.36919918 Z M141.110846,9.36919918 C141.110846,8.90841889 140.721253,8.67802875 139.942065,8.67802875 C139.552471,8.67802875 139.084959,8.67802875 138.929121,8.60123203 C138.617446,8.75482546 138.461609,8.98521561 138.461609,9.29240246 C138.461609,9.75318275 138.851203,10.1371663 139.786228,10.1371663 C140.643334,10.1371663 141.110846,9.75318275 141.110846,9.36919918 Z M138.929121,4.7613963 C138.929121,5.14537988 139.318715,5.45256674 139.786228,5.45256674 C140.25374,5.45256674 140.643334,5.14537988 140.643334,4.7613963 C140.643334,4.37741273 140.25374,4.07022587 139.786228,4.07022587 C139.318715,4.07022587 138.929121,4.45420945 138.929121,4.7613963 Z" id="Shape"></path>
                        <path d="M149.759827,6.22053388 L145.86389,6.22053388 C146.019727,6.75811088 146.48724,7.14209446 147.188508,7.14209446 C147.73394,7.14209446 148.123533,6.91170431 148.435208,6.60451745 L149.448152,7.52607803 C148.980639,8.14045175 148.123533,8.52443532 147.266427,8.52443532 C145.474296,8.52443532 144.383434,7.21889117 144.383434,5.60616016 C144.383434,3.99342916 145.396377,2.68788501 147.188508,2.68788501 C148.201452,2.68788501 149.837746,3.30225873 149.837746,5.45256674 C149.837746,5.75975359 149.837746,5.99014374 149.759827,6.22053388 Z M145.86389,5.06858316 L148.279371,5.06858316 C148.201452,4.60780287 147.811858,4.14702259 147.11059,4.14702259 C146.409321,4.14702259 146.019727,4.53100616 145.86389,5.06858316 Z M147.266427,2.07351129 L146.331402,2.07351129 L147.11059,0.230390144 L148.435208,0.230390144 L147.266427,2.07351129 Z" id="Shape"></path>
                        <path d="M157.00627,6.22053388 L153.110333,6.22053388 C153.26617,6.75811088 153.733683,7.14209446 154.434952,7.14209446 C154.980383,7.14209446 155.369977,6.91170431 155.681652,6.60451745 L156.694595,7.52607803 C156.227083,8.14045175 155.369977,8.52443532 154.51287,8.52443532 C152.720739,8.52443532 151.629877,7.21889117 151.629877,5.60616016 C151.629877,3.99342916 152.64282,2.68788501 154.434952,2.68788501 C155.447895,2.68788501 157.084189,3.30225873 157.084189,5.45256674 C157.00627,5.75975359 157.00627,5.99014374 157.00627,6.22053388 Z M153.110333,5.06858316 L155.525814,5.06858316 C155.447895,4.60780287 155.058302,4.14702259 154.357033,4.14702259 C153.655764,4.14702259 153.26617,4.53100616 153.110333,5.06858316 Z" id="Shape"></path>
                    </g>
                </g>
            </g>
        </g>
    </g>
</svg>