<?xml version="1.0" encoding="UTF-8"?>
<svg width="120px" height="204px" viewBox="0 0 120 204" version="1.1" xmlns="http://www.w3.org/2000/svg" xmlns:xlink="http://www.w3.org/1999/xlink">
    <title>map point</title>
    <defs>
        <polygon id="path-1" points="0 -1.42108547e-14 119.72074 -1.42108547e-14 119.72074 204 0 204"></polygon>
    </defs>
    <g id="Page-1" stroke="none" stroke-width="1" fill="none" fill-rule="evenodd">
        <g id="mobile-home" transform="translate(-125.000000, -4126.000000)">
            <g id="map" transform="translate(-3.000000, 3995.000000)">
                <g id="map-copy" transform="translate(30.000000, 33.000000)">
                    <g id="map-point" transform="translate(98.000000, 98.000000)">
                        <mask id="mask-2" fill="white">
                            <use xlink:href="#path-1"></use>
                        </mask>
                        <g id="Clip-2"></g>
                        <path d="M59.8614844,85.7027251 C42.0255965,85.7027251 30.4567272,75.7407543 30.4567272,57.4242826 C30.4567272,38.7855169 42.0255965,27.6989457 59.8614844,27.6989457 C78.6602542,27.6989457 89.2639558,38.7855169 89.2639558,57.4242826 C89.2639558,75.7407543 78.6602542,85.7027251 59.8614844,85.7027251 M102.914593,11.1933778 C96.547572,4.48006204 80.5363025,-0.235487968 62.142686,0.00908975874 C44.0273623,0.249667383 30.8413085,2.59087053 15.9626396,10.3527847 C10.3767815,13.2677169 -5.71443287e-05,28.8349749 -5.71443287e-05,52.7795915 C-5.71443287e-05,75.8819008 16.8060899,140.572138 54.610492,196.85873 C57.5505677,201.480564 60.490072,204.000057 63.0078511,204.000057 C65.5313447,204.000057 67.6279701,201.900575 70.1520351,198.119334 C105.854669,140.992149 119.72074,75.8819008 119.72074,51.5189877 C119.72074,28.4149641 107.829005,16.3746541 102.914593,11.1933778" id="Fill-1" fill="#000000" mask="url(#mask-2)"></path>
                    </g>
                </g>
            </g>
        </g>
    </g>
</svg>