<?xml version="1.0" encoding="UTF-8"?>
<svg width="310px" height="261px" viewBox="0 0 310 261" version="1.1" xmlns="http://www.w3.org/2000/svg" xmlns:xlink="http://www.w3.org/1999/xlink">
    <title>recipes4</title>
    <defs>
        <polygon id="path-1" points="0 0 29.7912044 0 29.7912044 76.4634795 0 76.4634795"></polygon>
        <polygon id="path-3" points="4.50960359e-15 1.80384144e-14 54.9700625 1.80384144e-14 54.9700625 79.6294208 4.50960359e-15 79.6294208"></polygon>
    </defs>
    <g id="Page-1" stroke="none" stroke-width="1" fill="none" fill-rule="evenodd">
        <g id="desktop-home" transform="translate(-960.000000, -2875.000000)">
            <g id="RecipesSection2" transform="translate(-6.000000, 2614.000000)">
                <g id="recipes4" transform="translate(966.000000, 261.000000)">
                    <path d="M65.5619479,68.1600043 C66.5482255,67.8959815 68.4268496,63.5903783 68.4268496,60.1618894 C68.4268496,58.3771966 67.7223655,57.9062712 66.8300191,58.1449073 C66.453025,58.2451852 66.0303346,58.5003226 65.7028447,58.915397 C64.9983607,59.8090127 64.5287047,61.483273 64.5287047,64.6782032 C64.5287047,67.7296979 64.7622634,68.3732535 65.5619479,68.1600043 M55.6496674,53.4724646 C57.4356296,52.7146683 63.6833239,50.8588924 65.7967759,50.2953052 C74.5793433,47.9521025 80.9692037,48.5956582 80.9692037,55.9222919 C80.9692037,60.0552648 79.2784421,63.1841893 76.7410303,66.4438559 C76.5062023,66.7421509 76.3653055,67.0620247 76.3653055,67.2955834 C76.3653055,67.5316807 76.4592367,67.6941563 76.6940647,67.8185517 C81.0618655,70.4587801 82.2842405,80.324095 82.2842405,80.9346478 C82.2842405,81.6391318 81.8615501,82.1278279 81.1570661,82.3626559 C80.027353,82.7104552 77.9139009,83.3222774 75.8017182,83.8858646 C74.063991,84.3491739 72.3249944,84.7667869 71.1508544,85.0333484 C70.0706456,85.2732538 69.6949208,85.0930075 69.6022589,84.4596065 C68.84954,77.8971158 68.1907522,74.3632717 66.5482255,74.7999248 C65.6076442,75.0525236 65.0922919,76.410718 65.0922919,78.2423764 C65.0922919,81.1542437 65.9846383,84.9546493 65.9846383,85.5664715 C65.9846383,86.0830931 65.6546098,86.4042363 65.0922919,86.6022534 C63.7290201,87.0604853 61.8034305,87.6215339 59.7839097,88.1597343 C58.1870792,88.5862327 56.5432832,88.9771896 55.040384,89.2856393 C54.3815962,89.4125734 53.7710434,89.4366909 53.6783815,88.5214963 C53.2556911,84.547191 52.8330007,79.5878774 52.8330007,73.9037704 C52.8330007,68.1282708 53.2556911,61.6279778 54.4755274,54.7722694 C54.6164242,54.0754014 54.9934184,53.7415648 55.6496674,53.4724646" id="Fill-1" fill="#FFFFFF"></path>
                    <path d="M84.8635405,81.3740935 C83.8302973,81.6025748 83.2654408,81.5657639 83.2184752,80.4500135 C83.124544,78.5028451 83.0775784,76.3551209 83.0775784,74.100772 C83.0775784,65.7408951 83.7820624,55.311993 85.4258584,46.5611591 C85.5680245,45.9125261 86.0376806,45.1763086 86.6939296,44.9554433 C88.573823,44.3118877 92.6128647,43.1402863 96.7928032,42.024536 C101.069212,40.8846681 105.435743,39.8133447 107.833527,39.3614595 C108.536742,39.2192933 108.725874,39.4515826 108.725874,39.8285768 C108.725874,40.4378603 107.268671,46.0864258 106.141496,49.0186025 C105.953634,49.4438316 105.67184,49.6608888 105.343081,49.747204 C104.920391,49.8614446 104.4977,49.8309804 103.65232,49.7294332 C102.290317,49.575843 100.504355,49.5821897 98.4378685,50.1343528 C97.1697973,50.4719974 96.2774509,50.9924271 95.6668981,51.7654555 C95.1502765,52.4204352 94.9141791,53.1414206 94.9141791,53.9868014 C94.9141791,54.8778785 95.3368695,55.2345632 96.1365541,55.021314 C97.7333845,54.5960849 99.7529054,53.3534005 102.007254,52.7517331 C103.744981,52.2884238 104.920391,52.2084553 104.920391,53.0068705 C104.920391,54.1353143 103.698016,59.4855848 102.993532,61.7868992 C102.806939,62.40126 102.617807,62.6398961 102.242082,62.740174 C101.632799,62.9026496 99.6577048,62.7249419 97.7803501,63.2250621 C95.5247319,63.8279988 94.8215173,65.2839325 94.8215173,66.4123762 C94.8215173,68.0092067 95.7138637,68.4737853 97.7803501,67.9216222 C101.678495,66.8820322 104.028044,64.5654857 105.343081,63.3202626 C105.765772,62.926767 105.906668,62.74779 106.188462,62.6741683 C106.422021,62.6107012 106.611152,62.7008244 106.705084,62.9585006 C107.456533,64.7787349 108.583708,71.2879133 108.583708,73.634924 C108.583708,74.4333393 108.067086,75.1352846 107.080808,75.446273 C103.885878,76.4388974 100.034699,77.5597251 96.3231472,78.5498107 C91.9566156,79.7150654 87.7754078,80.7381538 84.8635405,81.3740935" id="Fill-3" fill="#FFFFFF"></path>
                    <path d="M108.814982,59.0602287 C108.814982,48.6795616 114.076398,36.9419694 124.127037,34.2611221 C131.689768,32.2428706 135.166492,36.2946057 135.166492,41.2729594 C135.166492,42.8697898 134.790767,44.0045803 133.991082,45.2510727 C132.253355,48.0156965 127.697692,52.613248 125.537274,53.1882593 C124.972418,53.3393108 124.785825,52.9661247 124.785825,52.2146751 C124.785825,51.3692943 124.879756,50.1240712 124.879756,48.9968967 C124.879756,46.6955823 124.457065,44.7890328 123.187725,45.1266774 C121.826992,45.4909781 121.168204,47.7795991 121.168204,52.617056 C121.168204,58.628653 122.765034,59.1897015 125.067618,58.5753407 C127.791623,57.8480085 129.999006,55.3804104 132.207659,52.5840532 C132.488183,52.2260991 132.72428,52.0699703 133.006074,51.9950792 C134.228449,51.6688586 135.307388,54.2468893 135.307388,57.8175443 C135.307388,63.3582159 131.362278,69.6706465 123.282925,71.8272561 C114.170329,74.2593127 108.814982,70.1923455 108.814982,59.0602287" id="Fill-5" fill="#FFFFFF"></path>
                    <path d="M138.96804,66.9377563 C137.934796,67.1662376 137.36994,67.1281574 137.322974,66.012407 C137.229043,64.0665079 137.182078,61.9187837 137.182078,59.6644349 C137.182078,51.3045579 137.887831,40.8756558 139.530358,32.1235526 C139.672524,31.4761889 140.14218,30.7399714 140.798429,30.5178368 C142.678322,29.8755505 146.717364,28.7026798 150.897302,27.5881988 C155.173711,26.4470616 159.540242,25.3757382 161.938027,24.9238529 C162.641241,24.7829561 162.830373,25.0152455 162.830373,25.3909703 C162.830373,26.0002537 161.37317,31.6500886 160.247265,34.580996 C160.058133,35.0074944 159.77634,35.2245516 159.44758,35.3108668 C159.02489,35.4238381 158.6022,35.3946433 157.756819,35.2918267 C156.394816,35.1395058 154.608854,35.1458525 152.542368,35.6980157 C151.274296,36.0343909 150.38195,36.5548205 149.771397,37.3291183 C149.254776,37.9828287 149.018678,38.7050835 149.018678,39.5504643 C149.018678,40.4415413 149.441369,40.798226 150.241053,40.5849768 C151.837884,40.1584784 153.857405,38.915794 156.111753,38.3141266 C157.849481,37.8508173 159.02489,37.7708488 159.02489,38.5705334 C159.02489,39.6977078 157.802515,45.0492476 157.098031,47.350562 C156.911438,47.9649229 156.722306,48.2035589 156.347851,48.3038368 C155.737298,48.4663124 153.762204,48.2886047 151.884849,48.7887249 C149.629231,49.3903923 148.926016,50.846326 148.926016,51.9747697 C148.926016,53.5716001 149.818363,54.0374481 151.884849,53.485285 C155.782994,52.4456951 158.132544,50.1278792 159.44758,48.8839254 C159.870271,48.4904299 160.011168,48.3114528 160.292961,48.2365618 C160.527789,48.1743641 160.715652,48.2644872 160.809583,48.520894 C161.561032,50.3411284 162.688207,56.8503068 162.688207,59.1973175 C162.688207,59.9957327 162.171585,60.6989474 161.185308,61.0086665 C157.990377,62.0025602 154.139198,63.1233879 150.428916,64.1134735 C146.061115,65.2787282 141.879907,66.3018167 138.96804,66.9377563" id="Fill-7" fill="#FFFFFF"></path>
                    <path d="M170.81059,58.4404097 C170.012175,58.6066934 169.401622,58.3947135 169.260725,57.2104187 C169.119829,56.1200552 169.072863,54.207159 169.072863,52.0467413 C169.072863,43.450767 170.104837,37.3058893 170.104837,35.7547552 C170.104837,35.0502712 169.919513,34.5831538 168.978932,34.8344833 C166.629382,35.4602682 164.938621,36.898431 163.858412,37.1878407 C163.483956,37.2868492 163.200893,37.1269123 163.200893,36.5176289 C163.200893,34.8738328 163.906647,28.6274079 164.423268,26.0925348 C164.609862,25.5721052 164.938621,25.1087959 165.644374,24.6861055 C167.19297,23.7569482 171.280246,21.915135 176.869153,20.4236598 C181.756114,19.1187777 185.652989,18.6897406 187.438952,19.1060843 C188.379533,19.466577 188.472195,20.0047774 188.425229,21.2385765 C188.331298,24.2227961 187.956843,28.2199496 187.579848,30.3867139 C187.438952,30.9426851 187.24982,31.1800518 186.92233,31.2676363 C186.17088,31.4681921 184.666712,30.7890949 182.55326,31.3539514 C181.848776,31.5418138 181.521286,32.0051231 181.332154,32.9469738 C181.238223,33.4902516 181.145561,34.2188531 181.145561,35.1111995 C181.145561,44.7861133 183.446875,52.2041396 183.446875,53.9418668 C183.446875,54.5993852 183.116847,55.0157289 182.271466,55.3825683 C181.238223,55.8001814 178.888674,56.5186281 176.588628,57.132989 C174.755701,57.6216851 172.407421,58.1560775 170.81059,58.4404097" id="Fill-9" fill="#FFFFFF"></path>
                    <path d="M197.063853,51.4354269 C196.265438,51.6017105 195.654885,51.3884613 195.513989,50.2054359 C195.373092,49.1150724 195.327395,47.2021761 195.327395,45.0417585 C195.327395,36.4457842 196.3581,30.3009065 196.3581,28.7497723 C196.3581,28.0452883 196.172776,27.578171 195.232195,27.8282311 C192.882646,28.4552853 191.191884,29.8934482 190.111675,30.1815885 C189.73722,30.2818664 189.454157,30.1219295 189.454157,29.512646 C189.454157,27.86885 190.15991,21.6211557 190.676532,19.087552 C190.863125,18.565853 191.191884,18.103813 191.897637,17.6811226 C193.447502,16.7519653 197.533509,14.9101522 203.122416,13.418677 C208.009377,12.1137949 211.907522,11.6847578 213.692215,12.1011015 C214.632796,12.4603249 214.725458,12.9997946 214.678492,14.2323243 C214.584561,17.2178133 214.210106,21.2162361 213.833112,23.3817311 C213.692215,23.9377023 213.504352,24.1737996 213.175593,24.2626534 C212.424144,24.4632092 210.919975,23.784112 208.806523,24.3476993 C208.102039,24.536831 207.774549,25.0001403 207.586687,25.941991 C207.491486,26.4852688 207.398824,27.2138703 207.398824,28.1062167 C207.398824,37.7798611 209.700139,45.1991567 209.700139,46.9368839 C209.700139,47.5944024 209.37011,48.0107461 208.524729,48.3775855 C207.491486,48.7951985 205.141937,49.5136453 202.841892,50.1280061 C201.008964,50.6167022 198.660684,51.1498253 197.063853,51.4354269" id="Fill-11" fill="#FFFFFF"></path>
                    <path d="M217.165131,46.0718284 C216.131887,46.301579 215.567031,46.2634988 215.521334,45.1477484 C215.426134,43.2018493 215.380438,41.0528558 215.380438,38.7997763 C215.380438,30.4398993 216.084922,20.0109972 217.727448,11.258894 C217.869615,10.610261 218.339271,9.87404347 218.996789,9.65317821 C220.875413,9.00962254 224.914455,7.8380212 229.095662,6.72227084 C233.370802,5.58240302 237.738602,4.51107958 240.135117,4.05919434 C240.838332,3.9170282 241.027464,4.15058686 241.027464,4.52631167 C241.027464,5.13559514 239.570261,10.7841607 238.444356,13.7163374 C238.255224,14.1415664 237.97343,14.3586237 237.644671,14.4462082 C237.221981,14.5591795 236.79929,14.5299847 235.95391,14.4271681 C234.591907,14.2735779 232.805945,14.2799246 230.739459,14.8320877 C229.471387,15.1697323 228.579041,15.6901619 227.968488,16.4644597 C227.451866,17.1181701 227.217038,17.8404249 227.217038,18.6858057 C227.217038,19.5756134 227.639729,19.9322981 228.438144,19.7190489 C230.034975,19.2938198 232.054495,18.0511354 234.308844,17.449468 C236.046571,16.9861587 237.221981,16.9061902 237.221981,17.7058748 C237.221981,18.8330492 236.000875,24.184589 235.296391,26.4846341 C235.108529,27.1002643 234.919397,27.337631 234.544942,27.4379089 C233.934389,27.6003845 231.960564,27.4226768 230.083209,27.922797 C227.826322,28.5257337 227.123107,29.9816674 227.123107,31.1101111 C227.123107,32.7069415 228.015454,33.1715202 230.083209,32.6206264 C233.981354,31.5797671 236.329634,29.2632206 237.644671,28.0192668 C238.067362,27.6257713 238.208258,27.4467942 238.490052,27.3719032 C238.72488,27.3084361 238.912742,27.3998286 239.006674,27.6562354 C239.759393,29.4764698 240.885298,35.9856482 240.885298,38.3326589 C240.885298,39.1310741 240.368676,39.8330195 239.382398,40.1440079 C236.187468,41.1366322 232.336289,42.25746 228.626006,43.2475456 C224.258206,44.4128002 220.076998,45.4358887 217.165131,46.0718284" id="Fill-13" fill="#FFFFFF"></path>
                    <path d="M242.948611,34.1195907 C242.948611,30.5971706 245.392091,27.8312775 249.243271,26.8031116 C253.282312,25.7267108 255.536661,27.2384955 255.536661,30.7609155 C255.536661,34.2846049 253.282312,36.7636271 249.243271,37.8412972 C245.392091,38.8681937 242.948611,37.6420107 242.948611,34.1195907 M255.818455,0.0149483656 C256.522939,-0.0789828361 256.759036,0.280240544 256.759036,0.798131494 C256.759036,2.15886458 254.69128,7.36062221 253.658037,22.1966747 C253.564106,23.6779952 252.953553,24.2161956 250.040416,25.2748256 C249.102374,25.6200862 248.302689,25.8803011 247.645171,26.0554701 C246.237472,26.4311949 245.484753,26.3499571 245.20296,25.5794673 C243.934888,22.1141676 243.089508,18.8633864 242.712513,14.173173 C242.478955,11.2765379 242.385024,9.09327208 242.385024,5.80568002 C242.385024,4.63407868 242.712513,3.65287842 244.403275,3.06009638 C245.860478,2.53078137 247.975199,1.92022855 250.135617,1.34394794 C252.249069,0.779091386 254.409487,0.24977637 255.818455,0.0149483656" id="Fill-15" fill="#FFFFFF"></path>
                    <g id="Group-19" transform="translate(0.000000, 108.504645)">
                        <mask id="mask-2" fill="white">
                            <use xlink:href="#path-1"></use>
                        </mask>
                        <g id="Clip-18"></g>
                        <path d="M16.086226,73.7547323 C12.1334995,74.8095543 8.08938049,75.8897631 4.41210087,76.4127315 C2.9422045,76.619634 2.29864883,76.2388318 1.8378782,74.4312908 C1.0115375,71.1589309 -0.000126934056,60.2146765 -0.000126934056,47.7129413 C-0.000126934056,26.8462517 2.20598697,13.2046487 3.30904392,9.05009703 C3.7685452,7.27302024 4.78020963,6.35909503 5.9746591,5.94909803 C9.46788434,4.83207833 13.145164,3.75948555 16.8224436,2.7782853 C20.6825082,1.74758076 24.5438422,0.809538082 28.0370675,0.0618964897 C29.2315169,-0.164046131 29.8750726,0.214217357 29.7824107,1.43405364 C29.7824107,3.91561444 25.0020742,17.7844295 25.0020742,35.6186644 C25.0020742,54.4632944 29.5996257,66.1983479 29.5996257,68.0363531 C29.5996257,69.13941 28.9573394,69.7702723 27.6689587,70.2056561 C23.8990172,71.5778132 20.0389526,72.7011796 16.086226,73.7547323" id="Fill-17" fill="#FFFFFF" mask="url(#mask-2)"></path>
                    </g>
                    <path d="M32.0805518,146.555493 C32.0805518,126.239697 42.3749038,103.26971 62.0471439,98.0209872 C76.8476549,94.0707994 83.6487816,102.00037 83.6487816,111.743828 C83.6487816,114.870214 82.9138334,117.089021 81.3500059,119.527424 C77.9507118,124.939893 69.0335944,133.936979 64.8054209,135.064153 C63.7010946,135.359909 63.3342552,134.630038 63.3342552,133.158873 C63.3342552,131.506191 63.5183096,129.066519 63.5183096,126.859136 C63.5183096,122.355515 62.6906995,118.623654 60.2091387,119.28625 C57.5435236,119.99708 56.2564122,124.476583 56.2564122,133.944595 C56.2564122,145.711382 59.3815287,146.808092 63.8864184,145.606026 C69.2176487,144.184365 73.538484,139.354524 77.85805,133.881128 C78.4089438,133.181721 78.868445,132.87581 79.4206082,132.727297 C81.8107765,132.090088 83.9254979,137.134447 83.9254979,144.119629 C83.9254979,154.967413 76.2028299,167.321905 60.3931931,171.541193 C42.5602275,176.299951 32.0805518,168.341185 32.0805518,146.555493" id="Fill-20" fill="#FFFFFF"></path>
                    <path d="M91.0925755,161.971 C89.070516,162.419077 87.967459,162.344186 87.8760665,160.162189 C87.6920121,156.351629 87.6006196,152.148842 87.6006196,147.735345 C87.6006196,131.373545 88.9791234,110.965088 92.1969018,93.8366061 C92.4723487,92.5685348 93.3913513,91.1278333 94.6784626,90.6924495 C98.3557422,89.4358023 106.259926,87.1433733 114.442095,84.9601075 C122.80578,82.7273374 131.356058,80.6303868 136.043733,79.7481951 C137.422237,79.4714789 137.790346,79.9246335 137.790346,80.6595817 C137.790346,81.8553005 134.940676,92.9099875 132.734562,98.6461375 C132.366453,99.4800942 131.815559,99.904054 131.172004,100.074146 C130.344394,100.29628 129.516784,100.240429 127.861564,100.038604 C125.197218,99.740309 121.702723,99.7517331 117.658604,100.830673 C115.177043,101.493268 113.4317,102.511279 112.234712,104.025603 C111.224317,105.305098 110.764816,106.716605 110.764816,108.369286 C110.764816,110.117168 111.592426,110.814036 113.154984,110.397692 C116.2801,109.563736 120.232827,107.13041 124.645055,105.953731 C128.045618,105.044883 130.344394,104.892562 130.344394,106.455121 C130.344394,108.661235 127.954225,119.134564 126.575722,123.639453 C126.207613,124.840249 125.839504,125.304828 125.104556,125.502845 C123.910106,125.82145 120.048772,125.472381 116.372762,126.453581 C111.959265,127.63026 110.582031,130.479929 110.582031,132.687313 C110.582031,135.812429 112.327374,136.725085 116.372762,135.646146 C124.001499,133.610123 128.597781,129.074769 131.172004,126.641444 C131.999614,125.869685 132.275061,125.519347 132.825955,125.372103 C133.285456,125.250246 133.653565,125.426685 133.837619,125.929344 C135.307515,129.489844 137.513629,142.230215 137.513629,146.826497 C137.513629,148.389056 136.503234,149.762482 134.572567,150.369227 C128.321065,152.312587 120.78499,154.507277 113.523093,156.44556 C104.974084,158.726565 96.7919146,160.725776 91.0925755,161.971" id="Fill-22" fill="#FFFFFF"></path>
                    <path d="M162.609508,122.114467 C160.21807,123.027123 156.726114,124.050212 153.23162,124.983177 C148.912054,126.135738 144.407164,127.155019 141.467371,127.755417 C139.167326,128.183185 137.788822,127.63356 137.788822,124.875283 C137.788822,120.279001 138.342255,116.179031 139.812151,110.27152 C140.455707,107.525936 141.558764,105.577499 143.305376,104.927596 C145.970992,103.940049 149.923718,102.792565 153.785052,101.76313 C157.645117,100.732426 161.506451,99.7943829 163.802688,99.4567384 C166.745019,99.1330565 168.032131,99.6154059 168.032131,103.017239 C168.032131,105.498799 167.204521,112.155221 165.826017,117.39379 C165.275123,119.748417 164.538905,121.413791 162.609508,122.114467" id="Fill-24" fill="#FFFFFF"></path>
                    <path d="M187.978929,136.394549 C184.024933,137.449371 179.980814,138.52831 176.303535,139.051279 C174.833638,139.258181 174.190082,138.878648 173.729312,137.071107 C172.901702,133.798747 171.891307,122.853224 171.891307,110.352758 C171.891307,89.4860682 174.097421,75.8444652 175.200478,71.6886442 C175.661248,69.9115674 176.671643,68.9989115 177.866093,68.5876452 C181.360587,67.4706255 185.037867,66.3980327 188.713877,65.4181018 C192.573942,64.3861279 196.435276,63.4480852 199.928501,62.7004436 C201.122951,62.474501 201.766506,62.8540338 201.673844,64.0738701 C201.673844,66.5554309 196.893508,80.4242459 196.893508,98.2572115 C196.893508,117.101842 201.492329,128.836895 201.492329,130.6749 C201.492329,131.777957 200.847504,132.410089 199.560392,132.845473 C195.790451,134.21763 191.930386,135.339727 187.978929,136.394549" id="Fill-26" fill="#FFFFFF"></path>
                    <path d="M203.973382,100.689395 C203.973382,80.3735992 214.267734,57.4036124 233.938704,52.1548891 C248.739215,48.2059706 255.540342,56.1355412 255.540342,65.8789993 C255.540342,69.0053851 254.805394,71.2229231 253.242836,73.6613263 C249.842272,79.0737945 240.925155,88.0721498 236.695712,89.1993242 C235.593925,89.4938112 235.225816,88.7639404 235.225816,87.294044 C235.225816,85.6413626 235.40987,83.20169 235.40987,80.9943068 C235.40987,76.4906864 234.58226,72.7575558 232.100699,73.4201516 C229.435084,74.1309823 228.147973,78.6104852 228.147973,88.0797658 C228.147973,99.8465528 231.273089,100.941994 235.777979,99.7411976 C241.109209,98.3182668 245.430045,93.488426 249.749611,88.0150294 C250.301774,87.3156228 250.760006,87.0097117 251.313438,86.8624682 C253.702337,86.2239899 255.815789,91.2683493 255.815789,98.2535304 C255.815789,109.101315 248.09566,121.455807 232.284754,125.676364 C214.451788,130.433852 203.973382,122.475087 203.973382,100.689395" id="Fill-28" fill="#FFFFFF"></path>
                    <path d="M262.985278,116.104901 C260.96195,116.554248 259.858893,116.479357 259.7675,114.297361 C259.583446,110.485531 259.492053,106.282744 259.492053,101.869247 C259.492053,85.5074472 260.870557,65.0989896 264.087066,47.9717773 C264.363782,46.7024367 265.282785,45.2617352 266.569896,44.8263514 C270.247176,43.5697042 278.15136,41.2785445 286.333529,39.0940094 C294.697214,36.8625087 303.247492,34.7655581 307.935167,33.8833664 C309.31494,33.6053808 309.68051,34.0585354 309.68051,34.7947529 C309.68051,35.9904717 306.83211,47.0451587 304.625996,52.7813087 C304.257887,53.6152655 303.706993,54.0392252 303.062168,54.2093168 C302.235827,54.4301821 301.409487,54.3743311 299.754267,54.172506 C297.088651,53.8742109 293.594157,53.885635 289.550038,54.9658438 C287.068477,55.6271703 285.323134,56.6451814 284.126146,58.1595047 C283.115751,59.4402693 282.656249,60.8505067 282.656249,62.5044574 C282.656249,64.2510701 283.483859,64.9492074 285.047687,64.5315943 C288.171534,63.6976376 292.124261,61.265581 296.536488,60.087633 C299.937052,59.1800545 302.235827,59.0264643 302.235827,60.5890225 C302.235827,62.7951364 299.845659,73.2697348 298.467155,77.7746244 C298.099047,78.9741513 297.732207,79.4399993 296.99599,79.636747 C295.80154,79.9553515 291.941475,79.6062829 288.264196,80.5887525 C283.850699,81.7654312 282.472195,84.6138314 282.472195,86.8212146 C282.472195,89.9476004 284.220077,90.858987 288.264196,89.7813168 C295.892933,87.7452946 300.490484,83.2086714 303.063437,80.7753455 C303.891048,80.0035865 304.166494,79.6532485 304.717388,79.5072743 C305.17689,79.3841483 305.544998,79.5618559 305.729053,80.0632455 C307.198949,83.6250151 309.405063,96.3653863 309.405063,100.960399 C309.405063,102.524227 308.394668,103.897653 306.464001,104.503129 C300.213768,106.446489 292.676424,108.642448 285.413257,110.579462 C276.865518,112.860467 268.683348,114.860948 262.985278,116.104901" id="Fill-30" fill="#FFFFFF"></path>
                    <g id="Group-34" transform="translate(25.094101, 181.370579)">
                        <mask id="mask-4" fill="white">
                            <use xlink:href="#path-3"></use>
                        </mask>
                        <g id="Clip-33"></g>
                        <path d="M31.8972591,46.586328 C31.8972591,42.6336015 30.3359702,39.8347056 28.2212488,40.3982928 C27.02553,40.7168973 25.2789173,42.0103553 23.8991442,43.481521 C22.5206403,45.0440792 21.9697465,47.3060441 21.9697465,49.5108887 C21.9697465,52.9114521 22.4292478,54.4435461 23.164196,54.9830159 C23.7163591,55.3892048 24.3599148,55.3079671 25.1875248,55.0871018 C27.8518707,54.3762711 31.8972591,51.5494496 31.8972591,46.586328 M30.9769871,19.3462795 C30.9769871,16.4052174 27.9445325,16.2960541 25.4629717,16.9586499 C24.3599148,17.2531369 23.5323047,17.7481797 22.8887491,18.5630964 C21.6930303,20.0774197 21.1421364,22.706224 21.1421364,27.6718843 C21.1421364,29.5086201 21.5102452,30.6053303 22.8887491,30.2372216 C25.4629717,29.5505083 30.9769871,23.6658455 30.9769871,19.3462795 M4.1367809,79.4571713 C2.84840023,79.7085007 1.56382758,79.9598302 1.37850385,78.0799368 C0.459501284,68.2108139 4.50960359e-15,58.5917511 4.50960359e-15,49.2151323 C4.50960359e-15,35.6103402 1.01166443,23.2063442 2.66561519,11.7340441 C2.84840023,10.2146435 3.861334,9.30071828 5.23983785,8.84248634 C8.73179375,7.63407412 15.9022986,5.44573099 23.0740728,3.53156542 C35.9413781,0.0979991873 44.2149399,-1.55849025 48.9952765,1.94615905 C51.2013904,3.56329893 52.3958398,6.2784184 52.3958398,10.2298756 C52.3958398,16.7568248 49.1780615,22.2124505 44.8584956,26.858237 C44.0308855,27.8140504 43.6640461,28.3700216 43.6640461,28.9234541 C43.6640461,29.2902935 43.939493,29.6774424 44.4903868,29.8983076 C51.7535535,33.1072006 54.9700625,37.0294629 54.9700625,45.3944172 C54.9700625,58.5397081 44.9498881,68.934338 20.3145264,75.5069835 C15.1673504,76.8816793 9.46674193,78.3109568 4.1367809,79.4571713" id="Fill-32" fill="#FFFFFF" mask="url(#mask-4)"></path>
                    </g>
                    <path d="M110.581396,207.040079 C111.409006,206.635159 112.236616,206.047454 113.062957,205.549873 C113.983229,204.845389 114.44273,204.171369 114.44273,202.884258 C114.44273,199.483694 113.24828,194.285745 112.052562,191.75468 C111.775845,191.184746 111.501668,190.98419 111.134828,191.081929 C110.674058,191.203786 110.305949,191.576972 109.93784,192.318267 C107.273494,197.167148 106.26183,203.871805 106.26183,208.008586 C106.26183,208.836196 106.629939,208.921241 107.08944,208.799385 C107.824388,208.601368 109.111499,207.891806 110.581396,207.040079 M86.5895898,245.430015 C84.6601922,245.853975 83.6472584,245.756235 83.4644734,244.14925 C83.0976339,240.570979 82.9123102,236.667757 82.9123102,232.623638 C82.822187,210.125846 88.7957037,182.517688 109.020107,168.021819 C109.93784,167.407458 110.674058,166.935264 111.316344,166.765172 C111.961169,166.592542 112.512063,166.629353 113.339673,166.869258 C131.446816,171.687675 138.801375,191.603628 138.801375,216.973938 C138.801375,220.558556 138.61859,224.378001 138.343143,228.220295 C138.159089,230.567306 136.964639,231.620859 135.033972,232.321535 C132.184303,233.356047 128.875132,234.330901 125.657354,235.190244 C121.611965,236.267915 117.659239,237.139952 115.086286,237.64261 C113.797905,237.895209 112.972833,237.563911 112.972833,236.275531 C112.972833,234.437525 114.44273,229.725733 114.44273,224.026394 C114.44273,221.544833 113.339673,220.826387 111.409006,221.343008 C108.283889,222.175696 105.801059,224.03401 105.801059,228.263453 C105.801059,232.674411 106.444615,235.903614 106.444615,238.385175 C106.444615,239.305447 106.077776,239.955349 104.698002,240.41485 C102.125049,241.285618 98.5404313,242.334093 94.6790973,243.363528 C91.8294277,244.125133 89.255205,244.811846 86.5895898,245.430015" id="Fill-35" fill="#FFFFFF"></path>
                    <path d="M175.570617,196.316309 C175.570617,192.364852 174.008059,189.564686 171.894607,190.128274 C170.698888,190.446878 168.952276,191.740336 167.572502,193.211502 C166.193999,194.77406 165.641835,197.036025 165.641835,199.242139 C165.641835,202.642702 166.101337,204.174796 166.837554,204.712997 C167.389717,205.119186 168.033273,205.037948 168.859614,204.817083 C171.52396,204.106252 175.570617,201.27943 175.570617,196.316309 M174.650345,169.07753 C174.650345,166.135198 171.617891,166.026035 169.13633,166.688631 C168.033273,166.983118 167.204394,167.478161 166.560838,168.294347 C165.366388,169.8074 164.815495,172.437474 164.815495,177.401865 C164.815495,179.23987 165.182334,180.335311 166.560838,179.968472 C169.13633,179.281758 174.650345,173.395826 174.650345,169.07753 M147.810139,229.187152 C146.521758,229.438482 145.235916,229.69108 145.050593,227.809918 C144.13159,217.942064 143.672089,208.321732 143.672089,198.945113 C143.672089,185.34159 144.685023,172.936325 146.338973,161.464025 C146.521758,159.944624 147.533423,159.031968 148.911927,158.572467 C152.405152,157.364055 159.574387,155.175712 166.746162,153.261546 C179.614736,149.82798 187.887029,148.171491 192.668635,151.67614 C194.873479,153.294549 196.069198,156.008399 196.069198,159.959856 C196.069198,166.486806 192.85015,171.942431 188.530584,176.588218 C187.704244,177.544031 187.337404,178.101272 187.337404,178.653435 C187.337404,179.021544 187.611582,179.408693 188.163745,179.628288 C195.426912,182.837181 198.643421,186.759444 198.643421,195.124398 C198.643421,208.269689 188.623246,218.664319 163.987885,225.238234 C158.839439,226.61166 153.1401,228.040938 147.810139,229.187152" id="Fill-37" fill="#FFFFFF"></path>
                    <path d="M210.59147,212.343003 C208.109909,212.914206 207.7418,211.54078 207.7418,209.886829 C207.7418,200.969711 212.429475,191.631173 213.625194,187.541358 C213.807979,187.033621 213.899371,186.550003 213.899371,186.181894 C213.899371,185.721123 213.807979,185.287009 213.349747,184.76531 C209.304358,180.328964 199.469508,169.992724 199.469508,148.849318 C199.469508,145.725471 200.663957,144.946096 202.777409,144.198455 C205.811133,143.113168 209.212966,142.20559 212.796314,141.248507 C216.290809,140.316811 219.507318,139.550129 221.439254,139.12617 C225.299319,138.280789 225.666158,139.470161 225.390711,141.013679 C224.93121,143.435581 224.012207,149.471295 224.012207,155.262027 C224.012207,161.513529 225.207926,167.53655 226.861877,168.75004 C227.322648,169.087684 227.596825,169.196848 228.148988,169.050873 C228.515828,168.951865 228.883936,168.671341 229.160653,168.321003 C230.905996,166.108542 231.45689,158.699401 231.45689,151.898274 C231.45689,144.359661 230.721942,141.063183 230.721942,139.041124 C230.721942,137.661351 231.45689,136.822317 232.929325,136.246036 C234.76733,135.570747 237.985108,134.620011 241.201617,133.761936 C244.971559,132.756619 248.923016,131.793189 251.221792,131.364152 C254.897802,130.658399 255.63402,131.106476 255.63402,134.415647 C255.63402,148.110562 250.946345,157.452909 246.350063,166.768599 C242.030497,175.642559 237.801054,184.39974 237.801054,196.810082 C237.801054,199.383036 238.351948,200.982405 238.351948,202.821679 C238.351948,203.649289 238.167893,204.893243 235.687602,205.647231 C232.74527,206.523076 227.964934,207.891425 223.093205,209.19123 C218.312868,210.465648 213.625194,211.625825 210.59147,212.343003" id="Fill-39" fill="#FFFFFF"></path>
                    <path d="M259.400407,189.391929 C259.400407,182.496871 264.180743,177.085672 271.718088,175.073768 C279.62481,172.965393 284.035769,175.924226 284.035769,182.818014 C284.035769,189.713072 279.62481,194.565761 271.718088,196.675405 C264.180743,198.68731 259.400407,196.286987 259.400407,189.391929 M284.587932,122.644925 C285.967705,122.46087 286.425937,123.165354 286.425937,124.177019 C286.425937,126.842634 282.380548,137.022745 280.359758,166.057642 C280.174435,168.956815 278.979985,170.010368 273.281915,172.083201 C271.441371,172.75849 269.880083,173.266227 268.592971,173.608949 C265.834694,174.345166 264.363528,174.186498 263.813904,172.679791 C261.331074,165.895166 259.677123,159.53577 258.940906,150.355899 C258.480135,144.687024 258.29735,140.414423 258.29735,133.980136 C258.29735,131.68263 258.940906,129.764656 262.250076,128.604479 C265.098477,127.569966 269.236527,126.374247 273.4647,125.244534 C277.601481,124.141477 281.829655,123.105695 284.587932,122.644925" id="Fill-41" fill="#FFFFFF"></path>
                </g>
            </g>
        </g>
    </g>
</svg>