<?xml version="1.0" encoding="UTF-8"?>
<svg width="249px" height="330px" viewBox="0 0 249 330" version="1.1" xmlns="http://www.w3.org/2000/svg" xmlns:xlink="http://www.w3.org/1999/xlink">
    <title>reciepes1</title>
    <defs>
        <polygon id="path-1" points="0 0 50.3530514 0 50.3530514 73.6991805 0 73.6991805"></polygon>
        <polygon id="path-3" points="-3.50378209e-14 -1.75189105e-14 27.3167615 -1.75189105e-14 27.3167615 72.5942842 -3.50378209e-14 72.5942842"></polygon>
    </defs>
    <g id="Page-1" stroke="none" stroke-width="1" fill="none" fill-rule="evenodd">
        <g id="desktop-home" transform="translate(-200.000000, -2835.000000)">
            <g id="RecipesSection2" transform="translate(-6.000000, 2614.000000)">
                <g id="reciepes1" transform="translate(206.620595, 221.649930)">
                    <path d="M37.6059444,66.1970055 C38.5638173,65.9405865 40.3883373,61.7589841 40.3883373,58.4292352 C40.3883373,56.6959413 39.7041423,56.2385785 38.8374953,56.4703419 C38.4713586,56.5677318 38.0608416,56.8155213 37.7427834,57.2186416 C37.0585884,58.0865213 36.6024584,59.7125631 36.6024584,62.8154797 C36.6024584,65.7790918 36.8292906,66.4041131 37.6059444,66.1970055 M27.9791362,51.9324649 C29.7136629,51.1964931 35.7814245,49.3941632 37.8340094,48.8468073 C46.36364,46.5710885 52.5694733,47.1961099 52.5694733,54.3117375 C52.5694733,58.3256814 50.9274054,61.3644933 48.4630707,64.5302819 C48.2350057,64.8199861 48.0981667,65.1306476 48.0981667,65.3574798 C48.0981667,65.5867775 48.1893927,65.7445738 48.4174577,65.8653867 C52.6594665,68.4295768 53.8466372,78.010772 53.8466372,78.6037409 C53.8466372,79.2879359 53.4361203,79.7625576 52.7519253,79.9906226 C51.6547478,80.3284054 49.6021629,80.9226071 47.5508107,81.4699631 C45.8631298,81.9199292 44.1742161,82.325515 43.0338911,82.5843996 C41.9847922,82.8173957 41.6198882,82.6423404 41.529895,82.0271813 C40.7988542,75.6536895 40.1590395,72.2216196 38.5638173,72.6456972 C37.6503246,72.8910211 37.1498144,74.2100997 37.1498144,75.9890066 C37.1498144,78.8170125 38.0164614,82.507967 38.0164614,83.1021688 C38.0164614,83.6039117 37.6959376,83.915806 37.1498144,84.1081203 C35.8258047,84.5531552 33.9556718,85.0980456 31.9943128,85.6207459 C30.4434709,86.0349612 28.847016,86.4146586 27.3874001,86.7142251 C26.7475853,86.8375035 26.1546163,86.8609263 26.0646231,85.9720893 C25.6541061,82.1122434 25.2435891,77.2957574 25.2435891,71.7753519 C25.2435891,66.1661859 25.6541061,59.8531004 26.8388113,53.1948355 C26.9756503,52.5180372 27.3417871,52.1938151 27.9791362,51.9324649" id="Fill-1" fill="#FFFFFF"></path>
                    <path d="M56.3516538,79.0305307 C55.3481678,79.2524317 54.7995791,79.216681 54.7539661,78.1330641 C54.6627401,76.2419739 54.6171271,74.1561038 54.6171271,71.9666799 C54.6171271,63.8475662 55.301322,53.7190151 56.897777,45.2202041 C57.0358487,44.5902516 57.4919787,43.875237 58.1293279,43.6607327 C59.9550806,43.0357113 63.8777984,41.8978519 67.9373553,40.814235 C72.0906036,39.7071953 76.3313797,38.6667258 78.6601081,38.2278548 C79.3430703,38.089783 79.5267551,38.3153824 79.5267551,38.6815192 C79.5267551,39.2732554 78.1115194,44.759143 77.0168074,47.6068734 C76.8343554,48.0198559 76.5606774,48.230662 76.2413865,48.3144913 C75.8308695,48.4254418 75.4203525,48.395855 74.5993185,48.2972323 C73.2765416,48.1480655 71.5420149,48.1542294 69.535043,48.6904903 C68.303492,49.0184108 67.4368451,49.5238521 66.8438761,50.2746174 C66.3421331,50.9107338 66.1128353,51.6109549 66.1128353,52.4319889 C66.1128353,53.2974031 66.5233523,53.6438153 67.3000061,53.4367077 C68.850848,53.0237251 70.8122069,51.8168298 73.0016308,51.2324903 C74.6893117,50.7825243 75.8308695,50.7048589 75.8308695,51.4802799 C75.8308695,52.5762246 74.6436987,57.772408 73.9595038,60.0074449 C73.7782846,60.6041123 73.5945998,60.8358756 73.2296958,60.9332655 C72.6379596,61.0910618 70.7197481,60.9184721 68.896461,61.4041889 C66.7058043,61.9897612 66.0228421,63.4037641 66.0228421,64.4997088 C66.0228421,66.0505508 66.8894891,66.5017496 68.896461,65.9654887 C72.6823398,64.9558388 74.9642225,62.7060085 76.2413865,61.4966477 C76.6519034,61.1144847 76.7887424,60.9406622 77.0624204,60.8691608 C77.2892526,60.8075216 77.4729374,60.8950492 77.5641634,61.1453043 C78.2939714,62.9131162 79.3886833,69.2348311 79.3886833,71.5142483 C79.3886833,72.2896692 78.8869403,72.9713986 77.9290674,73.2734306 C74.8261507,74.2374675 71.0858849,75.3260155 67.4812253,76.2875869 C63.2404493,77.4192823 59.1796596,78.412906 56.3516538,79.0305307" id="Fill-3" fill="#FFFFFF"></path>
                    <path d="M79.6132965,57.3593022 C79.6132965,47.2775969 84.7231851,35.8780457 94.4843666,33.2744065 C101.829292,31.3142803 105.205887,35.249326 105.205887,40.0843038 C105.205887,41.6351457 104.840983,42.7372544 104.064329,43.947848 C102.376648,46.632851 97.9521873,51.0979936 95.8539894,51.6564447 C95.3054006,51.8031459 95.1241814,51.4407075 95.1241814,50.7108995 C95.1241814,49.8898656 95.2154074,48.6805047 95.2154074,47.5857928 C95.2154074,45.3507559 94.8048904,43.4991147 93.5721067,43.8270352 C92.2505625,44.1808441 91.6107478,46.4035532 91.6107478,51.101692 C91.6107478,56.9401557 93.1615897,57.4850461 95.3978594,56.8883788 C98.0434133,56.1819937 100.187224,53.7854622 102.332268,51.0696396 C102.604713,50.7219946 102.834011,50.5703622 103.107689,50.497628 C104.29486,50.1808025 105.342726,52.6845863 105.342726,56.1524069 C105.342726,61.5335079 101.511234,67.6641414 93.6645655,69.7586409 C84.8144111,72.1206546 79.6132965,68.1708155 79.6132965,57.3593022" id="Fill-5" fill="#FFFFFF"></path>
                    <path d="M108.897951,65.009958 C107.894465,65.2318591 107.345876,65.1948756 107.300263,64.1112587 C107.209037,62.2214012 107.163424,60.1355312 107.163424,57.9461073 C107.163424,49.8269936 107.848852,39.6984425 109.444074,31.1983987 C109.582146,30.569679 110.038276,29.8546644 110.675625,29.6389273 C112.501378,29.0151387 116.424095,27.8760465 120.483652,26.7936624 C124.636901,25.6853898 128.877677,24.6449204 131.206405,24.2060494 C131.889367,24.0692104 132.073052,24.2948098 132.073052,24.6597138 C132.073052,25.25145 130.657816,30.7385703 129.564337,33.585068 C129.380652,33.9992833 129.106974,34.2100893 128.787683,34.2939186 C128.377166,34.4036364 127.966649,34.3752823 127.145615,34.2754269 C125.822839,34.1274928 124.088312,34.1336567 122.08134,34.6699177 C120.849789,34.9966053 119.983142,35.5020467 119.390173,36.2540448 C118.88843,36.8889284 118.659132,37.5903823 118.659132,38.4114163 C118.659132,39.2768305 119.069649,39.6232427 119.846303,39.416135 C121.397145,39.0019197 123.358504,37.7950244 125.547928,37.2106849 C127.235609,36.7607189 128.377166,36.6830535 128.377166,37.4597072 C128.377166,38.5544192 127.189996,43.7518354 126.505801,45.9868723 C126.324582,46.5835396 126.140897,46.815303 125.777226,46.9126929 C125.184257,47.0704892 123.266045,46.8978995 121.442758,47.3836163 C119.252101,47.9679557 118.569139,49.3819587 118.569139,50.4779034 C118.569139,52.0287454 119.435786,52.481177 121.442758,51.9449161 C125.228637,50.9352662 127.510519,48.6842031 128.787683,47.476075 C129.1982,47.0939121 129.335039,46.9200896 129.608717,46.8473553 C129.836782,46.7869489 130.019234,46.8744766 130.11046,47.1234989 C130.840268,48.8913108 131.93498,55.2130257 131.93498,57.4924428 C131.93498,58.2678638 131.433237,58.950826 130.475364,59.2516252 C127.372448,60.2168949 123.632182,61.3054429 120.028755,62.2670142 C115.786746,63.3987097 111.725957,64.3923334 108.897951,65.009958" id="Fill-7" fill="#FFFFFF"></path>
                    <path d="M139.82344,56.7573339 C139.048019,56.9188286 138.45505,56.7129537 138.318211,55.5627665 C138.181372,54.5038052 138.135759,52.6460002 138.135759,50.5478023 C138.135759,42.1993908 139.138012,36.2314848 139.138012,34.7250231 C139.138012,34.0408281 138.958026,33.5871637 138.044533,33.8312549 C135.76265,34.4390173 134.120583,35.8357612 133.071484,36.1168359 C132.707812,36.2129931 132.432902,36.0576623 132.432902,35.4659261 C132.432902,33.8694712 133.118329,27.8029425 133.620072,25.3410733 C133.801292,24.835632 134.120583,24.385666 134.80601,23.975149 C136.310006,23.0727513 140.27957,21.2839821 145.707517,19.8354612 C150.453734,18.5681595 154.23838,18.1514786 155.972907,18.5558317 C156.8864,18.9059423 156.976393,19.4286426 156.93078,20.6269084 C156.839554,23.5251829 156.475883,27.4072189 156.109746,29.5115807 C155.972907,30.05154 155.789222,30.2820705 155.471164,30.3671326 C154.741356,30.5619124 153.280507,29.9023731 151.227922,30.4509619 C150.543727,30.6334139 150.225669,31.08338 150.041984,31.9981055 C149.950758,32.5257369 149.860765,33.2333548 149.860765,34.1000017 C149.860765,43.4962793 152.095802,50.7006674 152.095802,52.3883484 C152.095802,53.0269303 151.775278,53.4312834 150.954244,53.7875579 C149.950758,54.1931437 147.668876,54.8908993 145.435072,55.4875667 C143.654932,55.9621884 141.374282,56.4811903 139.82344,56.7573339" id="Fill-9" fill="#FFFFFF"></path>
                    <path d="M165.320613,49.9540936 C164.545192,50.1155883 163.952223,49.9084806 163.815384,48.7595262 C163.678545,47.700565 163.634165,45.8427599 163.634165,43.744562 C163.634165,35.3961506 164.635185,29.4282445 164.635185,27.9217828 C164.635185,27.2375878 164.455199,26.7839234 163.541706,27.0267818 C161.259823,27.635777 159.617755,29.0325209 158.568656,29.3123629 C158.204985,29.4097528 157.930074,29.254422 157.930074,28.6626858 C157.930074,27.0662309 158.615502,20.9984694 159.117245,18.5378331 C159.298464,18.0311589 159.617755,17.5824257 160.303183,17.1719087 C161.808412,16.269511 165.776743,14.4807418 171.20469,13.0322209 C175.950907,11.7649192 179.736786,11.3482383 181.47008,11.7525914 C182.383572,12.1014692 182.473566,12.6254023 182.427953,13.8224353 C182.336727,16.7219426 181.973055,20.6052114 181.606919,22.7083404 C181.47008,23.2482997 181.287628,23.4775975 180.968337,23.5638923 C180.238529,23.7586722 178.77768,23.0991329 176.725095,23.6464888 C176.0409,23.8301736 175.722842,24.2801397 175.54039,25.1948652 C175.447931,25.7224966 175.357938,26.4301145 175.357938,27.2967615 C175.357938,36.6918063 177.592975,43.8974272 177.592975,45.5851081 C177.592975,46.2236901 177.272451,46.6280431 176.451417,46.9843176 C175.447931,47.3899035 173.166048,48.087659 170.932244,48.6843264 C169.152105,49.1589481 166.871455,49.6767173 165.320613,49.9540936" id="Fill-11" fill="#FFFFFF"></path>
                    <path d="M184.842976,44.744966 C183.83949,44.9680998 183.290901,44.9311163 183.246521,43.8474994 C183.154062,41.957642 183.109682,39.8705391 183.109682,37.682348 C183.109682,29.5632343 183.793877,19.4346832 185.389099,10.9346394 C185.527171,10.3046869 185.983301,9.58967236 186.621883,9.37516799 C188.446403,8.75014664 192.369121,7.61228726 196.42991,6.52867036 C200.581926,5.42163057 204.823935,4.3811611 207.15143,3.94229009 C207.834393,3.80421832 208.018077,4.03105052 208.018077,4.39595451 C208.018077,4.9876907 206.602842,10.4735783 205.509362,13.3213087 C205.325678,13.7342913 205.052,13.9450973 204.732709,14.0301594 C204.322192,14.1398771 203.911675,14.1115231 203.090641,14.0116676 C201.767864,13.8625008 200.033337,13.8686647 198.026365,14.4049256 C196.794814,14.7328461 195.928167,15.2382874 195.335198,15.9902855 C194.833455,16.6251691 194.60539,17.326623 194.60539,18.147657 C194.60539,19.0118384 195.015907,19.3582506 195.791328,19.151143 C197.34217,18.7381604 199.303529,17.5312651 201.492953,16.9469257 C203.180634,16.4969596 204.322192,16.4192942 204.322192,17.195948 C204.322192,18.2906599 203.136254,23.4880761 202.452059,25.7218802 C202.269607,26.3197803 202.085922,26.5503109 201.722251,26.6477008 C201.129282,26.8054971 199.212303,26.6329074 197.389016,27.1186242 C195.197127,27.7041965 194.514164,29.1181994 194.514164,30.2141441 C194.514164,31.7649861 195.380811,32.2161849 197.389016,31.6811568 C201.174895,30.6702741 203.455545,28.4204438 204.732709,27.2123158 C205.143226,26.8301528 205.280065,26.6563303 205.553743,26.5835961 C205.781808,26.5219569 205.96426,26.6107173 206.055486,26.8597396 C206.786526,28.6275515 207.880006,34.9492665 207.880006,37.2286836 C207.880006,38.0041045 207.378263,38.6858339 206.42039,38.987866 C203.317473,39.9519028 199.577207,41.0404509 195.97378,42.0020222 C191.731771,43.1337176 187.670982,44.1273413 184.842976,44.744966" id="Fill-13" fill="#FFFFFF"></path>
                    <path d="M209.883895,33.1369511 C209.883895,29.7159762 212.257004,27.0297405 215.99727,26.0311857 C219.919988,24.9857851 222.109412,26.4540305 222.109412,29.8750053 C222.109412,33.297213 219.919988,35.7048396 215.99727,36.751473 C212.257004,37.748795 209.883895,36.5579259 209.883895,33.1369511 M222.38309,0.0145178548 C223.067285,-0.0767081412 223.296582,0.272169654 223.296582,0.775145416 C223.296582,2.09668957 221.288378,7.1486373 220.284892,21.5574135 C220.193666,22.9960721 219.600697,23.5187724 216.771458,24.5469141 C215.860431,24.8822312 215.083777,25.1349519 214.445195,25.3050761 C213.078038,25.66998 212.346997,25.5910819 212.073319,24.8427822 C210.841768,21.4772826 210.020734,18.3201235 209.654598,13.7649876 C209.427766,10.9517751 209.33654,8.83138709 209.33654,5.63847723 C209.33654,4.50061785 209.654598,3.54767602 211.296666,2.97196602 C212.711901,2.45789521 214.765719,1.86492623 216.863917,1.30524242 C218.916502,0.75665366 221.0147,0.242582845 222.38309,0.0145178548" id="Fill-15" fill="#FFFFFF"></path>
                    <path d="M33.8353521,133.056291 C33.8353521,120.64709 29.5501958,116.344675 26.6938359,117.106535 C26.1563422,117.250771 25.6213141,117.571295 25.1762792,118.137143 C24.0149969,119.607854 23.5687292,124.280104 23.5687292,133.119163 C23.5687292,144.188328 24.5512578,148.032148 25.8900609,149.013444 C26.4250891,149.407935 26.96135,149.443685 27.4951453,149.300683 C30.1752172,148.586901 33.8353521,144.305443 33.8353521,133.056291 M5.62309642,172.456059 C4.10677244,172.771652 3.39299066,172.605226 2.94549016,171.832271 C1.69668025,169.575044 0.714151614,163.141145 0.714151614,144.572957 C0.714151614,125.826015 2.05295474,113.863081 3.74926516,106.624175 C4.19430008,104.987039 4.99807507,104.326267 5.80308285,104.023002 C9.2844641,102.915962 13.5696203,101.594418 17.4085089,100.568742 C39.6380651,94.6378192 56.3311896,96.611506 56.3311896,131.16027 C56.3311896,150.354713 51.1547307,160.485729 23.837476,167.773947 C20.5336156,168.655387 7.58815369,172.020887 5.62309642,172.456059" id="Fill-17" fill="#FFFFFF"></path>
                    <path d="M86.1480365,119.902612 C86.9518115,119.508121 87.7555865,118.937343 88.5593615,118.454091 C89.4518969,117.769896 89.8981646,117.114055 89.8981646,115.865246 C89.8981646,112.563851 88.7381151,107.515601 87.5768329,105.057431 C87.308086,104.505143 87.0418047,104.309131 86.6842974,104.404055 C86.2367969,104.522402 85.8805224,104.884841 85.5230152,105.604787 C82.9341693,110.31402 81.9528735,116.825584 81.9528735,120.843226 C81.9528735,121.647001 82.3103808,121.729598 82.7566485,121.610018 C83.4704302,121.418936 84.720473,120.728577 86.1480365,119.902612 M62.848424,157.186923 C60.97336,157.598673 59.9908313,157.502516 59.8120777,155.943045 C59.4558032,152.467827 59.2770496,148.675784 59.2770496,144.748136 C59.1870563,122.899509 64.9910021,96.0864634 84.6317125,82.0080732 C85.5230152,81.4114059 86.2367969,80.9528103 86.8618183,80.7863845 C87.4880724,80.6199587 88.0231006,80.6557094 88.8268756,80.8887056 C106.413768,85.5683526 113.556517,104.910729 113.556517,129.550378 C113.556517,133.031759 113.377764,136.741205 113.110249,140.472842 C112.931496,142.752259 111.770214,143.775469 109.896382,144.454733 C107.128783,145.460685 103.914916,146.407462 100.789809,147.242057 C96.8609271,148.28869 93.0220386,149.135613 90.523186,149.623795 C89.2731433,149.869119 88.4706011,149.547363 88.4706011,148.296087 C88.4706011,146.511016 89.8981646,141.93369 89.8981646,136.398491 C89.8981646,133.988399 88.8268756,133.291876 86.9518115,133.793619 C83.9154652,134.602325 81.505373,136.407121 81.505373,140.514756 C81.505373,144.79868 82.1316271,147.934881 82.1316271,150.344974 C82.1316271,151.238742 81.7728871,151.87116 80.4340839,152.316195 C77.9352313,153.161884 74.4538501,154.180164 70.7049547,155.179951 C67.9361225,155.918389 65.4360371,156.585325 62.848424,157.186923" id="Fill-19" fill="#FFFFFF"></path>
                    <path d="M142.480459,101.031652 C144.355523,100.532375 147.925665,92.3479234 147.925665,85.8301959 C147.925665,82.437575 146.586861,81.5450396 144.890551,81.998704 C144.176769,82.1897855 143.372994,82.6705712 142.747973,83.4620183 C141.407937,85.1595615 140.515402,88.3438419 140.515402,94.414069 C140.515402,100.218015 140.962902,101.437238 142.480459,101.031652 M123.643523,73.1140317 C127.036144,71.6753731 138.910317,68.1496116 142.925494,67.0783226 C159.621084,62.6230422 171.762771,63.8471964 171.762771,77.7739542 C171.762771,85.6304849 168.548904,91.5774336 163.727486,97.7721719 C163.281219,98.3380196 163.013705,98.945782 163.013705,99.3932825 C163.013705,99.8383174 163.192458,100.147746 163.637493,100.386906 C171.940292,105.40187 174.261623,124.154976 174.261623,125.315026 C174.261623,126.656295 173.459081,127.583348 172.120278,128.029616 C169.9777,128.691621 165.960058,129.85167 161.942416,130.924192 C158.638555,131.805632 155.33716,132.597079 153.103356,133.104986 C151.050771,133.563582 150.33699,133.21717 150.158236,132.016438 C148.72944,119.540667 147.48063,112.820763 144.355523,113.655357 C142.569219,114.132445 141.586691,116.715127 141.586691,120.196508 C141.586691,125.731707 143.283001,132.957052 143.283001,134.118335 C143.283001,135.100863 142.659212,135.713557 141.586691,136.088323 C138.997845,136.957435 135.338943,138.022561 131.498821,139.047004 C128.463708,139.856943 125.339834,140.601544 122.482241,141.184651 C121.233431,141.431208 120.070916,141.471889 119.894628,139.733664 C119.08962,132.180399 118.285845,122.754534 118.285845,111.95165 C118.285845,100.971246 119.08962,88.6138215 121.409719,75.5857631 C121.679699,74.2642189 122.393481,73.6281025 123.643523,73.1140317" id="Fill-21" fill="#FFFFFF"></path>
                    <path d="M180.511344,125.790757 C178.726273,126.177851 177.743744,125.635426 177.474997,123.119315 C176.849976,116.67802 176.582462,109.072977 176.582462,101.485193 C176.582462,86.4859135 177.564991,71.0477629 178.813801,62.2321264 C179.351294,58.7852631 180.153837,57.7682166 182.743915,56.9890972 C184.974021,56.3036695 187.742853,55.4752388 190.777967,54.6665327 C193.635559,53.9034396 196.670673,53.1834939 199.704554,52.4635482 C201.580851,52.0517984 202.562146,52.3254764 202.383393,54.1586258 C202.027118,58.8962137 199.348279,72.4654642 199.348279,77.5543954 C199.348279,78.3581704 199.615793,78.7341694 200.152054,78.5911665 C200.775843,78.4235079 201.668378,77.5605593 202.7409,75.310729 C205.864774,68.6746542 208.454853,58.341461 209.971177,52.5806626 C210.597431,50.3591863 211.222452,49.4802115 212.741242,48.9846325 C215.327622,48.1142872 218.275208,47.2402435 221.220328,46.4537275 C224.612949,45.5476315 227.916809,44.7561843 230.236908,44.3160805 C231.844458,43.977065 232.559473,44.4110049 232.559473,45.5722871 C232.559473,52.0875491 229.791873,64.3426522 222.650357,74.7300879 C222.112864,75.4981122 221.935343,75.9912256 221.935343,76.7062402 C221.935343,77.3312616 222.202857,77.8860142 222.650357,78.3026951 C228.898105,84.3125158 233.362015,97.3146858 233.362015,108.831351 C233.362015,110.706415 232.559473,111.814688 230.773169,112.379303 C228.363077,113.112809 225.416724,113.986853 221.935343,114.916372 C218.900229,115.726311 215.685129,116.494335 212.561255,117.238936 C210.238691,117.769033 209.613669,116.776643 209.347388,114.525579 C207.294803,98.8248459 205.954767,93.3796402 203.365921,94.0712318 C201.758371,94.4990078 200.152054,98.4981582 200.152054,102.070765 C200.152054,107.337218 202.294632,114.175469 202.294632,117.033062 C202.294632,118.995653 201.313336,120.152004 199.438272,120.740042 C197.026947,121.561076 193.901841,122.484431 190.687973,123.343681 C187.029071,124.320046 183.18895,125.254496 180.511344,125.790757" id="Fill-23" fill="#FFFFFF"></path>
                    <path d="M43.8782247,242.404455 C40.0393362,243.428898 36.1104544,244.477997 32.5403128,244.984671 C31.1115164,245.186848 30.4864951,244.818245 30.0389946,243.062761 C29.2364524,239.884645 28.2539237,229.254351 28.2539237,217.112664 C28.2539237,196.846932 30.3965019,183.598205 31.4690237,179.563304 C31.9152914,177.837407 32.8965873,176.949803 34.0578695,176.551613 C37.4504904,175.466764 41.0218648,174.423829 44.5932393,173.47212 C48.3421346,172.471099 52.0922627,171.560072 55.4836507,170.833963 C56.6437002,170.614527 57.2687216,170.983129 57.1799612,172.166602 C57.1799612,174.576694 52.5372976,188.046089 52.5372976,205.3667 C52.5372976,223.668608 57.0024403,235.065693 57.0024403,236.850764 C57.0024403,237.922053 56.3761862,238.535979 55.1261435,238.957591 C51.4660086,240.291463 47.7171133,241.380011 43.8782247,242.404455" id="Fill-25" fill="#FFFFFF"></path>
                    <path d="M59.4120394,207.728837 C59.4120394,187.999366 69.4099154,165.688447 88.5143649,160.592119 C102.889856,156.755696 109.495111,164.456896 109.495111,173.919743 C109.495111,176.95609 108.780097,179.109763 107.263773,181.479173 C103.959912,186.735763 95.2996065,195.473734 91.1919711,196.569679 C90.1231476,196.855685 89.7644076,196.146834 89.7644076,194.718038 C89.7644076,193.112953 89.944394,190.744776 89.944394,188.600965 C89.944394,184.227048 89.1393862,180.601431 86.729294,181.244944 C84.1404482,181.935303 82.8916383,186.285797 82.8916383,195.482364 C82.8916383,206.910269 85.9267518,207.974161 90.3006685,206.806715 C95.4783602,205.425997 99.674756,200.735255 103.869919,195.419492 C104.407413,194.740228 104.852448,194.443127 105.388709,194.298891 C107.71004,193.680034 109.762625,198.579116 109.762625,205.363125 C109.762625,215.898495 102.264835,227.897179 86.9080477,231.994952 C69.5886691,236.616658 59.4120394,228.885872 59.4120394,207.728837" id="Fill-27" fill="#FFFFFF"></path>
                    <path d="M116.725634,222.700379 C114.760577,223.135552 113.689288,223.06405 113.599295,220.944895 C113.421774,217.242846 113.331781,213.161099 113.331781,208.87471 C113.331781,192.984127 114.670584,173.163431 117.794458,156.52948 C118.064437,155.296696 118.956973,153.897487 120.205783,153.474642 C123.77839,152.252953 131.454934,150.027778 139.401458,147.90739 C147.52427,145.740157 155.827069,143.702365 160.379739,142.84558 C161.719775,142.576834 162.076049,143.016937 162.076049,143.730719 C162.076049,144.892001 159.30845,155.629548 157.165872,161.200497 C156.809597,162.010436 156.273336,162.420953 155.648315,162.587379 C154.845773,162.801883 154.041998,162.748874 152.435681,162.551628 C149.845602,162.261924 146.452981,162.273019 142.525332,163.322118 C140.11524,163.964398 138.41893,164.951858 137.257647,166.423802 C136.275119,167.667681 135.828851,169.036071 135.828851,170.643621 C135.828851,172.338698 136.632626,173.016729 138.151416,172.612376 C141.186529,171.802437 145.024185,169.440424 149.310574,168.2964 C152.613201,167.41496 154.845773,167.265793 154.845773,168.78335 C154.845773,170.925928 152.523208,181.097627 151.184405,185.472776 C150.828131,186.63899 150.470623,187.091421 149.756842,187.282503 C148.595559,187.591931 144.846664,187.252916 141.275289,188.205858 C136.990133,189.348648 135.65133,192.116248 135.65133,194.260059 C135.65133,197.295172 137.347641,198.181544 141.275289,197.133677 C148.685552,195.156292 153.149462,190.751556 155.649548,188.387077 C156.45209,187.638777 156.719604,187.298529 157.255865,187.156759 C157.702133,187.035946 158.058407,187.209768 158.237161,187.696718 C159.665957,191.155909 161.808535,203.526894 161.808535,207.990804 C161.808535,209.510826 160.826007,210.843465 158.952175,211.432736 C152.880716,213.320128 145.561679,215.452844 138.50769,217.334072 C130.206124,219.549384 122.2596,221.491018 116.725634,222.700379" id="Fill-29" fill="#FFFFFF"></path>
                    <path d="M197.606602,169.246384 C197.606602,156.838415 193.321446,152.534767 190.465086,153.296628 C189.928825,153.440863 189.39503,153.760154 188.948762,154.326002 C187.78748,155.797946 187.341212,160.468963 187.341212,169.308023 C187.341212,180.378421 188.322508,184.22224 189.662544,185.203536 C190.197572,185.596794 190.733833,185.632545 191.267628,185.490775 C193.9477,184.77576 197.606602,180.495535 197.606602,169.246384 M169.396812,208.646152 C167.879255,208.961744 167.165474,208.794086 166.717973,208.02113 C165.46793,205.766369 164.486635,199.331238 164.486635,180.763049 C164.486635,162.014874 165.826671,150.051941 167.522981,142.814268 C167.969249,141.175898 168.770558,140.515126 169.575566,140.211861 C173.056947,139.104821 177.342103,137.78451 181.180992,136.758834 C203.410548,130.827911 220.106138,132.801598 220.106138,167.350362 C220.106138,186.544805 214.927214,196.674589 187.608726,203.964039 C184.306099,204.845479 171.360637,208.209746 169.396812,208.646152" id="Fill-31" fill="#FFFFFF"></path>
                    <g id="Group-35" transform="translate(0.000000, 255.327809)">
                        <mask id="mask-2" fill="white">
                            <use xlink:href="#path-1"></use>
                        </mask>
                        <g id="Clip-34"></g>
                        <path d="M0,48.1439436 C0,28.4144728 9.99910883,6.10355289 29.1047911,1.00722495 C43.4790493,-2.82919802 50.0843046,4.87200194 50.0843046,14.3348498 C50.0843046,17.3711962 49.3705228,19.5248693 47.8517332,21.8942797 C44.5503384,27.1508695 35.8887999,35.8888406 31.7836301,36.9835525 C30.7111083,37.2707911 30.3548338,36.5619405 30.3548338,35.1319114 C30.3548338,33.5268269 30.5335874,31.1586494 30.5335874,29.0148385 C30.5335874,24.6409218 29.7285796,21.0153049 27.3197202,21.658818 C24.7308744,22.3491769 23.4808317,26.6996707 23.4808317,35.8962373 C23.4808317,47.3241424 26.5159452,48.3892676 30.8910947,47.2218214 C36.0687864,45.8398708 40.2639494,41.1491287 44.4591124,35.8333653 C44.9953733,35.1553343 45.441641,34.8582334 45.977902,34.7139977 C48.2992337,34.0951402 50.3530514,38.99299 50.3530514,45.7769989 C50.3530514,56.3123686 42.8527952,68.3122854 27.4984739,72.4100586 C10.1790953,77.030532 0,69.300978 0,48.1439436" id="Fill-33" fill="#FFFFFF" mask="url(#mask-2)"></path>
                    </g>
                    <path d="M93.1148672,240.415605 C96.8649953,239.414584 100.702651,238.480134 102.935222,238.063453 C103.917751,237.890864 104.542772,238.170706 104.899047,239.055844 C106.14909,242.026853 108.112914,250.250753 108.112914,271.766528 C108.112914,293.282302 102.041454,307.846409 80.7956594,313.515982 C62.2250053,318.470539 53.385946,310.29595 53.385946,288.601422 C53.385946,266.193113 56.064785,256.282764 57.0473136,252.093765 C57.3160605,250.949742 58.2085959,250.175554 58.743624,249.94379 C60.7074485,249.239871 64.7263235,248.079821 68.9214865,246.960454 C72.401635,246.030935 75.884249,245.191409 77.7593131,244.869652 C78.6530813,244.720486 79.2768698,245.179081 79.1868766,246.275026 C78.9193626,250.095423 77.0455313,267.826551 77.0455313,279.073237 C77.0455313,288.627311 78.3843344,291.662424 81.419448,290.852485 C84.2758079,290.089392 85.4370901,286.83361 85.4370901,277.280769 C85.4370901,264.515294 84.098287,248.712239 83.7407797,245.237022 C83.6520193,244.100395 83.9195334,243.226352 84.9908224,242.851585 C86.7758933,242.195744 89.901,241.272389 93.1148672,240.415605" id="Fill-36" fill="#FFFFFF"></path>
                    <path d="M143.820371,270.719894 C143.820371,266.881006 142.304048,264.162718 140.25023,264.710074 C139.09018,265.019502 137.392637,266.275709 136.053834,267.704505 C134.715031,269.220829 134.180003,271.41765 134.180003,273.560228 C134.180003,276.862856 134.625038,278.350826 135.340052,278.874759 C135.876313,279.268017 136.501334,279.190351 137.305109,278.974614 C139.892723,278.285488 143.820371,275.540079 143.820371,270.719894 M142.927836,244.264356 C142.927836,241.407996 139.982716,241.301976 137.572624,241.944257 C136.501334,242.231495 135.696327,242.712281 135.071305,243.503728 C133.911256,244.974439 133.376228,247.527534 133.376228,252.348951 C133.376228,254.134022 133.732502,255.199147 135.071305,254.84164 C137.572624,254.174704 142.927836,248.459519 142.927836,244.264356 M116.860624,302.644062 C115.610581,302.888153 114.360539,303.132244 114.181785,301.305259 C113.288017,291.721598 112.841749,282.37833 112.841749,273.271757 C112.841749,260.060013 113.824278,248.013251 115.431828,236.870119 C115.610581,235.395709 116.591877,234.508105 117.931913,234.061837 C121.324534,232.888227 128.287297,230.762908 135.250059,228.905103 C147.750486,225.570423 155.784538,223.96164 160.427201,227.365356 C162.568546,228.935923 163.729829,231.572847 163.729829,235.410503 C163.729829,241.748244 160.605955,247.046748 156.408326,251.558737 C155.607017,252.487023 155.248277,253.028215 155.248277,253.565709 C155.248277,253.921983 155.515791,254.297982 156.052052,254.512487 C163.104807,257.628964 166.229914,261.437033 166.229914,269.561078 C166.229914,282.329019 156.498319,292.424285 132.572453,298.807639 C127.572282,300.141511 122.038316,301.529625 116.860624,302.644062" id="Fill-38" fill="#FFFFFF"></path>
                    <path d="M172.924423,287.594854 C170.959366,288.030027 169.888077,287.958526 169.798083,285.83937 C169.620562,282.137321 169.530569,278.055574 169.530569,273.769185 C169.530569,257.878603 170.869372,238.057906 173.993246,221.423955 C174.263226,220.191171 175.155761,218.791962 176.404571,218.369117 C179.977179,217.148661 187.653723,214.922254 195.600247,212.801866 C203.723059,210.634632 212.025857,208.59684 216.578528,207.740056 C217.918563,207.471309 218.274838,207.911413 218.274838,208.626427 C218.274838,209.787709 215.507238,220.525256 213.36466,226.094973 C213.008386,226.906144 212.472125,227.315428 211.847104,227.481854 C211.044561,227.696359 210.240786,227.643349 208.634469,227.446103 C206.044391,227.156399 202.65177,227.167494 198.724121,228.216593 C196.314029,228.858874 194.617718,229.847566 193.456436,231.318277 C192.473907,232.562156 192.02764,233.930546 192.02764,235.538096 C192.02764,237.233174 192.831415,237.912437 194.350204,237.506852 C197.385318,236.696913 201.222973,234.334899 205.509362,233.190876 C208.81199,232.309435 211.044561,232.160268 211.044561,233.677825 C211.044561,235.820403 208.721997,245.993335 207.383194,250.367251 C207.026919,251.533465 206.669412,251.985896 205.95563,252.176978 C204.794348,252.486407 201.045453,252.147391 197.474078,253.101566 C193.188922,254.243123 191.850119,257.010723 191.850119,259.154534 C191.850119,262.189647 193.546429,263.076019 197.474078,262.029385 C204.884341,260.050768 209.348251,255.646031 211.848336,253.282785 C212.650879,252.533252 212.918393,252.193004 213.454654,252.051234 C213.900921,251.931654 214.257196,252.104244 214.435949,252.591193 C215.864746,256.050384 218.007324,268.422602 218.007324,272.886512 C218.007324,274.405301 217.024795,275.737941 215.150964,276.327211 C209.079504,278.214603 201.760467,280.347319 194.706479,282.228547 C186.404913,284.443859 178.458389,286.385494 172.924423,287.594854" id="Fill-40" fill="#FFFFFF"></path>
                    <g id="Group-44" transform="translate(220.863560, 200.022804)">
                        <mask id="mask-4" fill="white">
                            <use xlink:href="#path-3"></use>
                        </mask>
                        <g id="Clip-43"></g>
                        <path d="M1.07005628,64.8522159 C1.07005628,58.1557347 5.71395259,52.9003776 13.0329896,50.9476482 C20.7119994,48.8987616 24.9959229,51.7736133 24.9959229,58.4688617 C24.9959229,65.1653429 20.7119994,69.8782751 13.0329896,71.9271617 C5.71395259,73.8811239 1.07005628,71.5486971 1.07005628,64.8522159 M25.5321838,0.0287490318 C26.8709869,-0.151237393 27.3172547,0.534190361 27.3172547,1.51671899 C27.3172547,4.10556482 23.3883729,13.9924903 21.4257812,42.1911854 C21.2457948,45.0068634 20.0869781,46.0300739 14.5517791,48.0432097 C12.7654755,48.6978179 11.2479187,49.1921642 9.99787604,49.523783 C7.319037,50.2387975 5.89024066,50.0859324 5.3564453,48.6213853 C2.94512033,42.033389 1.33880313,35.8559098 0.623788567,26.9404178 C0.176288073,21.4348057 -3.50378209e-14,17.2864885 -3.50378209e-14,11.0375077 C-3.50378209e-14,8.80616918 0.623788567,6.94220019 3.83765575,5.81666864 C6.60525522,4.8119499 10.6228974,3.64943484 14.7293,2.55349011 C18.7469422,1.48220105 22.8533448,0.475016742 25.5321838,0.0287490318" id="Fill-42" fill="#FFFFFF" mask="url(#mask-4)"></path>
                    </g>
                </g>
            </g>
        </g>
    </g>
</svg>