<?xml version="1.0" encoding="UTF-8"?>
<svg width="291px" height="252px" viewBox="0 0 291 252" version="1.1" xmlns="http://www.w3.org/2000/svg" xmlns:xlink="http://www.w3.org/1999/xlink">
    <title>recipes2</title>
    <defs>
        <polygon id="path-1" points="0 0 42.9841997 0 42.9841997 74.6044486 0 74.6044486"></polygon>
    </defs>
    <g id="Page-1" stroke="none" stroke-width="1" fill="none" fill-rule="evenodd">
        <g id="desktop-home" transform="translate(-574.000000, -2874.000000)">
            <g id="RecipesSection2" transform="translate(-6.000000, 2614.000000)">
                <g id="recipes2" transform="translate(580.657572, 260.610796)">
                    <path d="M60.1549207,65.7158196 C61.1058309,65.4612645 62.9170884,61.3100581 62.9170884,58.0045132 C62.9170884,56.2838186 62.2378668,55.8297804 61.3775195,56.059859 C61.0140442,56.156541 60.6065113,56.4025294 60.290765,56.8027194 C59.6115435,57.6642905 59.1587291,59.2785125 59.1587291,62.3588741 C59.1587291,65.3009437 59.3839125,65.9214218 60.1549207,65.7158196 M50.5980898,51.554968 C52.3200083,50.8243458 58.3436632,49.0351172 60.3813279,48.4917399 C68.8489567,46.2325633 75.0096798,46.8530414 75.0096798,53.9169456 C75.0096798,57.9017121 73.379548,60.9184349 70.9331266,64.0612114 C70.7067194,64.3488097 70.5708751,64.657213 70.5708751,64.8823964 C70.5708751,65.1100274 70.661438,65.2666767 70.8878451,65.3866113 C75.0990188,67.9321623 76.27756,77.4437118 76.27756,78.0323705 C76.27756,78.711592 75.8700271,79.1827637 75.1908055,79.4091709 C74.1016034,79.7444983 72.0639387,80.3343808 70.0274978,80.8777581 C68.3520847,81.3244533 66.6754477,81.727091 65.5434117,81.9840937 C64.5019387,82.2153962 64.1396872,82.0416134 64.0503481,81.4309259 C63.3246213,75.1037629 62.6894574,71.6966407 61.1058309,72.1176357 C60.1989783,72.3611764 59.7021063,73.6706666 59.7021063,75.4366427 C59.7021063,78.2440918 60.5624536,81.9082167 60.5624536,82.4980992 C60.5624536,82.9961951 60.2442598,83.3058222 59.7021063,83.4967385 C58.3877208,83.9385385 56.5311819,84.4794681 54.5840801,84.9983689 C53.0445113,85.4095733 51.459661,85.7865106 50.010655,86.0838995 C49.375491,86.2062818 48.7868323,86.2295344 48.6974933,85.3471583 C48.2899603,81.5153697 47.8824274,76.7338947 47.8824274,71.2536169 C47.8824274,65.685224 48.2899603,59.4180283 49.4660539,52.8081623 C49.6018982,52.1362837 49.9653735,51.8144183 50.5980898,51.554968" id="Fill-1" fill="#FFFFFF"></path>
                    <path d="M78.76449,78.4559355 C77.7682983,78.6762236 77.2236973,78.6407327 77.1784158,77.5649926 C77.087853,75.6876487 77.0425715,73.6169408 77.0425715,71.4434318 C77.0425715,63.383336 77.7217931,53.3284093 79.3066434,44.8913761 C79.4437115,44.2660028 79.8965259,43.5561856 80.5292422,43.3432405 C82.3417235,42.7227624 86.2359271,41.5931742 90.265975,40.5174341 C94.3890334,39.4184413 98.5989833,38.385535 100.910784,37.9498542 C101.588782,37.8127861 101.771132,38.0367456 101.771132,38.4002209 C101.771132,38.9876558 100.366183,44.4336665 99.2794286,47.2606967 C99.0983029,47.6706773 98.8266143,47.879951 98.5096442,47.9631709 C98.1021113,48.073315 97.6945783,48.0439432 96.8795125,47.9460374 C95.5663508,47.7979549 93.8444324,47.804074 91.8520491,48.3364368 C90.6294503,48.6619736 89.769103,49.1637409 89.1804443,49.9090489 C88.6823485,50.5405414 88.4547175,51.2356726 88.4547175,52.0507385 C88.4547175,52.909862 88.8622504,53.2537561 89.6332587,53.0481539 C91.1728276,52.6381734 93.1199294,51.440051 95.2934383,50.8599591 C96.9688515,50.4132638 98.1021113,50.336163 98.1021113,51.1059474 C98.1021113,52.1939257 96.9235701,57.3523381 96.2443485,59.5711285 C96.0644466,60.1634587 95.882097,60.3935373 95.5198455,60.4902193 C94.9324107,60.6468686 93.0281427,60.4755335 91.218109,60.9577196 C89.0433762,61.5390353 88.3653785,62.9427599 88.3653785,64.0307382 C88.3653785,65.5703071 89.2257258,66.0182261 91.218109,65.4858633 C94.9764683,64.4835526 97.241764,62.2500763 98.5096442,61.0495063 C98.9171771,60.6701213 99.0530215,60.4975623 99.3247101,60.4265806 C99.5498934,60.3653894 99.732243,60.4522808 99.8228059,60.7007168 C100.547309,62.4556785 101.634063,68.7314409 101.634063,70.9942889 C101.634063,71.7640734 101.135968,72.4408473 100.185057,72.7406838 C97.1046958,73.6977131 93.391618,74.7783485 89.8131606,75.7329301 C85.6032108,76.8563993 81.5719391,77.8428004 78.76449,78.4559355" id="Fill-3" fill="#FFFFFF"></path>
                    <path d="M101.856921,56.9422352 C101.856921,46.9338137 106.929666,35.6171259 116.619894,33.0324125 C123.911429,31.0865345 127.263479,34.9929763 127.263479,39.7928087 C127.263479,41.3323776 126.901228,42.426475 126.130219,43.6282688 C124.454806,46.2937545 120.062507,50.72644 117.979561,51.2808317 C117.43496,51.4264666 117.255058,51.0666627 117.255058,50.3421597 C117.255058,49.5270939 117.345621,48.3265239 117.345621,47.2397694 C117.345621,45.0209789 116.938088,43.1827974 115.714265,43.5083342 C114.402327,43.8595713 113.767163,46.0661235 113.767163,50.7301115 C113.767163,56.5261355 115.306732,57.0670651 117.526746,56.4747349 C120.15307,55.7734845 122.281297,53.3943734 124.410749,50.6982921 C124.681213,50.3531741 124.908844,50.2026439 125.180533,50.1304384 C126.359074,49.815916 127.399324,52.3014998 127.399324,55.7441128 C127.399324,61.0860986 123.595683,67.1721685 115.806052,69.2514431 C107.020229,71.5962873 101.856921,67.6751596 101.856921,56.9422352" id="Fill-5" fill="#FFFFFF"></path>
                    <path d="M130.928706,64.5374008 C129.932514,64.7576888 129.387913,64.7209741 129.342631,63.6452341 C129.252069,61.769114 129.206787,59.6984061 129.206787,57.5248971 C129.206787,49.4648013 129.887233,39.4098746 131.470859,30.9716176 C131.607927,30.347468 132.060742,29.6376509 132.693458,29.423482 C134.505939,28.8042277 138.400143,27.6734156 142.430191,26.5988993 C146.553249,25.4986828 150.763199,24.4657765 153.075,24.0300956 C153.752998,23.8942513 153.935347,24.1182109 153.935347,24.4804624 C153.935347,25.0678972 152.530399,30.5151317 151.444868,33.3409382 C151.262519,33.7521426 150.99083,33.9614163 150.67386,34.0446362 C150.266327,34.1535564 149.858794,34.1254085 149.043728,34.0262789 C147.730566,33.8794201 146.008648,33.8855392 144.016265,34.4179021 C142.793666,34.7422151 141.933319,35.2439824 141.34466,35.9905142 C140.846564,36.6207828 140.618933,37.3171379 140.618933,38.1322038 C140.618933,38.9913272 141.026466,39.3352214 141.797474,39.1296192 C143.337043,38.7184148 145.284145,37.5202925 147.457654,36.9402005 C149.133067,36.4935053 150.266327,36.4164044 150.266327,37.1874127 C150.266327,38.2741672 149.087786,43.4338034 148.408564,45.6525938 C148.228662,46.244924 148.046313,46.4750026 147.685285,46.5716846 C147.096626,46.7283339 145.192358,46.5569987 143.382325,47.0391848 C141.207592,47.6192768 140.529594,49.0230013 140.529594,50.1109796 C140.529594,51.6505485 141.389941,52.0996914 143.382325,51.5673286 C147.140684,50.5650178 149.40598,48.3303177 150.67386,47.1309715 C151.081393,46.7515865 151.217237,46.5790275 151.488926,46.506822 C151.715333,46.4468547 151.896459,46.5337461 151.987022,46.7809583 C152.711525,48.5359199 153.798279,54.8116823 153.798279,57.0745304 C153.798279,57.8443148 153.300183,58.5223125 152.349273,58.8209253 C149.268911,59.7791784 145.555834,60.8598138 141.9786,61.8143954 C137.767426,62.9378646 133.736155,63.9242656 130.928706,64.5374008" id="Fill-7" fill="#FFFFFF"></path>
                    <path d="M161.629398,56.3446426 C160.859613,56.5049633 160.270955,56.3005849 160.13511,55.1587584 C159.999266,54.1074948 159.953984,52.2631941 159.953984,50.180248 C159.953984,41.8925212 160.948952,35.9679958 160.948952,34.4724846 C160.948952,33.793263 160.770274,33.3428963 159.863422,33.5852132 C157.598126,34.1885577 155.967994,35.5751488 154.926521,35.8541803 C154.565493,35.9496385 154.292581,35.7954368 154.292581,35.208002 C154.292581,33.6231517 154.973026,27.6007205 155.471122,25.1567467 C155.651024,24.6549795 155.967994,24.2082842 156.64844,23.8007513 C158.141503,22.9049131 162.082212,21.1291465 167.470703,19.6911549 C172.18242,18.4330652 175.939556,18.0194132 177.661474,18.420827 C178.568327,18.7683926 178.657666,19.2872934 178.612384,20.476849 C178.521821,23.354056 178.160794,27.2078735 177.797318,29.2969387 C177.661474,29.832973 177.479124,30.0618278 177.163378,30.1462716 C176.438875,30.3396356 174.988645,29.6848905 172.950981,30.2294915 C172.271759,30.4106173 171.956013,30.8573125 171.773663,31.7653889 C171.6831,32.289185 171.593761,32.9916592 171.593761,33.8520065 C171.593761,43.1799826 173.812552,50.332002 173.812552,52.0074152 C173.812552,52.6413553 173.494358,53.0427691 172.679292,53.3964539 C171.6831,53.7990915 169.417805,54.4917751 167.200238,55.0841053 C165.433038,55.555277 163.168966,56.0705063 161.629398,56.3446426" id="Fill-9" fill="#FFFFFF"></path>
                    <path d="M186.941354,49.5909774 C186.171569,49.7512982 185.582911,49.545696 185.447066,48.4050933 C185.311222,47.3538296 185.267165,45.5095289 185.267165,43.4265828 C185.267165,35.138856 186.260908,29.2143307 186.260908,27.7188194 C186.260908,27.0395979 186.08223,26.5892311 185.175378,26.8303242 C182.910082,27.4348926 181.27995,28.8214836 180.238477,29.0992913 C179.87745,29.1959733 179.604537,29.0417717 179.604537,28.4543368 C179.604537,26.8694865 180.284983,20.8458315 180.783078,18.4030816 C180.96298,17.9000905 181.27995,17.454619 181.960396,17.0470861 C183.454683,16.1512479 187.394168,14.3754813 192.782659,12.9374897 C197.494376,11.6794001 201.252736,11.265748 202.97343,11.6671618 C203.880283,12.0135036 203.969622,12.5336283 203.92434,13.72196 C203.833778,16.6003909 203.47275,20.4554321 203.109275,22.5432735 C202.97343,23.0793078 202.792305,23.3069388 202.475334,23.3926064 C201.750831,23.5859704 200.300602,22.9312253 198.262937,23.4746025 C197.583715,23.6569521 197.267969,24.1036474 197.086843,25.0117238 C196.995057,25.5355199 196.905718,26.237994 196.905718,27.0983413 C196.905718,36.4250936 199.124508,43.5783368 199.124508,45.25375 C199.124508,45.8876901 198.806314,46.289104 197.991248,46.6427887 C196.995057,47.0454263 194.729761,47.7381099 192.512194,48.3304401 C190.744995,48.8016118 188.480923,49.3156173 186.941354,49.5909774" id="Fill-11" fill="#FFFFFF"></path>
                    <path d="M206.321687,44.4195925 C205.325495,44.6411044 204.780894,44.6043897 204.736836,43.5286496 C204.64505,41.6525295 204.600992,39.5805978 204.600992,37.4083127 C204.600992,29.3482169 205.280214,19.2932902 206.86384,10.8550332 C207.000908,10.2296598 207.453723,9.51984267 208.087663,9.30689753 C209.89892,8.68641946 213.793124,7.55683117 217.824395,6.48109108 C221.94623,5.38209836 226.157404,4.34919207 228.467981,3.91351121 C229.145979,3.77644308 229.328328,4.00162644 229.328328,4.36387794 C229.328328,4.9513128 227.92338,10.3973235 226.837849,13.2243538 C226.6555,13.6343343 226.383811,13.843608 226.066841,13.9280518 C225.659308,14.036972 225.251775,14.0088241 224.436709,13.9096944 C223.123547,13.7616119 221.401629,13.767731 219.409246,14.3000938 C218.186647,14.6256307 217.3263,15.1273979 216.737641,15.8739297 C216.239545,16.5041984 216.013138,17.2005535 216.013138,18.0156193 C216.013138,18.873519 216.420671,19.2174132 217.190455,19.011811 C218.730024,18.6018304 220.677126,17.403708 222.850635,16.8236161 C224.526048,16.3769208 225.659308,16.29982 225.659308,17.0708283 C225.659308,18.1575828 224.481991,23.317219 223.802769,25.5347856 C223.621643,26.1283395 223.439294,26.3571944 223.078266,26.4538763 C222.489607,26.6105256 220.586563,26.4391905 218.776529,26.9213766 C216.600573,27.5026923 215.922575,28.9064169 215.922575,29.9943952 C215.922575,31.5339641 216.782922,31.9818832 218.776529,31.4507441 C222.534889,30.4472096 224.798961,28.2137333 226.066841,27.0143871 C226.474374,26.6350021 226.610218,26.4624431 226.881907,26.3902376 C227.108314,26.3290464 227.28944,26.4171617 227.380003,26.6643738 C228.105729,28.4193355 229.19126,34.6950979 229.19126,36.957946 C229.19126,37.7277304 228.693164,38.4045043 227.742254,38.7043408 C224.661892,39.6613701 220.948815,40.7420055 217.371581,41.6965872 C213.160407,42.8200563 209.129136,43.8064574 206.321687,44.4195925" id="Fill-13" fill="#FFFFFF"></path>
                    <path d="M231.180584,32.8960787 C231.180584,29.4999709 233.536442,26.8332614 237.24952,25.841965 C241.143724,24.8041634 243.317233,26.2617362 243.317233,29.657844 C243.317233,33.0551756 241.143724,35.4453012 237.24952,36.4843266 C233.536442,37.4743991 231.180584,36.2921864 231.180584,32.8960787 M243.588921,0.0144123245 C244.268143,-0.0761505499 244.495774,0.270191253 244.495774,0.769510885 C244.495774,2.08144874 242.502167,7.09667386 241.505975,21.4007127 C241.415412,22.8289137 240.826754,23.3478145 238.018081,24.3684826 C237.113676,24.7013623 236.342668,24.952246 235.708727,25.1211335 C234.351508,25.483385 233.625781,25.4050604 233.354093,24.6622 C232.131494,21.3211643 231.316428,18.1869545 230.952953,13.6649299 C230.727769,10.8721667 230.637206,8.76719175 230.637206,5.59749115 C230.637206,4.46790286 230.952953,3.52188797 232.583084,2.95036281 C233.988033,2.44002877 236.026921,1.85137009 238.109867,1.29575461 C240.147532,0.751153546 242.230478,0.24081951 243.588921,0.0144123245" id="Fill-15" fill="#FFFFFF"></path>
                    <g id="Group-19" transform="translate(0.000000, 103.466049)">
                        <mask id="mask-2" fill="white">
                            <use xlink:href="#path-1"></use>
                        </mask>
                        <g id="Clip-18"></g>
                        <path d="M39.5269008,41.3714943 C41.0334265,44.6905013 42.9841997,56.7561686 42.9841997,61.1864065 C42.9841997,62.6941559 42.0100369,64.018332 40.1486027,64.6020954 C34.9192086,66.2628227 28.6263127,68.0324702 22.5120948,69.6638258 C15.2438123,71.6023608 8.33166206,73.2692073 3.45595272,74.3926764 C1.50762709,74.8246858 0.442901409,74.7537041 0.354786179,72.6511768 C0.178555721,68.7092442 -0.000122382263,64.3267353 -0.000122382263,59.7165955 C-0.000122382263,43.6759523 0.975264251,25.1582922 3.90020033,8.95732824 C4.16454602,7.4679361 4.96370219,6.36894338 6.29277356,5.92591959 C8.41977729,5.18061161 11.9651914,4.14648149 16.0429684,3.05727935 C20.8281149,1.78083236 25.7894918,0.634110554 28.5381974,0.0784950816 C29.8672688,-0.187074428 30.2221774,0.249830249 30.2221774,0.95842355 C30.2221774,3.1735425 22.2453015,33.3970661 22.2453015,45.0074713 C22.2453015,49.2614788 23.3088034,50.0410538 26.1444004,49.2847314 C29.6016993,48.3619692 33.5889134,45.0821245 35.9827105,42.5818549 C37.1343276,41.3898517 37.7560295,40.9566185 38.2871685,40.8158789 C38.8183075,40.6739154 39.2613313,40.7338827 39.5269008,41.3714943" id="Fill-17" fill="#FFFFFF" mask="url(#mask-2)"></path>
                    </g>
                    <path d="M48.3888452,165.870893 C46.4392958,166.302903 45.3757939,166.230697 45.2876787,164.126946 C45.1102244,160.451807 45.0221092,156.39973 45.0221092,152.144499 C45.0221092,136.369425 46.3511805,116.692805 49.4535709,100.179766 C49.7191404,98.9571674 50.605188,97.5681287 51.8461441,97.1483575 C55.3915583,95.9355493 63.0123018,93.7253256 70.9010624,91.6215745 C78.9648297,89.4688705 87.2084989,87.4471156 91.7268521,86.5965588 C93.0571473,86.3297655 93.4120558,86.7666702 93.4120558,87.4740397 C93.4120558,88.6268806 90.664574,99.2863757 88.5375703,104.81683 C88.1826617,105.620882 87.6515227,106.029638 87.0310447,106.193631 C86.2331123,106.406576 85.4351799,106.352727 83.8393152,106.159364 C81.2705115,105.870541 77.9013279,105.881556 74.002229,106.923029 C71.6096557,107.56064 69.9268996,108.542146 68.7728349,110.00339 C67.7986721,111.237004 67.3556483,112.596671 67.3556483,114.191311 C67.3556483,115.875291 68.1523568,116.548394 69.6588825,116.14698 C72.6731576,115.342929 76.4841413,112.996861 80.7381487,111.861153 C84.0167695,110.98612 86.2331123,110.838037 86.2331123,112.344563 C86.2331123,114.471567 83.9286543,124.570551 82.5995829,128.913898 C82.2446744,130.071634 81.8897658,130.519553 81.1811725,130.709245 C80.0295554,131.016425 76.306687,130.681097 72.7624966,131.627112 C68.5072654,132.761596 67.1794178,135.509078 67.1794178,137.637305 C67.1794178,140.649133 68.8621739,141.530285 72.7624966,140.490036 C80.1176706,138.527024 84.5491324,134.154306 87.0310447,131.807014 C87.828977,131.06293 88.0945465,130.726379 88.6256855,130.584416 C89.0687093,130.465705 89.4236179,130.63704 89.6010722,131.12045 C91.0182588,134.554496 93.1452625,146.838004 93.1452625,151.268242 C93.1452625,152.775991 92.1698759,154.100167 90.3096655,154.683931 C84.282339,156.558827 77.0165041,158.674816 70.0150149,160.54237 C61.7725695,162.741579 53.8838088,164.669099 48.3888452,165.870893" id="Fill-20" fill="#FFFFFF"></path>
                    <path d="M122.480291,146.100895 C119.732809,147.010196 116.09928,148.067578 112.110842,149.133528 C108.211743,150.173777 104.133966,151.17364 100.588552,151.940977 C99.7906194,152.153922 99.0820261,151.72436 98.9045718,150.883594 C97.2218157,142.471038 96.4238833,132.935012 96.4238833,122.653678 C96.4238833,111.575635 97.3980461,99.5283254 99.1713651,86.559477 C99.3488194,85.0039985 100.324206,84.3027481 101.120915,84.0885791 C103.602827,83.2490368 108.123628,81.9542325 112.555089,80.7720198 C116.09928,79.8260049 119.555355,78.9925817 121.947928,78.5324244 C123.721247,78.1481441 124.872864,78.3721036 125.670796,79.6644603 C127.531007,82.6248873 130.278489,89.5150087 132.229262,95.3746714 C132.405492,95.9486442 132.760401,96.2068708 133.203425,96.0906076 C133.646448,95.9718968 133.913242,95.6341218 134.089472,95.0552537 C136.2177,87.663365 138.965182,80.0169212 140.649162,76.1998185 C141.26964,74.7936463 142.597487,73.3752359 143.838443,72.9554647 C146.764603,71.9103202 150.043224,70.8578327 153.40996,69.9583231 C156.60169,69.1077664 159.790971,68.4334401 162.892138,67.8717055 C164.489226,67.6232695 165.642067,68.1127986 165.906413,69.1946578 C168.653895,79.1859457 169.982966,90.5295576 169.982966,102.493648 C169.982966,111.534025 169.274373,121.294011 167.855962,131.777275 C167.679732,133.243415 166.793684,134.188206 165.730182,134.560248 C162.982701,135.558887 157.487737,137.202481 152.170228,138.622115 C148.093675,139.70887 144.37203,140.523936 141.888894,140.921678 C140.737277,141.052627 140.382368,140.703838 140.382368,139.816566 C140.382368,136.094922 145.346193,124.401296 145.346193,110.930681 C145.346193,107.738951 145.167515,104.68429 144.460145,101.859707 C144.37203,101.44116 144.105237,101.334688 143.751552,101.428922 C143.396643,101.523156 143.12985,101.862155 143.040511,102.237869 C140.559823,110.523148 137.369317,119.882943 134.089472,128.114374 C133.646448,129.296587 132.84974,129.951332 132.051808,130.164277 C131.253875,130.375999 130.457167,130.057805 130.012919,129.201129 C126.291275,122.838475 123.276999,113.362416 121.683582,108.115889 C121.504904,107.631255 121.149996,107.45992 120.796311,107.554154 C120.441402,107.648389 120.175833,107.98494 120.086494,108.363101 C119.291009,112.564484 119.200446,116.488059 119.200446,119.856019 C119.200446,131.466424 124.164271,141.928884 124.164271,144.322681 C124.164271,145.208729 123.543793,145.72763 122.480291,146.100895" id="Fill-22" fill="#FFFFFF"></path>
                    <path d="M206.053914,94.4648816 C206.053914,81.6147441 203.837571,75.3818154 201.180653,76.0904087 C198.166377,76.895684 196.303719,84.216591 196.303719,97.0667286 C196.303719,103.448964 198.077038,105.456033 201.180653,104.628729 C204.281819,103.801424 206.053914,100.847117 206.053914,94.4648816 M201.356883,126.3834 C180.44053,131.965255 173.97018,121.81487 173.97018,107.545098 C173.97018,84.1480569 183.277351,60.5723378 201.180653,55.7945343 C219.08273,51.0179546 228.387453,69.6286253 228.387453,93.0244424 C228.387453,107.294214 221.918327,120.897003 201.356883,126.3834" id="Fill-24" fill="#FFFFFF"></path>
                    <path d="M236.717647,115.618778 C235.387352,115.885571 234.590643,115.566154 234.413189,114.371703 C233.082894,105.687458 232.551755,95.016948 232.551755,84.9130684 C232.551755,69.4929033 233.791487,55.1582689 235.299236,50.3241695 C235.74226,49.0526178 236.540193,47.9560728 237.779925,47.5350778 C240.085607,46.8313798 242.743749,46.0346712 245.313777,45.3481067 C247.885028,44.6627661 250.365717,44.0887933 252.227151,43.6800365 C253.113199,43.4426149 253.823016,43.7865091 254.531609,44.5722032 C257.012297,47.3661902 261.001959,54.1902252 269.155066,69.3864308 C269.420635,69.8465881 269.684981,69.9530606 270.041113,69.8576025 C270.573476,69.7156391 271.0165,69.0657892 271.0165,68.2690807 C271.0165,55.1521498 265.875221,44.7361954 265.875221,41.9005984 C265.875221,40.8370965 266.495699,39.9632872 267.559201,39.5887975 C270.041113,38.7492551 273.674642,37.6918724 277.308172,36.721381 C280.321223,35.9185534 283.247383,35.2270936 285.462502,34.8122177 C286.702234,34.5699009 287.500167,34.8893186 287.765736,36.2367473 C289.362825,45.2930347 290.247648,60.4782259 290.247648,74.8361129 C290.247648,83.8764907 289.89274,92.5668551 289.094808,99.0714724 C288.829238,100.915773 287.855075,101.885041 286.259211,102.399046 C283.778522,103.238588 279.525738,104.462411 275.712307,105.479408 C273.319734,106.117019 271.0165,106.643263 269.420635,106.892923 C267.38297,107.170731 266.762492,106.981038 266.40636,105.126947 C264.546149,95.1650306 261.090074,88.1096931 256.658613,82.5572099 C256.12625,81.99058 255.683226,81.7543822 255.152087,81.8951218 C254.352931,82.108067 254.00047,83.267027 254.00047,84.4198679 C254.00047,92.2192895 257.632775,107.201326 257.632775,108.264828 C257.632775,109.593899 257.012297,110.115248 256.038135,110.462813 C253.644338,111.279103 249.834578,112.382991 246.112933,113.377959 C242.656858,114.299497 239.198335,115.134144 236.717647,115.618778" id="Fill-26" fill="#FFFFFF"></path>
                    <path d="M37.135429,196.068472 C35.0096491,196.636326 34.2104929,197.912773 34.2104929,199.153729 C34.2104929,201.368848 36.1612662,202.267133 40.9476365,202.673443 C56.0141169,203.970695 61.9508804,208.589401 61.9508804,220.555939 C61.9508804,232.60692 53.7096588,245.087463 35.6301272,249.911772 C20.7398773,253.885524 10.7253367,249.821209 10.7253367,237.147302 C10.7253367,231.298654 12.4986557,227.014051 14.891229,224.337551 C15.3354766,223.865155 15.6891613,223.681582 16.0440699,223.587347 C16.5739851,223.445384 17.0182327,223.593467 17.3731412,224.030371 C22.4238572,229.418862 29.8695941,231.774721 35.6301272,230.2376 C38.5538394,229.456801 39.7960194,228.239097 39.7960194,226.643233 C39.7960194,224.871137 38.1989309,224.322865 32.2621673,223.956942 C21.4496944,223.209186 12.0556319,219.953818 12.0556319,207.368026 C12.0556319,195.317045 20.8292163,183.492471 36.9591986,179.187063 C46.353261,176.680674 54.0633436,177.282795 59.2927377,179.876075 C60.09067,180.283608 60.4443548,180.987306 60.4443548,181.784014 C60.4443548,184.885181 56.7227102,193.500892 53.5309807,198.339887 C53.177296,198.878369 52.8223874,199.151281 52.2924722,199.292021 C51.8482246,199.409508 51.3158618,199.375241 50.9621771,199.203905 C45.822122,196.233688 40.8582974,195.074728 37.135429,196.068472" id="Fill-28" fill="#FFFFFF"></path>
                    <path d="M102.540549,222.487009 C102.098749,222.161472 101.74384,221.990137 101.390156,222.085595 C101.035247,222.179829 100.679115,222.540857 100.236091,223.101367 C97.046809,227.498562 93.6776253,231.675469 89.9559807,235.23924 C89.1580484,235.983324 88.4482313,236.438586 87.6515227,236.651532 C86.9429294,236.841224 86.1462209,236.7886 85.1696104,236.516911 C70.8129472,232.19437 63.4553256,218.291745 63.4553256,194.717249 C63.4553256,188.691147 63.8995732,182.015194 64.873736,174.753031 C65.0511903,173.553685 66.0265769,172.672532 67.0007397,172.323743 C69.5719911,171.460948 72.9399509,170.473323 76.396026,169.551785 C79.0541688,168.841967 81.8028744,168.197013 83.9298781,167.806614 C85.524519,167.470062 86.055658,168.037916 86.055658,169.277648 C86.055658,170.430489 84.9040409,181.638257 84.9040409,192.983093 C84.9040409,201.401768 86.055658,205.083027 87.2966142,207.411961 C87.6515227,207.936981 88.0052075,208.195208 88.4482313,208.078945 C88.8031398,207.982263 89.2473874,207.512315 89.5117331,206.819631 C90.9313674,204.313242 91.7280759,198.340988 91.7280759,191.251384 C91.7280759,180.70448 90.3108893,169.560351 90.3108893,167.788256 C90.3108893,166.724754 90.7539131,166.073681 92.0829845,165.630657 C94.2993272,164.862096 97.7554023,163.852443 101.211477,162.92968 C104.845007,161.960413 108.567875,161.056008 111.048564,160.57015 C112.644428,160.233599 113.175567,160.801453 113.175567,162.041185 C113.175567,163.194026 111.935835,176.198365 111.935835,185.769882 C111.935835,194.189782 112.999337,197.893069 114.240293,200.223227 C114.593978,200.747023 114.948886,201.006474 115.39191,200.888987 C115.834934,200.770276 116.188619,200.322357 116.543527,199.607644 C117.872599,197.124508 118.671755,191.152254 118.671755,184.061426 C118.671755,173.691977 117.696368,162.252906 117.696368,160.480811 C117.696368,159.417309 118.138168,158.76746 119.468463,158.323212 C121.329898,157.739449 123.98804,156.940292 126.646183,156.230475 C130.192821,155.285684 133.825127,154.316417 136.041469,153.901541 C137.813565,153.517261 138.967629,154.008013 139.231975,155.974696 C140.029907,161.524732 140.384816,166.923014 140.384816,171.974953 C140.384816,197.233429 131.521892,216.792562 118.671755,227.576887 C117.784483,228.345447 117.07589,228.799486 116.279182,229.012431 C115.569364,229.202123 114.771432,229.149499 113.885385,228.854558 C109.630153,227.597692 106.351532,225.724019 102.540549,222.487009" id="Fill-30" fill="#FFFFFF"></path>
                    <path d="M159.347947,215.837246 C155.538188,216.853019 151.637865,217.894492 148.093675,218.397483 C146.675264,218.59819 146.054786,218.232267 145.610538,216.489543 C144.815054,213.333305 143.838443,202.781506 143.838443,190.728077 C143.838443,170.609657 145.965447,157.457235 147.030173,153.451664 C147.473197,151.738312 148.447359,150.85716 149.6002,150.461865 C152.966936,149.384901 156.51235,148.350771 160.057765,147.404756 C163.779409,146.411012 167.502278,145.506607 170.870238,144.785776 C172.021855,144.567935 172.642333,144.933858 172.554217,146.108728 C172.554217,148.501301 167.945301,161.872787 167.945301,179.067495 C167.945301,197.236366 172.376763,208.550606 172.376763,210.322701 C172.376763,211.386203 171.757509,211.994443 170.515329,212.414214 C166.8818,213.73839 163.160155,214.819025 159.347947,215.837246" id="Fill-32" fill="#FFFFFF"></path>
                    <path d="M202.775661,203.983789 C200.026955,204.894313 196.394649,205.950472 192.406211,207.016422 C188.507113,208.056671 184.429336,209.056534 180.883921,209.825095 C180.087213,210.036816 179.37862,209.606031 179.199941,208.766488 C177.515962,200.353932 176.719253,190.817906 176.719253,180.536572 C176.719253,169.458529 177.693416,157.411219 179.465511,144.442371 C179.644189,142.886892 180.619576,142.185642 181.416284,141.972697 C183.898197,141.131931 188.417773,139.83835 192.850459,138.654914 C196.394649,137.708899 199.850724,136.875476 202.243298,136.415318 C204.016617,136.031038 205.168234,136.254998 205.964942,137.548578 C207.826377,140.507781 210.575082,147.396679 212.524632,153.257565 C212.700862,153.831538 213.054547,154.090989 213.498794,153.973502 C213.941818,153.854791 214.207388,153.51824 214.384842,152.938148 C216.51307,145.546259 219.260551,137.899815 220.943307,134.083936 C221.563785,132.67654 222.892857,131.25813 224.133813,130.838359 C227.058749,129.793214 230.33737,128.740727 233.70533,127.841217 C236.895835,126.99066 240.086341,126.317558 243.188731,125.7546 C244.783372,125.506164 245.937437,125.996916 246.201783,127.077552 C248.949264,137.06884 250.27956,148.412452 250.27956,160.376542 C250.27956,169.416919 249.569742,179.176905 248.152556,189.660169 C247.975102,191.126309 247.08783,192.072324 246.025552,192.443142 C243.27807,193.443005 237.781883,195.085375 232.465597,196.505009 C228.38782,197.591764 224.666176,198.40683 222.184264,198.804572 C221.032646,198.935521 220.677738,198.586732 220.677738,197.69946 C220.677738,193.977816 225.641562,182.285414 225.641562,168.813575 C225.641562,165.621845 225.464108,162.567184 224.755515,159.743825 C224.666176,159.324054 224.400606,159.217582 224.045698,159.311816 C223.692013,159.40605 223.42522,159.745049 223.337104,160.120763 C220.853968,168.407266 217.664687,177.765837 214.384842,185.997268 C213.941818,187.179481 213.14511,187.834226 212.347177,188.047171 C211.549245,188.258893 210.752536,187.940699 210.308289,187.084023 C206.58542,180.721369 203.572369,171.24531 201.977728,165.998783 C201.800274,165.514149 201.445365,165.342814 201.090457,165.437048 C200.736772,165.531283 200.469979,165.867834 200.381863,166.245995 C199.583931,170.448602 199.495816,174.370953 199.495816,177.738913 C199.495816,189.349318 204.45964,199.811778 204.45964,202.205575 C204.45964,203.091623 203.837939,203.611747 202.775661,203.983789" id="Fill-34" fill="#FFFFFF"></path>
                    <path d="M255.507607,180.341617 C255.507607,173.693812 260.116523,168.476656 267.382358,166.538121 C275.00555,164.504128 279.258333,167.356859 279.258333,174.003439 C279.258333,180.651244 275.00555,185.331142 267.382358,187.363911 C260.116523,189.30367 255.507607,186.989421 255.507607,180.341617 M279.790696,115.988128 C281.120991,115.810674 281.562791,116.491119 281.562791,117.466506 C281.562791,120.036533 277.663692,129.850367 275.714143,157.844085 C275.535465,160.639296 274.383848,161.656293 268.890108,163.653571 C267.116789,164.304645 265.610263,164.794174 264.369307,165.124606 C261.709941,165.834423 260.29153,165.681446 259.761615,164.228768 C257.367818,157.68866 255.773177,151.556085 255.064584,142.7054 C254.619112,137.239808 254.444106,133.121645 254.444106,126.916864 C254.444106,124.702969 255.064584,122.852549 258.253865,121.733975 C261.001347,120.73656 264.989785,119.583719 269.067562,118.49574 C273.054776,117.431015 277.132553,116.432375 279.790696,115.988128" id="Fill-36" fill="#FFFFFF"></path>
                </g>
            </g>
        </g>
    </g>
</svg>