<?xml version="1.0" encoding="UTF-8"?>
<svg width="269px" height="334px" viewBox="0 0 269 334" version="1.1" xmlns="http://www.w3.org/2000/svg" xmlns:xlink="http://www.w3.org/1999/xlink">
    <title>slogan1</title>
    <defs>
        <polygon id="path-1" points="-4.23152782e-14 0 33.1005573 0 33.1005573 44.323093 -4.23152782e-14 44.323093"></polygon>
        <polygon id="path-3" points="0 0 26.1460532 0 26.1460532 45.3606078 0 45.3606078"></polygon>
        <polygon id="path-5" points="0 0 29.4339997 0 29.4339997 48.3769273 0 48.3769273"></polygon>
    </defs>
    <g id="Page-1" stroke="none" stroke-width="1" fill="none" fill-rule="evenodd">
        <g id="desktop-home" transform="translate(-126.000000, -316.000000)">
            <g id="Banner" transform="translate(-13.000000, 189.242933)">
                <g id="slogan1" transform="translate(139.000000, 126.757067)">
                    <path d="M76.0098673,63.9998814 C76.9262461,66.017892 78.1128488,73.3540154 78.1128488,76.0476726 C78.1128488,76.9644089 77.5195475,77.7695297 76.3880317,78.1244674 C73.2071326,79.1349609 69.379334,80.2101915 65.6602204,81.2020824 C61.2391204,82.3807434 57.0339017,83.3942133 54.0688839,84.077301 C52.88377,84.3399698 52.2361261,84.2968117 52.182528,83.0184407 C52.0753318,80.6216811 51.9666467,77.9570439 51.9666467,75.1540034 C51.9666467,65.4010297 52.5599481,54.141989 54.3391077,44.2915376 C54.499902,43.3859628 54.9860072,42.7177572 55.7944454,42.4483915 C57.0882443,41.995232 59.2448239,41.366464 61.7252255,40.7042112 C64.6359009,39.9281105 67.6537725,39.2308849 69.3257358,38.8930616 C70.1341741,38.731591 70.3500553,38.9972362 70.3500553,39.4280725 C70.3500553,40.7749011 65.4979372,59.1520426 65.4979372,66.2113591 C65.4979372,68.7978653 66.1448367,69.2711156 67.8696537,68.8112592 C69.9726353,68.2502046 72.3979499,66.2560054 73.854032,64.7358005 C74.5545296,64.011043 74.9326941,63.7476301 75.2550272,63.6620581 C75.5788491,63.5757421 75.8483285,63.6122032 76.0098673,63.9998814" id="Fill-1" fill="#000000"></path>
                    <path d="M81.4004231,76.7884283 C80.2145649,77.0510971 79.5676654,77.0071949 79.5140673,75.7280798 C79.4061266,73.4935349 79.3517841,71.0298059 79.3517841,68.4425556 C79.3517841,58.8510524 80.1602223,46.8873451 82.048067,36.8471471 C82.2096058,36.103787 82.7485646,35.2592287 83.5026603,35.004001 C85.6599843,34.2665937 90.2954768,32.9234857 95.0939968,31.6436264 C99.9989686,30.3347471 105.012625,29.105487 107.761762,28.5883346 C108.5702,28.4261199 108.786826,28.6917651 108.786826,29.1218573 C108.786826,29.8228034 107.114863,36.303951 105.821064,39.6665579 C105.605927,40.1554344 105.282105,40.4039652 104.904685,40.5036751 C104.420069,40.6331493 103.934708,40.6004087 102.963986,40.4828402 C101.400708,40.3072316 99.3520692,40.3139286 96.9803526,40.9471613 C95.5250149,41.3348395 94.5006954,41.9316111 93.7994534,42.8200715 C93.2061521,43.5701286 92.9366727,44.3968283 92.9366727,45.3663961 C92.9366727,46.3902835 93.4220334,46.7995408 94.3384123,46.5554746 C96.1719144,46.0665982 98.4892884,44.6401504 101.077631,43.9496217 C103.071927,43.4175872 104.420069,43.3275506 104.420069,44.2435429 C104.420069,45.536796 103.017585,51.6771438 102.209146,54.3179696 C101.99401,55.0218922 101.778128,55.2942343 101.34711,55.4095705 C100.645868,55.5963407 98.3820922,55.3924561 96.2255125,55.9676487 C93.6379147,56.6574332 92.8302209,58.3279472 92.8302209,59.6219444 C92.8302209,61.4531848 93.853796,61.9889398 96.2255125,61.3564513 C100.700211,60.1629081 103.395005,57.5042238 104.904685,56.077032 C105.390046,55.6246166 105.551584,55.419988 105.875406,55.3336719 C106.144886,55.2614938 106.360023,55.3656684 106.467963,55.6595895 C107.330744,57.7475459 108.623798,65.2161198 108.623798,67.909777 C108.623798,68.8265133 108.031241,69.6316341 106.898981,69.9865718 C103.233466,71.1265394 98.8138548,72.4130956 94.555038,73.5485986 C89.5413811,74.8857539 84.7428611,76.0584621 81.4004231,76.7884283" id="Fill-3" fill="#000000"></path>
                    <path d="M126.628149,45.9727666 C127.11351,45.7353974 127.598871,45.3908771 128.084231,45.0984442 C128.62319,44.6862105 128.89267,44.290347 128.89267,43.5365695 C128.89267,41.5431143 128.192172,38.4960076 127.490186,37.0122638 C127.328647,36.678161 127.167852,36.5605926 126.951971,36.6178886 C126.681747,36.6893226 126.46661,36.9080892 126.250729,37.3426461 C124.687451,40.1851241 124.094894,44.1154825 124.094894,46.5405181 C124.094894,47.0256741 124.310775,47.075529 124.580255,47.004095 C125.011273,46.8880148 125.766113,46.4720605 126.628149,45.9727666 M112.558644,68.4774541 C111.426384,68.7259849 110.833083,68.6679447 110.725142,67.7266529 C110.510005,65.6290232 110.402065,63.3409028 110.402065,60.9701868 C110.348467,47.7816839 113.852443,31.5974176 125.712515,23.0997476 C126.250729,22.7396011 126.681747,22.4627944 127.059167,22.3630844 C127.437332,22.2618863 127.760409,22.2834653 128.24577,22.424101 C138.865641,25.2487205 143.178056,36.9237154 143.178056,51.7961261 C143.178056,53.8974764 143.070859,56.1364859 142.908576,58.3888893 C142.80138,59.764738 142.099394,60.3823445 140.968622,60.79309 C139.297403,61.3995349 137.356705,61.9710069 135.46886,62.4747655 C133.097144,63.1065099 130.779025,63.6177095 129.27009,63.9123748 C128.51525,64.0604515 128.030633,63.8662403 128.030633,63.1109746 C128.030633,62.0335117 128.89267,59.2713969 128.89267,55.930369 C128.89267,54.4756453 128.24577,54.0544823 127.11351,54.3573327 C125.280008,54.8462092 123.82467,55.9348337 123.82467,58.4141889 C123.82467,60.999951 124.202835,62.892952 124.202835,64.3476758 C124.202835,64.8871513 123.986209,65.2681326 123.177771,65.5374984 C121.668835,66.0479539 119.566598,66.6625839 117.302822,67.2660524 C115.630858,67.7125149 114.121178,68.1150753 112.558644,68.4774541" id="Fill-5" fill="#000000"></path>
                    <path d="M161.722705,55.3649242 C160.050742,55.9177937 157.841309,56.5606997 155.41525,57.2088145 C153.043533,57.8405589 150.563131,58.4492362 148.406552,58.9157895 C147.921191,59.0452636 147.490173,58.7833389 147.382232,58.2728835 C146.357913,53.1579112 145.873296,47.3598513 145.873296,41.1086319 C145.873296,34.3730006 146.465853,27.0480389 147.543771,19.1627667 C147.652456,18.2170102 148.245757,17.7906385 148.730374,17.6604203 C150.240054,17.1499648 152.98919,16.3627026 155.685473,15.6438979 C157.841309,15.0687054 159.943546,14.5619704 161.398883,14.2821872 C162.477545,14.0485385 163.178043,14.1847096 163.663404,14.9704836 C164.794919,16.7704717 166.466138,20.9590342 167.652741,24.5225492 C167.759193,24.8715341 167.975819,25.0285401 168.245298,24.9571061 C168.514777,24.8856721 168.676316,24.6802993 168.784257,24.3275939 C170.0788,19.8339487 171.749275,15.1847856 172.773594,12.8639246 C173.151759,12.0089489 173.959452,11.1465321 174.714293,10.8913044 C176.493452,10.2558394 178.487749,9.61590977 180.536388,9.06899318 C182.477086,8.55184076 184.417784,8.14183935 186.30414,7.80029552 C187.274862,7.64924236 187.976104,7.94688404 188.137642,8.60467216 C189.808861,14.6795389 190.616555,21.5766407 190.616555,28.8510034 C190.616555,34.3477011 190.185537,40.2819321 189.323501,46.6559287 C189.216304,47.5466214 188.677346,48.121814 188.030446,48.3480216 C186.358483,48.9552107 183.016045,49.9545426 179.782292,50.8177035 C177.30189,51.478468 175.038114,51.9740414 173.528434,52.2158753 C172.827937,52.2954944 172.612055,52.0834247 172.612055,51.5439492 C172.612055,49.2811283 175.631416,42.1712127 175.631416,33.9808577 C175.631416,32.040234 175.522731,30.1829499 175.092457,28.4655574 C175.038114,28.2110737 174.876576,28.1455926 174.660694,28.2036327 C174.445558,28.2609287 174.28253,28.4670456 174.228932,28.6954856 C172.719996,33.733071 170.778553,39.42398 168.784257,44.4288248 C168.514777,45.1468854 168.029417,45.5457252 167.5448,45.6744552 C167.05944,45.8039294 166.574079,45.6104623 166.303855,45.0895893 C164.040079,41.2209916 162.207322,35.4593928 161.237345,32.2694181 C161.129404,31.9747528 160.913523,31.8705782 160.697641,31.9278742 C160.482505,31.9851703 160.320221,32.1897989 160.266623,32.4197271 C159.782007,34.9742368 159.727664,37.3598349 159.727664,39.4076097 C159.727664,46.4669262 162.747025,52.828273 162.747025,54.2837408 C162.747025,54.8224723 162.369605,55.1379725 161.722705,55.3649242" id="Fill-7" fill="#000000"></path>
                    <g id="Group-11" transform="translate(193.042689, 0.000000)">
                        <mask id="mask-2" fill="white">
                            <use xlink:href="#path-1"></use>
                        </mask>
                        <g id="Clip-10"></g>
                        <path d="M19.5149243,23.9693822 C19.5149243,16.1562881 18.1667829,12.3665654 16.5506509,12.7974017 C14.7171487,13.2870223 13.5848886,17.7382536 13.5848886,25.5513477 C13.5848886,29.4318511 14.6628062,30.652182 16.5506509,30.1491676 C18.4370067,29.645409 19.5149243,27.8498856 19.5149243,23.9693822 M16.6578471,43.3763638 C3.93499485,46.769479 -4.23152782e-14,40.5986228 -4.23152782e-14,31.9223679 C-4.23152782e-14,17.6965837 5.66055635,3.36216042 16.5506509,0.457177621 C27.440001,-2.44706108 33.1005573,8.86853151 33.1005573,23.0935715 C33.1005573,31.7698265 29.1648181,40.0405447 16.6578471,43.3763638" id="Fill-9" fill="#000000" mask="url(#mask-2)"></path>
                    </g>
                    <g id="Group-14" transform="translate(0.000000, 100.927518)">
                        <mask id="mask-4" fill="white">
                            <use xlink:href="#path-3"></use>
                        </mask>
                        <g id="Clip-13"></g>
                        <path d="M24.0438161,25.1541677 C24.9594505,27.1729224 26.1460532,34.5083016 26.1460532,37.2019588 C26.1460532,38.1186952 25.5527519,38.9238159 24.4212361,39.2794977 C21.240337,40.2892472 17.4125383,41.3644777 13.6934248,42.3563686 C9.2723248,43.5357738 5.06785054,44.5484996 2.10208825,45.2323314 C0.916974396,45.494256 0.269330522,45.451098 0.215732408,44.172727 C0.107791762,41.7767114 -0.000148883649,39.1113302 -0.000148883649,36.3082897 C-0.000148883649,26.5553159 0.593152459,15.2970194 2.37231207,5.44656794 C2.53310641,4.54024903 3.01921153,3.87204345 3.82764974,3.60267773 C5.12144865,3.14951827 7.27802832,2.52075022 9.75842991,1.85924159 C12.6691053,1.0823968 15.6869768,0.385171168 17.3589402,0.048091965 C18.1673784,-0.114122751 18.3832597,0.151522449 18.3832597,0.582358781 C18.3832597,1.92918738 13.5311416,20.3063288 13.5311416,27.3656454 C13.5311416,29.9521516 14.178041,30.4254019 15.9028581,29.9655455 C18.0065841,29.4044909 20.4311543,27.4102916 21.8879808,25.8900868 C22.587734,25.1653293 22.965154,24.9026605 23.2882316,24.8163444 C23.6127979,24.7300283 23.8815329,24.7664894 24.0438161,25.1541677" id="Fill-12" fill="#000000" mask="url(#mask-4)"></path>
                    </g>
                    <path d="M37.4120789,136.903193 C35.0939605,137.521543 32.7214996,138.154776 30.5656643,138.460603 C29.703628,138.582636 29.326208,138.359405 29.0559841,137.2998 C28.5713678,135.3815 27.9780665,128.965833 27.9780665,121.637151 C27.9780665,109.404822 29.2718654,101.407934 29.9187649,98.9717371 C30.1882443,97.9299913 30.7815456,97.3949803 31.4820432,97.1546347 C33.5306822,96.499823 35.6872619,95.8703108 37.8438415,95.2958624 C40.1076174,94.6916498 42.3721377,94.1410127 44.4200323,93.7034794 C45.1212743,93.5702848 45.4986944,93.7927719 45.4443518,94.507856 C45.4443518,95.9625798 42.6408727,104.092662 42.6408727,114.547326 C42.6408727,125.594297 45.3371556,132.472796 45.3371556,133.550259 C45.3371556,134.196886 44.9597356,134.56745 44.2048954,134.822678 C41.9939733,135.627054 39.7301974,136.284842 37.4120789,136.903193" id="Fill-15" fill="#000000"></path>
                    <path d="M63.8273138,129.696841 C62.1560948,130.249711 59.945917,130.892617 57.519858,131.539987 C55.1481414,132.172476 52.6684843,132.781153 50.5111602,133.247707 C50.0272883,133.377181 49.5955257,133.115256 49.4875851,132.604801 C48.4632656,127.489828 47.9779049,121.691768 47.9779049,115.440549 C47.9779049,108.704918 48.5712062,101.379956 49.6491239,93.4946838 C49.7578089,92.5489273 50.3503658,92.1218115 50.8357265,91.9923374 C52.3446623,91.4818819 55.0945433,90.6946197 57.7900818,89.975815 C59.945917,89.4006224 62.0481542,88.8931434 63.5034918,88.6133602 C64.5821539,88.3804556 65.2826515,88.5158826 65.7672677,89.3031448 C66.9002723,91.1023888 68.5714913,95.2909513 69.7573495,98.8544663 C69.8652902,99.2027071 70.0796826,99.3612013 70.3506509,99.2890232 C70.6201303,99.2175892 70.781669,99.0122164 70.8896097,98.659511 C72.1834086,94.1658658 73.8546276,89.5167027 74.8789471,87.1958417 C75.2556227,86.340866 76.0640609,85.4784492 76.818901,85.2232215 C78.5988051,84.5877565 80.5931015,83.9478269 82.6409961,83.4009103 C84.5824389,82.8837579 86.5223929,82.4737564 88.4094931,82.1322126 C89.3802145,81.9811595 90.0814565,82.2788011 90.2422509,82.9365893 C91.9134698,89.011456 92.7226525,95.9085578 92.7226525,103.18292 C92.7226525,108.679618 92.2916343,114.613849 91.4288535,120.987102 C91.3209129,121.878539 90.7812097,122.453731 90.1350546,122.679939 C88.4638357,123.287128 85.1213977,124.28646 81.8869005,125.149621 C79.4072433,125.810385 77.1434674,126.305959 75.6330428,126.547792 C74.9325452,126.627412 74.7166639,126.415342 74.7166639,125.875866 C74.7166639,123.613045 77.7360243,116.502386 77.7360243,108.312775 C77.7360243,106.372151 77.6280837,104.514867 77.1970655,102.797474 C77.1434674,102.542991 76.9811842,102.47751 76.7660473,102.53555 C76.550166,102.592846 76.3878829,102.798219 76.3350292,103.027403 C74.8238601,108.064988 72.8846506,113.755153 70.8896097,118.760742 C70.6201303,119.478802 70.1347696,119.876898 69.6494089,120.006372 C69.1647926,120.135846 68.6794319,119.942379 68.4092081,119.421506 C66.1454322,115.552909 64.3119301,109.790566 63.3426975,106.600591 C63.2340124,106.305926 63.0181312,106.202495 62.8029943,106.259047 C62.587113,106.317087 62.4255742,106.521716 62.3719761,106.751644 C61.8866154,109.306154 61.8322729,111.691752 61.8322729,113.739527 C61.8322729,120.798843 64.8516333,127.159446 64.8516333,128.615658 C64.8516333,129.153645 64.4734688,129.46989 63.8273138,129.696841" id="Fill-17" fill="#000000"></path>
                    <path d="M114.662221,98.3013737 C114.662221,90.4882796 113.31408,86.6985569 111.697948,87.1293932 C109.864446,87.6190138 108.731441,92.0702451 108.731441,99.8833392 C108.731441,103.763843 109.809359,104.984173 111.697948,104.481159 C113.584304,103.978145 114.662221,102.181877 114.662221,98.3013737 M111.8044,117.708355 C99.082292,121.102215 95.1465527,114.930614 95.1465527,106.254359 C95.1465527,92.0285753 100.807853,77.6941519 111.697948,74.7891691 C122.587298,71.8849304 128.24711,83.200523 128.24711,97.425563 C128.24711,106.101818 124.311371,114.372536 111.8044,117.708355" id="Fill-19" fill="#000000"></path>
                    <path d="M133.313397,111.163289 C132.504959,111.325504 132.020343,111.131293 131.912402,110.405047 C131.10322,105.124884 130.780142,98.6370391 130.780142,92.4937148 C130.780142,83.1180019 131.534238,74.4023094 132.451361,71.4630978 C132.72084,70.6899735 133.205457,70.0232561 133.960297,69.7672843 C135.362781,69.3394244 136.979657,68.8550125 138.542935,68.4375701 C140.106214,68.0208717 141.615894,67.6718869 142.74741,67.4233561 C143.286369,67.2789998 143.718131,67.4880931 144.149894,67.965808 C145.65883,69.6645979 148.084889,73.8137229 153.044947,83.0532648 C153.206486,83.333048 153.36728,83.397785 153.583162,83.3397449 C153.906984,83.2534288 154.176463,82.8583095 154.176463,82.3738977 C154.176463,74.3985888 151.049906,68.065518 151.049906,66.3414285 C151.049906,65.694802 151.426582,65.1635116 152.073482,64.9358157 C153.583162,64.4253602 155.79334,63.7824542 158.004262,63.1923796 C159.837019,62.7042472 161.616179,62.2838283 162.963576,62.031577 C163.718416,61.8842444 164.203777,62.0784556 164.365316,62.8977143 C165.336037,68.4040854 165.874251,77.6369303 165.874251,86.3667608 C165.874251,91.8634585 165.659115,97.1473425 165.173754,101.102256 C165.012215,102.223621 164.418914,102.812952 163.448937,103.125476 C161.940001,103.635931 159.352403,104.380035 157.03354,104.998386 C155.578203,105.386064 154.176463,105.706029 153.206486,105.857826 C151.96703,106.026738 151.58961,105.911402 151.372984,104.784084 C150.241468,98.7270757 148.139231,94.437315 145.442948,91.0613142 C145.119871,90.716794 144.850391,90.5731818 144.526569,90.6587538 C144.041209,90.788228 143.826072,91.4921505 143.826072,92.1930967 C143.826072,96.9352728 146.03625,106.04534 146.03625,106.691967 C146.03625,107.500064 145.65883,107.817053 145.066273,108.028378 C143.610191,108.524696 141.292072,109.195878 139.028296,109.800834 C136.926059,110.361145 134.823078,110.868624 133.313397,111.163289" id="Fill-21" fill="#000000"></path>
                    <path d="M184.472499,78.7657364 C184.95786,78.5283671 185.443221,78.1838469 185.927837,77.8921581 C186.46754,77.4791802 186.737019,77.0833168 186.737019,76.3295392 C186.737019,74.3360841 186.036522,71.2889774 185.33528,69.8059777 C185.172997,69.4718749 185.012202,69.3535624 184.796321,69.4116025 C184.526097,69.4822924 184.31096,69.7018031 184.095079,70.13636 C182.531801,72.978838 181.939244,76.9084523 181.939244,79.3334879 C181.939244,79.8186438 182.155125,79.8684988 182.424605,79.7970648 C182.855623,79.6817287 183.610463,79.2650303 184.472499,78.7657364 M170.40225,101.271168 C169.270734,101.518955 168.676688,101.461659 168.569492,100.519623 C168.354355,98.4227371 168.24567,96.1338725 168.24567,93.7631566 C168.192817,80.5753978 171.696049,64.3911314 183.556865,55.8927174 C184.095079,55.533315 184.526097,55.2557642 184.903517,55.1560542 C185.281682,55.054856 185.604759,55.0771792 186.09012,55.2178148 C196.709246,58.0424344 201.022406,69.7174293 201.022406,84.58984 C201.022406,86.6911902 200.915209,88.9294557 200.753671,91.1826032 C200.64573,92.5577078 199.944488,93.1753142 198.812972,93.5860598 C197.141753,94.1925047 195.201055,94.7647208 193.313955,95.2677353 C190.941494,95.9002238 188.623375,96.4114234 187.11444,96.7060887 C186.358855,96.8541654 185.874983,96.6599542 185.874983,95.9046884 C185.874983,94.8272256 186.737019,92.0643667 186.737019,88.7233388 C186.737019,87.2686151 186.09012,86.8481962 184.95786,87.1503025 C183.125102,87.639179 181.66902,88.7278034 181.66902,91.2071586 C181.66902,93.7929207 182.04644,95.6866659 182.04644,97.1413896 C182.04644,97.6808652 181.831303,98.0618465 181.022121,98.3312122 C179.513185,98.8409236 177.410948,99.4562978 175.146427,100.059022 C173.475208,100.505485 171.965528,100.908045 170.40225,101.271168" id="Fill-23" fill="#000000"></path>
                    <path d="M223.88014,67.769811 C223.88014,60.2796581 221.291798,57.6827344 219.566981,58.1425908 C219.243159,58.229651 218.919337,58.4231181 218.650602,58.7639178 C217.94936,59.6523782 217.679881,62.4725332 217.679881,67.8077603 C217.679881,74.4890719 218.273182,76.8091888 219.08162,77.4014957 C219.404698,77.6396091 219.72852,77.6611881 220.051597,77.574872 C221.669218,77.1432916 223.88014,74.5597618 223.88014,67.769811 M206.843384,91.5513812 C205.92775,91.7418719 205.496731,91.6414178 205.226508,91.1748645 C204.473156,89.8131538 203.879111,85.9289299 203.879111,74.7212324 C203.879111,63.4048957 204.687549,56.1848527 205.712613,51.8162169 C205.981348,50.8273024 206.466708,50.4277185 206.952069,50.2446688 C209.054306,49.5772074 211.641904,48.7795277 213.960767,48.160433 C227.383372,44.5805477 237.464284,45.7718585 237.464284,66.6253787 C237.464284,78.2110811 234.337728,84.3253853 217.842164,88.7252735 C215.847123,89.2580521 208.029987,91.2887124 206.843384,91.5513812" id="Fill-25" fill="#000000"></path>
                    <g id="Group-29" transform="translate(239.566000, 34.029499)">
                        <mask id="mask-6" fill="white">
                            <use xlink:href="#path-5"></use>
                        </mask>
                        <g id="Clip-28"></g>
                        <path d="M2.0478946,48.2481857 C0.86203633,48.5108545 0.215136873,48.4676964 0.16153876,47.1885813 C0.0535981138,44.9540364 0,42.4903074 0,39.9030571 C0,30.3115539 0.808438216,18.3478466 2.69553847,8.30690449 C2.85707723,7.56354439 3.39603604,6.71898613 4.15087614,6.46375839 C6.30745581,5.72635112 10.9429482,4.38324304 15.7414682,3.10338381 C20.6464401,1.79450452 25.6608414,0.565244385 28.4092336,0.048091965 C29.2176718,-0.114122751 29.4342975,0.151522449 29.4342975,0.582358781 C29.4342975,1.28330494 27.7623341,7.76445253 26.4692796,11.1263153 C26.2533983,11.6159359 25.9303208,11.8637226 25.5529007,11.9641766 C25.06754,12.0936508 24.5821793,12.0609102 23.611458,11.9425976 C22.0481796,11.7677331 19.9995406,11.7744301 17.6278241,12.4076627 C16.1724864,12.795341 15.1489113,13.3913685 14.4469249,14.2798289 C13.854368,15.0306301 13.5848886,15.8565857 13.5848886,16.8268976 C13.5848886,17.8500409 14.0695049,18.2592982 14.9858837,18.015232 C16.8193859,17.5263555 19.1375043,16.1006519 21.7251021,15.4101232 C23.7193986,14.8780887 25.06754,14.7880521 25.06754,15.7040444 C25.06754,16.9972975 23.6658005,23.1369012 22.8573623,25.777727 C22.641481,26.4816496 22.4255997,26.7539917 21.9945815,26.870072 C21.294084,27.0568421 19.0295636,26.8522135 16.872984,27.427406 C14.2853862,28.1171906 13.4776924,29.7877046 13.4776924,31.0817018 C13.4776924,32.9136863 14.5012674,33.4486972 16.872984,32.8162087 C21.3476821,31.6226655 24.0424761,28.9639812 25.5529007,27.5367894 C26.037517,27.0851181 26.1998002,26.8797453 26.5228777,26.7941734 C26.7923571,26.7212512 27.0082384,26.8254257 27.1161791,27.120091 C27.9782154,29.2073033 29.2720143,36.6766213 29.2720143,39.3695344 C29.2720143,40.2870148 28.678713,41.0913915 27.5471972,41.4470733 C23.8809374,42.5862968 19.4613262,43.8735971 15.2025094,45.0091001 C10.1888525,46.3462553 5.39033253,47.5182195 2.0478946,48.2481857" id="Fill-27" fill="#000000" mask="url(#mask-6)"></path>
                    </g>
                    <path d="M109.649011,150.82315 C109.649011,148.50601 108.732632,146.864516 107.493176,147.194898 C106.791934,147.382412 105.767614,148.13991 104.958432,149.003071 C104.149994,149.918319 103.826172,151.244313 103.826172,152.537566 C103.826172,154.531021 104.095651,155.429155 104.527414,155.745399 C104.851236,155.982769 105.228656,155.935146 105.714016,155.805672 C107.275806,155.389718 109.649011,153.732598 109.649011,150.82315 M109.109308,134.854674 C109.109308,133.130585 107.330893,133.066592 105.875555,133.45427 C105.228656,133.626902 104.742551,133.917847 104.365131,134.395562 C103.664633,135.283278 103.341555,136.824318 103.341555,139.734509 C103.341555,140.811972 103.556692,141.454878 104.365131,141.239088 C105.875555,140.836528 109.109308,137.386861 109.109308,134.854674 M93.3685842,170.092473 C92.6129996,170.239805 91.858904,170.387138 91.7509633,169.284375 C91.2112601,163.499709 90.9417807,157.860144 90.9417807,152.363446 C90.9417807,144.388881 91.5358264,137.116751 92.5058034,130.391537 C92.6129996,129.501588 93.206301,128.965833 94.0154836,128.696468 C96.0633782,127.98808 100.268597,126.705245 104.473816,125.58388 C112.020728,123.571078 116.872846,122.600022 119.676325,124.654494 C120.96938,125.602482 121.670621,127.194121 121.670621,129.510518 C121.670621,133.335957 119.782777,136.534117 117.249522,139.257539 C116.764905,139.817849 116.549768,140.144511 116.549768,140.468196 C116.549768,140.683986 116.710563,140.910938 117.034385,141.039668 C121.293946,142.921508 123.180302,145.220046 123.180302,150.123692 C123.180302,157.830379 117.303864,163.923105 102.856195,167.77682 C99.8368343,168.581941 96.4943964,169.419802 93.3685842,170.092473" id="Fill-30" fill="#000000"></path>
                    <path d="M135.200572,159.041781 C132.882454,159.660132 130.509993,160.293364 128.354157,160.599191 C127.491377,160.721224 127.114701,160.498737 126.844477,159.439133 C126.359116,157.520832 125.765815,151.104422 125.765815,143.775739 C125.765815,131.54341 127.059614,123.546522 127.707258,121.111069 C127.976737,120.069324 128.570039,119.533569 129.270536,119.293223 C131.319175,118.638411 133.475755,118.008899 135.632335,117.434451 C137.89611,116.830238 140.160631,116.280345 142.208525,115.842068 C142.909023,115.709617 143.286443,115.93136 143.232845,116.646444 C143.232845,118.101168 140.429366,126.23125 140.429366,136.685914 C140.429366,147.732885 143.125649,154.612129 143.125649,155.689592 C143.125649,156.336218 142.747484,156.706038 141.993389,156.961266 C139.782466,157.766386 137.51869,158.42343 135.200572,159.041781" id="Fill-32" fill="#000000"></path>
                    <path d="M158.973271,127.69855 C158.973271,135.512388 160.105531,139.359406 161.938289,138.87053 C163.55591,138.439694 164.904051,133.930422 164.904051,126.116584 C164.904051,122.236825 163.826134,121.01575 161.938289,121.518764 C160.051189,122.021779 158.973271,123.81879 158.973271,127.69855 M178.48894,121.253863 C178.48894,135.426072 172.827639,149.760495 161.938289,152.665478 C151.048939,155.569716 145.388382,144.254124 145.388382,130.081915 C145.388382,121.406404 149.324122,113.13643 162.046229,109.742571 C174.5532,106.406752 178.48894,112.578352 178.48894,121.253863" id="Fill-34" fill="#000000"></path>
                    <path d="M66.7650115,211.129075 C67.680646,213.14783 68.8672486,220.483209 68.8672486,223.17761 C68.8672486,224.094347 68.2732029,224.898723 67.1424316,225.254405 C63.9615324,226.264155 60.1337338,227.339385 56.4146202,228.331276 C51.9935202,229.510681 47.789046,230.523407 44.8232837,231.207239 C43.6381698,231.469908 42.990526,231.42675 42.9369278,230.147634 C42.8289872,227.751619 42.7210466,225.086238 42.7210466,222.283941 C42.7210466,212.530967 43.3143479,201.271927 45.0935075,191.421475 C45.2543019,190.515901 45.740407,189.846951 46.5488452,189.578329 C47.8426441,189.12517 49.9992238,188.495658 52.4796254,187.834149 C55.3903007,187.058048 58.4081723,186.360823 60.0801357,186.022999 C60.8885739,185.860785 61.1044552,186.12643 61.1044552,186.55801 C61.1044552,187.904839 56.252337,206.281236 56.252337,213.340553 C56.252337,215.927059 56.8992365,216.401053 58.6240536,215.940453 C60.7277795,215.379398 63.1523498,213.385943 64.6091763,211.865738 C65.3089294,211.140981 65.6863495,210.877568 66.009427,210.791252 C66.3339933,210.70568 66.6027283,210.741397 66.7650115,211.129075" id="Fill-36" fill="#000000"></path>
                    <path d="M81.3203982,196.631395 C81.3203982,204.445234 82.4526583,208.292252 84.285416,207.803376 C85.9022925,207.372539 87.2504339,202.863268 87.2504339,195.04943 C87.2504339,191.169671 86.1725163,189.948596 84.285416,190.45161 C82.3983158,190.954624 81.3203982,192.751636 81.3203982,196.631395 M100.835323,190.186709 C100.835323,204.358917 95.1747662,218.694085 84.285416,221.598324 C73.3953215,224.503306 67.7347652,213.18697 67.7347652,199.014761 C67.7347652,190.33925 71.6705044,182.069276 84.3933567,178.675417 C96.9003277,175.340342 100.835323,181.511198 100.835323,190.186709" id="Fill-38" fill="#000000"></path>
                    <path d="M102.182273,197.641442 C102.182273,185.732799 108.220249,172.266001 119.756499,169.189874 C128.436416,166.874222 132.425009,171.522641 132.425009,177.234385 C132.425009,179.067113 131.99399,180.367063 131.077612,181.797232 C129.083315,184.970092 123.853777,190.244303 121.373375,190.905067 C120.72722,191.078443 120.510595,190.650583 120.510595,189.788167 C120.510595,188.819343 120.61928,187.389919 120.61928,186.095922 C120.61928,183.45584 120.133919,181.266685 118.678581,181.655852 C117.115303,182.07255 116.360463,184.69775 116.360463,190.249511 C116.360463,197.147357 118.193221,197.789519 120.835161,197.084852 C123.960973,196.251456 126.494973,193.419395 129.028228,190.211562 C129.352794,189.801561 129.621529,189.622231 129.945351,189.535171 C131.347091,189.161631 132.586547,192.118701 132.586547,196.213506 C132.586547,202.572621 128.058996,209.814987 118.785777,212.288389 C108.32819,215.078036 102.182273,210.411759 102.182273,197.641442" id="Fill-40" fill="#000000"></path>
                    <path d="M150.645092,184.230155 C151.130453,183.99353 151.615813,183.648265 152.100429,183.356576 C152.640133,182.943599 152.909612,182.548479 152.909612,181.793958 C152.909612,179.800502 152.209115,176.75414 151.507873,175.270396 C151.345589,174.936293 151.184795,174.818725 150.969658,174.876021 C150.699434,174.947455 150.483553,175.166221 150.267672,175.600778 C148.705138,178.443256 148.111837,182.372871 148.111837,184.79865 C148.111837,185.283806 148.327718,185.332917 148.597197,185.261483 C149.028215,185.146147 149.783055,184.729449 150.645092,184.230155 M136.574843,206.735586 C135.443327,206.983373 134.849281,206.926077 134.742085,205.984785 C134.526948,203.887155 134.418263,201.599035 134.418263,199.228319 C134.365409,186.039816 137.868641,169.85555 149.729457,161.35788 C150.267672,160.997733 150.699434,160.720927 151.07611,160.620473 C151.454274,160.519274 151.777352,160.541598 152.262713,160.682233 C162.881839,163.506853 167.194998,175.181848 167.194998,190.054258 C167.194998,192.155609 167.087802,194.394618 166.926263,196.647022 C166.818323,198.022126 166.117081,198.639733 164.985565,199.050478 C163.314346,199.656923 161.373648,200.229139 159.486547,200.732898 C157.114086,201.364642 154.795968,201.875842 153.287032,202.170507 C152.531448,202.318584 152.047576,202.124373 152.047576,201.369107 C152.047576,200.291644 152.909612,197.528785 152.909612,194.187757 C152.909612,192.733033 152.262713,192.312615 151.130453,192.614721 C149.297695,193.103597 147.841613,194.192966 147.841613,196.672321 C147.841613,199.257339 148.219033,201.151084 148.219033,202.605808 C148.219033,203.145284 148.003896,203.526265 147.194713,203.795631 C145.685777,204.305342 143.58354,204.919972 141.31902,205.524185 C139.647801,205.969903 138.138121,206.372463 136.574843,206.735586" id="Fill-42" fill="#000000"></path>
                    <path d="M193.502218,177.326058 C194.417852,179.344813 195.604455,186.679448 195.604455,189.373849 C195.604455,190.290586 195.011154,191.095707 193.879638,191.451388 C190.698739,192.461138 186.871685,193.536368 183.152571,194.528259 C178.730727,195.707664 174.526997,196.72039 171.56049,197.404222 C170.376121,197.666891 169.728477,197.622989 169.674134,196.344618 C169.566194,193.948602 169.458997,191.283221 169.458997,188.480924 C169.458997,178.727207 170.051554,167.46891 171.830714,157.618459 C171.992253,156.71214 172.477613,156.043934 173.286052,155.774568 C174.579851,155.321409 176.73643,154.692641 179.216832,154.031132 C182.127507,153.254287 185.146123,152.557062 186.817342,152.219983 C187.62578,152.057768 187.841662,152.323413 187.841662,152.754994 C187.841662,154.101822 182.989544,172.478219 182.989544,179.537536 C182.989544,182.124042 183.636443,182.597292 185.36126,182.137436 C187.464986,181.576382 189.889556,179.582926 191.346383,178.061977 C192.04688,177.33722 192.423556,177.074551 192.747378,176.988235 C193.0712,176.901919 193.339935,176.937636 193.502218,177.326058" id="Fill-44" fill="#000000"></path>
                    <path d="M198.892699,190.11468 C197.706097,190.377348 197.059197,190.33419 197.005599,189.054331 C196.897659,186.82053 196.84406,184.356801 196.84406,181.769551 C196.84406,172.178048 197.652499,160.21434 199.538854,150.173398 C199.701138,149.430038 200.240096,148.58548 200.994937,148.330252 C203.151516,147.592845 207.787009,146.249737 212.585529,144.969878 C217.490501,143.660998 222.504902,142.431738 225.253294,141.914586 C226.062477,141.752371 226.277613,142.018016 226.277613,142.448853 C226.277613,143.149799 224.607139,149.630946 223.31334,152.992809 C223.097459,153.48243 222.774381,153.730216 222.396217,153.830671 C221.9116,153.960145 221.426984,153.928148 220.456263,153.809092 C218.892984,153.633483 216.843601,153.640924 214.471885,154.273413 C213.016547,154.661835 211.992972,155.257862 211.290985,156.146323 C210.698428,156.89638 210.428949,157.72308 210.428949,158.692647 C210.428949,159.716535 210.91431,160.125792 211.830689,159.881726 C213.663446,159.392849 215.981565,157.966402 218.569163,157.276617 C220.563459,156.743838 221.9116,156.654546 221.9116,157.570538 C221.9116,158.863791 220.509861,165.003395 219.701423,167.644221 C219.485541,168.348143 219.26966,168.620486 218.838642,168.736566 C218.138144,168.923336 215.874368,168.718707 213.717789,169.2939 C211.129447,169.983685 210.321008,171.654198 210.321008,172.948196 C210.321008,174.78018 211.346072,175.315191 213.717789,174.682703 C218.191742,173.489159 220.888025,170.830475 222.396961,169.403283 C222.882322,168.951612 223.043861,168.746239 223.366938,168.659923 C223.636418,168.587745 223.852299,168.69192 223.960239,168.986585 C224.822276,171.073797 226.116075,178.541627 226.116075,181.236028 C226.116075,182.152765 225.522773,182.957885 224.391258,183.312823 C220.724998,184.452791 216.305387,185.740091 212.045825,186.875594 C207.032913,188.212749 202.234393,189.384713 198.892699,190.11468" id="Fill-46" fill="#000000"></path>
                    <path d="M107.303126,262.764326 C106.117268,263.026995 105.470368,262.983837 105.41677,261.703977 C105.30883,259.470177 105.255231,257.006448 105.255231,254.419197 C105.255231,244.827694 106.06367,232.863987 107.95077,222.823045 C108.112309,222.079685 108.651267,221.235126 109.406108,220.979899 C111.562687,220.243235 116.19818,218.899383 120.9967,217.619524 C125.901671,216.310645 130.916073,215.081385 133.664465,214.564232 C134.472903,214.402017 134.689529,214.667663 134.689529,215.098499 C134.689529,215.799445 133.017566,222.281337 131.724511,225.642456 C131.50863,226.13282 131.185552,226.379863 130.808132,226.480317 C130.322771,226.609791 129.837411,226.577795 128.866689,226.458738 C127.303411,226.283873 125.254772,226.29057 122.883055,226.923059 C121.427718,227.311481 120.404143,227.908253 119.702156,228.795969 C119.109599,229.546026 118.84012,230.37347 118.84012,231.342294 C118.84012,232.366925 119.324736,232.775438 120.241115,232.531372 C122.074617,232.042496 124.392736,230.616048 126.980334,229.926263 C128.97463,229.393485 130.322771,229.304192 130.322771,230.220185 C130.322771,231.513438 128.921032,237.653041 128.112594,240.293867 C127.896712,240.99779 127.680831,241.270132 127.249813,241.386212 C126.549315,241.572982 124.284795,241.368354 122.12896,241.943546 C119.540618,242.633331 118.732924,244.303845 118.732924,245.597842 C118.732924,247.429827 119.756499,247.964837 122.12896,247.332349 C126.602913,246.138806 129.297708,243.480121 130.808132,242.053674 C131.292748,241.601258 131.455032,241.395886 131.778109,241.309569 C132.047589,241.238135 132.26347,241.341566 132.37141,241.636231 C133.233447,243.723444 134.527246,251.192017 134.527246,253.886419 C134.527246,254.802411 133.933944,255.607532 132.802429,255.963214 C129.136169,257.102437 124.716558,258.388993 120.457741,259.52524 C115.444084,260.862396 110.645564,262.03436 107.303126,262.764326" id="Fill-48" fill="#000000"></path>
                    <path d="M143.85302,253.016189 C142.936641,253.206679 142.236143,252.962613 142.07386,251.605367 C141.912321,250.354528 141.857979,248.159421 141.857979,245.68081 C141.857979,235.819941 143.044582,228.766577 143.044582,226.988168 C143.044582,226.180815 142.8287,225.645804 141.750783,225.933028 C139.055244,226.651833 137.113801,228.300768 135.874345,228.63115 C135.443327,228.746486 135.119505,228.563437 135.119505,227.86249 C135.119505,225.97693 135.927943,218.809719 136.521244,215.903992 C136.736381,215.306476 137.113801,214.775186 137.922984,214.29003 C139.702144,213.22224 144.392723,211.109728 150.807375,209.399033 C156.413589,207.903383 160.888287,207.410786 162.93767,207.888501 C164.014844,208.300735 164.122784,208.919086 164.068442,210.335116 C163.961245,213.757995 163.530227,218.345398 163.099209,220.832194 C162.93767,221.467659 162.721045,221.740745 162.343625,221.841199 C161.481588,222.071127 159.756027,221.291306 157.329968,221.938677 C156.521529,222.154467 156.144109,222.686502 155.928973,223.767685 C155.820287,224.389012 155.713091,225.226873 155.713091,226.250017 C155.713091,237.350563 158.354287,245.860883 158.354287,247.854338 C158.354287,248.60886 157.976867,249.088063 157.00689,249.507738 C155.820287,249.985452 153.125493,250.812152 150.483553,251.516819 C148.381316,252.077129 145.686522,252.688783 143.85302,253.016189" id="Fill-50" fill="#000000"></path>
                    <path d="M21.2668382,333.932386 C20.2961168,334.137015 20.0266374,333.886252 19.7028155,333.055832 C18.8943773,331.008801 18.3561629,324.686148 18.3561629,317.0881 C18.3561629,309.760161 18.9487198,301.302673 20.5119981,294.311814 C20.6735369,293.56771 21.3204364,293.126456 21.9137377,292.914386 C25.0402943,291.75656 28.868093,290.627754 32.6958916,289.606843 C36.4157496,288.614952 39.5959043,287.820249 42.4529815,287.381228 C43.3693604,287.245056 43.5308992,287.632735 43.5308992,288.17221 C43.5308992,290.919443 42.3450409,298.618689 40.9440458,301.79527 C40.782507,302.161369 40.4579406,302.409156 40.1892057,302.48059 C39.8110412,302.581788 39.4887081,302.506634 39.002603,302.419573 C37.6552059,302.187413 36.1455257,302.050498 34.4743068,302.496216 C33.8274073,302.668848 33.1805079,303.003695 32.6958916,303.618325 C32.2097865,304.231467 31.8874534,305.073049 31.8874534,306.258407 C31.8874534,307.658811 32.7494897,307.806888 33.6658686,307.562078 C35.3370875,307.116359 36.7924252,305.757625 39.9725799,304.909346 C41.5909452,304.47851 42.2378447,304.521668 42.2378447,305.329765 C42.2378447,308.724368 41.697397,314.472573 40.9440458,317.745144 C40.8353607,318.205744 40.5666257,318.385073 40.2428038,318.471389 C39.7581875,318.600863 38.0862241,318.669321 36.4693477,319.100157 C34.4743068,319.632192 33.2348504,320.610689 33.2348504,322.658464 C33.2348504,325.136331 34.9604119,328.232548 34.9604119,329.14854 C34.9604119,329.849487 34.4743068,330.302646 33.5035854,330.668745 C32.8038322,330.909835 30.1618919,331.667333 27.5199515,332.372 C24.8787556,333.077411 22.2375596,333.727758 21.2668382,333.932386" id="Fill-52" fill="#000000"></path>
                    <path d="M59.8115496,302.582681 C60.9430653,302.280575 63.0989005,297.340467 63.0989005,293.407132 C63.0989005,291.359357 62.2904623,290.819882 61.2668872,291.093712 C60.8351246,291.209048 60.3505084,291.499249 59.9730883,291.976964 C59.1639057,293.001595 58.6249469,294.923617 58.6249469,298.587586 C58.6249469,302.090828 58.8951707,302.826747 59.8115496,302.582681 M48.4360943,285.731697 C50.4854778,284.862584 57.6557143,282.734446 60.0802845,282.087819 C70.1619409,279.398626 77.4937162,280.138266 77.4937162,288.544411 C77.4937162,293.286587 75.5522734,296.875402 72.6408536,300.61527 C72.3713742,300.956813 72.2098355,301.323657 72.2098355,301.593022 C72.2098355,301.861644 72.3185205,302.048414 72.5872555,302.19277 C77.6009124,305.219786 79.0019075,316.539844 79.0019075,317.240046 C79.0019075,318.048887 78.5172913,318.609197 77.708853,318.877819 C76.4157985,319.277403 73.9889951,319.978349 71.562936,320.624976 C69.5678951,321.15701 67.574343,321.634725 66.2262016,321.941296 C64.9867452,322.218103 64.5549826,322.009754 64.4477864,321.284252 C63.5842612,313.754662 62.8301655,309.69855 60.9430653,310.201564 C59.8644032,310.489532 59.2718463,312.049175 59.2718463,314.150525 C59.2718463,317.491553 60.2954214,321.852003 60.2954214,322.55295 C60.2954214,323.146001 59.9194902,323.51582 59.2718463,323.742772 C57.708568,324.267366 55.4983902,324.909528 53.1802718,325.528622 C51.3475141,326.016755 49.4611582,326.466938 47.7355968,326.818899 C46.9807566,326.966976 46.2795147,326.991531 46.1723184,325.943088 C45.6862133,321.383962 45.201597,315.693797 45.201597,309.173212 C45.201597,302.545476 45.6862133,295.087319 47.0879529,287.222882 C47.2502361,286.425202 47.6812542,286.041989 48.4360943,285.731697" id="Fill-54" fill="#000000"></path>
                    <path d="M95.8220378,295.294925 C96.3066541,295.057555 96.7927592,294.713035 97.2773755,294.421346 C97.8170787,294.008368 98.0865581,293.612505 98.0865581,292.858727 C98.0865581,290.865272 97.3853161,287.818166 96.6840742,286.335166 C96.5225354,286.001063 96.3617411,285.88275 96.1458598,285.940047 C95.8756359,286.011481 95.6597546,286.230247 95.4446178,286.665548 C93.8813395,289.508026 93.2887825,293.43764 93.2887825,295.862676 C93.2887825,296.347832 93.5039194,296.397687 93.7733988,296.326253 C94.204417,296.210917 94.9592571,295.794218 95.8220378,295.294925 M81.7517885,317.800356 C80.6195284,318.048143 80.026227,317.990847 79.9190308,317.048811 C79.7031495,314.951181 79.5952089,312.663061 79.5952089,310.292345 C79.5416108,297.104586 83.0455875,280.92032 94.9064034,272.421906 C95.4446178,272.062503 95.8756359,271.784952 96.253056,271.685242 C96.6312205,271.584044 96.954298,271.605623 97.4396587,271.747003 C108.058785,274.571623 112.3712,286.246617 112.3712,301.119028 C112.3712,303.220378 112.264004,305.458644 112.102465,307.711047 C111.994524,309.086896 111.294027,309.704502 110.161767,310.115248 C108.491292,310.721693 106.549849,311.293165 104.662749,311.796923 C102.290288,312.429412 99.972914,312.939867 98.4632338,313.234533 C97.7083937,313.383354 97.2237774,313.188398 97.2237774,312.433877 C97.2237774,311.35567 98.0865581,308.593555 98.0865581,305.252527 C98.0865581,303.797803 97.4396587,303.37664 96.3066541,303.679491 C94.4738964,304.168367 93.0185587,305.256992 93.0185587,307.736347 C93.0185587,310.322109 93.3952343,312.215854 93.3952343,313.670578 C93.3952343,314.210053 93.1808419,314.591035 92.3716593,314.859656 C90.861979,315.370112 88.7597419,315.984742 86.4952216,316.588954 C84.8247471,317.034673 83.3150669,317.437233 81.7517885,317.800356" id="Fill-56" fill="#000000"></path>
                    <path d="M124.662438,306.51609 C122.34432,307.134441 119.971859,307.767674 117.816024,308.0735 C116.953987,308.195533 116.576567,307.972302 116.306344,306.912698 C115.821727,304.994397 115.228426,298.578731 115.228426,291.250049 C115.228426,279.01772 116.52148,271.020832 117.169124,268.585379 C117.438604,267.543633 118.031905,267.007878 118.732403,266.767532 C120.780297,266.11272 122.937621,265.483952 125.094201,264.90876 C127.357977,264.304547 129.622497,263.754654 131.670392,263.316377 C132.371634,263.183926 132.748309,263.405669 132.694711,264.120753 C132.694711,265.575477 129.891232,273.70556 129.891232,284.160224 C129.891232,295.207195 132.587515,302.086438 132.587515,303.163157 C132.587515,303.809783 132.210095,304.180347 131.455255,304.435575 C129.244333,305.239952 126.980557,305.898484 124.662438,306.51609" id="Fill-58" fill="#000000"></path>
                    <path d="M134.041811,285.586002 C134.041811,273.676614 140.079787,260.211304 151.615292,257.134434 C160.295953,254.819525 164.284546,259.4672 164.284546,265.178944 C164.284546,267.011673 163.852784,268.312367 162.937149,269.741791 C160.942853,272.914651 155.71257,278.189606 153.232913,278.850371 C152.586758,279.023003 152.370132,278.595143 152.370132,277.732726 C152.370132,276.763902 152.478817,275.334478 152.478817,274.040481 C152.478817,271.400399 151.992712,269.211989 150.537375,269.600411 C148.974841,270.01711 148.22,272.643053 148.22,278.194071 C148.22,285.091917 150.052758,285.734078 152.694699,285.030156 C155.820511,284.196015 158.354511,281.364699 160.887766,278.156121 C161.212332,277.74612 161.481067,277.566791 161.804889,277.479731 C163.206629,277.10619 164.446085,280.06326 164.446085,284.158066 C164.446085,290.51718 159.918533,297.759546 150.645315,300.233693 C140.186983,303.022595 134.041811,298.357062 134.041811,285.586002" id="Fill-60" fill="#000000"></path>
                    <path d="M169.782596,294.212923 C168.92056,294.389275 168.54314,294.111724 168.27366,293.05212 C167.787555,291.133819 167.194998,284.718153 167.194998,277.390215 C167.194998,265.157142 168.488797,257.160254 169.135697,254.725545 C169.405176,253.683055 169.998477,253.1473 170.698975,252.906954 C172.424536,252.339203 174.310892,251.781869 176.144394,251.292248 C178.139435,250.760214 180.025791,250.311519 181.804206,249.94542 C182.505448,249.811481 182.828526,250.04885 182.828526,250.696221 C182.828526,251.773684 181.642668,255.215166 181.642668,262.758894 C181.642668,264.214362 181.858549,264.964419 182.34391,265.320845 C182.774928,265.637089 183.313887,265.600628 184.068727,265.398232 C185.200987,265.096869 186.009425,264.611713 186.548384,263.92937 C187.141685,263.178569 187.356822,262.366751 187.356822,261.180649 C187.356822,255.845422 185.686348,251.010977 185.686348,249.933514 C185.686348,249.286887 186.009425,248.876886 186.709923,248.63654 C188.435484,248.068045 190.376182,247.496573 192.262538,246.993558 C194.257579,246.461524 196.306218,245.968927 198.246172,245.559669 C198.947414,245.427219 199.540716,245.645241 199.810195,246.543375 C200.457094,248.633564 201.750893,255.939923 201.750893,268.172996 C201.750893,275.501678 201.157592,282.233589 200.672231,284.410838 C200.402752,285.614054 200.026076,286.093258 199.163295,286.376761 C197.168255,287.016691 195.12036,287.670014 193.018123,288.231069 C190.968739,288.777241 188.920845,289.269838 186.925804,289.640402 C186.170964,289.788479 185.793544,289.673143 185.793544,289.026516 C185.793544,287.625368 187.411909,280.943312 187.411909,277.387238 C187.411909,274.962203 186.656325,274.355014 184.985106,274.799988 C182.828526,275.375925 181.750608,277.064297 181.750608,280.08164 C181.750608,283.907824 183.367485,288.326314 183.367485,289.673143 C183.367485,290.266194 183.044407,290.567556 182.235969,290.891241 C180.294526,291.624184 178.138691,292.199377 175.982111,292.774569 C173.879874,293.335624 171.723294,293.802921 169.782596,294.212923" id="Fill-62" fill="#000000"></path>
                    <path d="M206.978794,284.399304 C205.792935,284.662717 205.146036,284.618815 205.092438,283.3397 C204.984497,281.105899 204.930155,278.641426 204.930155,276.054176 C204.930155,266.462673 205.739337,254.499709 207.626438,244.458767 C207.787976,243.714663 208.326935,242.870849 209.081775,242.615621 C211.238355,241.878214 215.873847,240.535106 220.672367,239.254502 C225.577339,237.946367 230.591741,236.717107 233.340133,236.199955 C234.148571,236.03774 234.365197,236.302641 234.365197,236.734222 C234.365197,237.435168 232.693233,243.915571 231.400179,247.278178 C231.184297,247.767055 230.86122,248.015585 230.4838,248.115295 C229.998439,248.244769 229.513079,248.212773 228.542357,248.09446 C226.979079,247.919596 224.93044,247.926293 222.558723,248.558781 C221.103386,248.94646 220.079066,249.543231 219.377824,250.430948 C218.785267,251.181749 218.515788,252.008448 218.515788,252.978016 C218.515788,254.001904 219.000404,254.411161 219.916783,254.167095 C221.750285,253.678218 224.067659,252.251771 226.656001,251.561242 C228.650298,251.029207 229.998439,250.939171 229.998439,251.855163 C229.998439,253.148416 228.5967,259.288764 227.787517,261.92959 C227.57238,262.633512 227.356499,262.905855 226.925481,263.021191 C226.224983,263.207961 223.960463,263.003332 221.803883,263.579269 C219.216285,264.269053 218.408592,265.938823 218.408592,267.23282 C218.408592,269.065549 219.432167,269.599816 221.803883,268.968071 C226.278581,267.774528 228.973375,265.1151 230.4838,263.688652 C230.968416,263.236237 231.130699,263.031608 231.453777,262.945292 C231.723256,262.873114 231.939138,262.977289 232.046334,263.271954 C232.909115,265.359166 234.202913,272.82774 234.202913,275.521397 C234.202913,276.438134 233.609612,277.243254 232.478096,277.598192 C228.811837,278.73816 224.392225,280.024716 220.133409,281.160219 C215.119752,282.498118 210.321232,283.670082 206.978794,284.399304" id="Fill-64" fill="#000000"></path>
                    <path d="M236.574556,270.686431 C236.574556,266.644457 239.378035,263.472341 243.797646,262.292936 C248.434627,261.056235 251.02148,262.791486 251.02148,266.832716 C251.02148,270.87469 248.434627,273.720144 243.797646,274.956845 C239.378035,276.135506 236.574556,274.728405 236.574556,270.686431 M251.345302,231.558456 C252.154485,231.450561 252.42322,231.864283 252.42322,232.457334 C252.42322,234.019953 250.051504,239.986924 248.865645,257.007564 C248.75696,258.707098 248.056463,259.324704 244.714769,260.539826 C243.636107,260.93569 242.719728,261.233332 241.964888,261.43424 C240.347267,261.86582 239.484486,261.772807 239.162153,260.889555 C237.706071,256.912318 236.736094,253.183612 236.305076,247.802995 C236.034852,244.479825 235.927656,241.975171 235.927656,238.203306 C235.927656,236.856478 236.305076,235.732136 238.24503,235.052769 C239.916249,234.44558 242.342308,233.74389 244.82271,233.082381 C247.248024,232.435755 249.727682,231.828566 251.345302,231.558456" id="Fill-66" fill="#000000"></path>
                </g>
            </g>
        </g>
    </g>
</svg>