<?xml version="1.0" encoding="UTF-8"?>
<svg width="257px" height="329px" viewBox="0 0 257 329" version="1.1" xmlns="http://www.w3.org/2000/svg" xmlns:xlink="http://www.w3.org/1999/xlink">
    <title>slogan2</title>
    <defs>
        <polygon id="path-1" points="0 0 33.0895187 0 33.0895187 44.2983709 0 44.2983709"></polygon>
        <polygon id="path-3" points="0 0 32.2269513 0 32.2269513 46.6537636 0 46.6537636"></polygon>
    </defs>
    <g id="Page-1" stroke="none" stroke-width="1" fill="none" fill-rule="evenodd">
        <g id="desktop-home" transform="translate(-1051.000000, -318.000000)">
            <g id="Banner" transform="translate(-13.000000, 189.242933)">
                <g id="Group-67" transform="translate(1064.000000, 128.757067)">
                    <path d="M65.2333462,63.9641511 C66.1494195,65.9817764 67.3356265,73.3137956 67.3356265,76.0059458 C67.3356265,76.9221693 66.7432671,77.7260959 65.6113846,78.0815788 C62.4315462,79.0907633 58.6050241,80.1653923 54.8871508,81.157472 C50.4675252,82.3354736 46.2637089,83.3476329 43.2996799,84.0310821 C42.1149612,84.2936039 41.4675333,84.2497263 41.4139531,82.9720705 C41.3067926,80.5773954 41.1981438,77.914249 41.1981438,75.1120329 C41.1981438,65.3645155 41.7912473,54.1125174 43.5698136,44.2675768 C43.7305543,43.3617649 44.2164973,42.6939331 45.0246659,42.4247181 C46.3180334,41.9725559 48.4738938,41.3433959 50.9534682,40.6822573 C53.8631729,39.9058472 56.8800381,39.2090116 58.5514439,38.872121 C59.3596125,38.709997 59.5754218,38.9754936 59.5754218,39.4068326 C59.5754218,40.7529077 54.7249218,59.1190244 54.7249218,66.1743916 C54.7249218,68.7594508 55.3716055,69.2324363 57.0958474,68.7728372 C59.1981276,68.2128402 61.6226334,66.2190129 63.0782299,64.7004022 C63.7784939,63.9760501 64.1565322,63.7127846 64.479502,63.6272605 C64.8024718,63.5409927 65.0718613,63.5766897 65.2333462,63.9641511" id="Fill-1" fill="#000000"></path>
                    <path d="M70.62203,76.7455434 C69.4365672,77.0080653 68.7898835,76.9649314 68.7363032,75.6857882 C68.6283986,73.453237 68.5740742,70.9908864 68.5740742,68.4050835 C68.5740742,58.8189463 69.3822428,46.8619321 71.2694579,36.8266074 C71.4309428,36.0836631 71.9697218,35.2395774 72.7243102,34.9844924 C74.8801707,34.2482414 79.5141172,32.905141 84.311037,31.6259978 C89.2143731,30.3178508 94.226358,29.0892783 96.9745778,28.5724152 C97.7827464,28.4110349 97.9992998,28.6757878 97.9992998,29.1063831 C97.9992998,29.8069372 96.327894,36.2844589 95.0345266,39.6444409 C94.8194615,40.1337875 94.4957475,40.3814356 94.1191975,40.4818335 C93.6339987,40.6112351 93.1487998,40.5785129 92.1784022,40.4602665 C90.6156452,40.2854998 88.5676894,40.292193 86.1967638,40.9243278 C84.7419114,41.3125329 83.7179335,41.9089706 83.0169254,42.7961902 C82.4245661,43.5458277 82.1551765,44.3728086 82.1551765,45.3410903 C82.1551765,46.3651485 82.6396312,46.7734332 83.5557045,46.5295036 C85.3885951,46.0409006 87.7051963,44.6152509 90.2926754,43.9258522 C92.2863068,43.3933716 93.6339987,43.3041291 93.6339987,44.2196089 C93.6339987,45.5121385 92.2319824,51.6483075 91.4238138,54.2876559 C91.2087487,54.9911846 90.9929394,55.2633744 90.5620649,55.3793897 C89.861801,55.5660554 87.5980359,55.3615412 85.4421754,55.936412 C82.8554405,56.6258107 82.048016,58.29539 82.048016,59.5886633 C82.048016,61.4196229 83.0712498,61.9543345 85.4421754,61.3221998 C89.9153812,60.1293244 92.6092766,57.4721275 94.1191975,56.0464778 C94.6036522,55.5943155 94.7651371,55.3890577 95.088851,55.3035335 C95.3582405,55.2313958 95.5740498,55.3347684 95.6812103,55.6292689 C96.5437033,57.7153134 97.8370708,65.179709 97.8370708,67.872603 C97.8370708,68.7880828 97.2439673,69.5927531 96.1128289,69.9482359 C92.4477917,71.0868221 88.0296545,72.3734022 83.7722579,73.50827 C78.760273,74.8446771 73.9633532,76.0159856 70.62203,76.7455434" id="Fill-3" fill="#000000"></path>
                    <path d="M115.835417,45.9471216 C116.320616,45.7098851 116.805815,45.3655576 117.29027,45.0740319 C117.829793,44.6612852 118.099183,44.2656432 118.099183,43.5122873 C118.099183,41.5199474 117.398919,38.4745454 116.69791,36.9923754 C116.535681,36.6584595 116.374941,36.5402131 116.159131,36.5974771 C115.888998,36.6688712 115.673933,36.8875154 115.458123,37.3218291 C113.895366,40.1634607 113.303007,44.0908765 113.303007,46.5145554 C113.303007,46.9994399 113.518816,47.049267 113.788206,46.977873 C114.21908,46.8626014 114.973669,46.4461361 115.835417,45.9471216 M101.76986,68.4392188 C100.638722,68.6876105 100.044874,68.6303466 99.9377138,67.6888377 C99.7226487,65.5923814 99.6139999,63.3055411 99.6139999,60.9361514 C99.5611638,47.7557706 103.063228,31.5805585 114.920088,23.0868988 C115.458123,22.7269539 115.888998,22.450302 116.266292,22.3506478 C116.64433,22.2495062 116.9673,22.2710732 117.452499,22.4123739 C128.068084,25.2354132 132.379805,36.9038765 132.379805,51.7672232 C132.379805,53.8673978 132.272644,56.1051547 132.111159,58.3562981 C132.003255,59.731377 131.302247,60.348638 130.171108,60.7591537 C128.500447,61.3652594 126.560395,61.9364117 124.673924,62.4398884 C122.302255,63.0720231 119.984909,63.582193 118.476477,63.8766934 C117.721144,64.025431 117.237434,63.8305848 117.237434,63.0764852 C117.237434,61.9988815 118.099183,59.2383119 118.099183,55.8991532 C118.099183,54.4452433 117.452499,54.024316 116.320616,54.3269969 C114.48847,54.8155999 113.032873,55.9036153 113.032873,58.3815834 C113.032873,60.9658989 113.410167,62.8585847 113.410167,64.3124945 C113.410167,64.8516683 113.195102,65.2324365 112.386189,65.5009078 C110.877757,66.0110777 108.776221,66.625364 106.512456,67.2284949 C104.841794,67.6747076 103.332617,68.0770428 101.76986,68.4392188" id="Fill-5" fill="#000000"></path>
                    <path d="M150.91827,55.3340248 C149.247608,55.8865849 147.038168,56.5298749 144.612918,57.1768834 C142.241992,57.8090181 139.762418,58.4166111 137.606557,58.8829035 C137.122102,59.0123052 136.691228,58.7512707 136.582579,58.2403571 C135.558601,53.1282464 135.074147,47.3341739 135.074147,41.085708 C135.074147,34.3545887 135.666506,27.0329812 136.744064,19.1521204 C136.852713,18.2068931 137.445816,17.7807599 137.930271,17.6506145 C139.439448,17.1411883 142.187668,16.3536228 144.883051,15.6352203 C147.038168,15.0610932 149.139704,14.5538981 150.594556,14.2742714 C151.672858,14.0407534 152.373122,14.1768483 152.857577,14.9629264 C153.989459,16.7611638 155.660865,20.9481267 156.846328,24.5096482 C156.953489,24.8576941 157.168554,25.0153559 157.438687,24.9439619 C157.708077,24.8718242 157.869562,24.6665663 157.977466,24.3148019 C159.271578,19.8229269 160.941495,15.1771085 161.965473,12.8575459 C162.342768,12.0023048 163.150936,11.1403706 163.905525,10.8860293 C165.684091,10.2501761 167.677722,9.61060452 169.725678,9.0647376 C171.665729,8.54713081 173.60578,8.13810246 175.492251,7.79600602 C176.461905,7.64503737 177.163657,7.94325622 177.324398,8.59993265 C178.99506,14.6714008 179.803228,21.564644 179.803228,28.8349371 C179.803228,34.3285597 179.372354,40.2594708 178.510605,46.6299014 C178.4027,47.5208395 177.863177,48.0957103 177.217237,48.3210477 C175.545832,48.9278971 172.204508,49.9266699 168.971834,50.7893479 C166.492259,51.4504865 164.229239,51.9457826 162.720062,52.1874812 C162.019798,52.2663121 161.803989,52.0543611 161.803989,51.5151873 C161.803989,49.2536324 164.822342,42.1476944 164.822342,33.9619215 C164.822342,32.0223834 164.714437,30.1668821 164.283563,28.4504504 C164.229239,28.1961091 164.067754,28.1306646 163.851944,28.1879286 C163.636879,28.2451925 163.47465,28.4511941 163.42107,28.6795063 C161.911149,33.7142735 159.971842,39.4019986 157.977466,44.4040435 C157.708077,45.122446 157.223622,45.5203191 156.738423,45.6497208 C156.253225,45.7783788 155.76877,45.5850199 155.498636,45.0644384 C153.234871,41.1980049 151.402725,35.4396294 150.433071,32.2514393 C150.325166,31.9569389 150.109357,31.8528226 149.893548,31.9100866 C149.678483,31.9673505 149.516998,32.1726084 149.462673,32.4016643 C148.977475,34.9547449 148.923894,37.3390083 148.923894,39.3856375 C148.923894,46.4410047 151.942248,52.7987927 151.942248,54.2534462 C151.942248,54.7918763 151.564209,55.1079436 150.91827,55.3340248" id="Fill-7" fill="#000000"></path>
                    <g id="Group-11" transform="translate(182.227808, 0.000000)">
                        <mask id="mask-2" fill="white">
                            <use xlink:href="#path-1"></use>
                        </mask>
                        <g id="Clip-10"></g>
                        <path d="M19.5084164,23.9560469 C19.5084164,16.1473238 18.1607245,12.3597213 16.5443873,12.7903166 C14.7122408,13.2796632 13.5803582,17.7284043 13.5803582,25.5371274 C13.5803582,29.4154598 14.6579163,30.635108 16.5443873,30.132375 C18.4308582,29.629642 19.5084164,27.8343793 19.5084164,23.9560469 M16.6522919,43.3521713 C3.93368258,46.7433882 0,40.5759843 0,31.9045833 C0,17.6867578 5.65866862,3.36109752 16.5443873,0.456996222 C27.4308501,-2.44487401 33.0895187,8.86364438 33.0895187,23.0814699 C33.0895187,31.7521273 29.155092,40.0182184 16.6522919,43.3521713" id="Fill-9" fill="#000000" mask="url(#mask-2)"></path>
                    </g>
                    <path d="M99.9651737,97.8883677 C99.9651737,90.4024052 97.3784388,87.8069343 95.6541969,88.2665335 C95.330483,88.353545 95.0082574,88.5461601 94.7388679,88.8875129 C94.0371156,89.7754762 93.767726,92.5940534 93.767726,97.9262958 C93.767726,104.60387 94.3608295,106.922688 95.1697423,107.514664 C95.4919679,107.7519 95.816426,107.773467 96.1386516,107.687943 C97.755733,107.256604 99.9651737,104.67452 99.9651737,97.8883677 M82.9363318,121.656633 C82.0202585,121.847017 81.5893841,121.745876 81.3192504,121.279584 C80.564662,119.919378 79.9723027,116.037327 79.9723027,104.8359 C79.9723027,93.5258944 80.7812155,86.3091469 81.8044492,81.9429551 C82.0738387,80.9545939 82.5582934,80.5559772 83.0442364,80.37303 C85.1457725,79.7051982 87.7325074,78.9087085 90.0498527,78.2899601 C103.467982,74.7120776 113.546276,75.9027219 113.546276,96.7445757 C113.546276,108.323796 110.420762,114.43468 93.9299551,118.832107 C91.9363237,119.363844 84.1217946,121.393368 82.9363318,121.656633" id="Fill-12" fill="#000000"></path>
                    <path d="M117.695098,112.388051 C116.508891,112.650573 115.862208,112.606695 115.807883,111.328296 C115.700723,109.095745 115.646398,106.633394 115.646398,104.047591 C115.646398,94.4614538 116.454567,82.5044395 118.340294,72.4691148 C118.503267,71.7261706 119.042046,70.8820848 119.79589,70.6269999 C121.952495,69.8900052 126.585697,68.5476485 131.383361,67.2685053 C136.285953,65.9603582 141.298682,64.7317858 144.046902,64.2149227 C144.855815,64.0527987 145.07088,64.3182953 145.07088,64.7488906 C145.07088,65.4494446 143.400218,71.9262227 142.106851,75.2869483 C141.891786,75.7755513 141.568072,76.0239431 141.190033,76.1243409 C140.706323,76.2537426 140.221124,76.2210204 139.25147,76.102774 C137.687969,75.9272636 135.640013,75.9339568 133.269088,76.5668352 C131.814235,76.9550403 130.790258,77.5507343 130.089249,78.4386977 C129.496146,79.1883351 129.226756,80.0145724 129.226756,80.9835977 C129.226756,82.0069123 129.711955,82.4159407 130.628773,82.1712673 C132.460919,81.6834081 134.77752,80.2577583 137.364999,79.5683596 C139.358631,79.0358791 140.706323,78.9466366 140.706323,79.8621164 C140.706323,81.154646 139.304306,87.2908149 138.496138,89.9301633 C138.280329,90.6336921 138.065263,90.9058819 137.634389,91.0218972 C136.933381,91.2085628 134.67036,91.0040487 132.514499,91.5789194 C129.927765,92.2683181 129.119596,93.9378975 129.119596,95.2311708 C129.119596,97.0621304 130.143574,97.596842 132.514499,96.9647073 C136.987705,95.7718319 139.682345,93.114635 141.190777,91.6882416 C141.675976,91.236823 141.837461,91.0315651 142.161175,90.9452973 C142.430565,90.8731596 142.64563,90.9772759 142.753534,91.2717763 C143.616027,93.3578209 144.908651,100.822216 144.908651,103.514367 C144.908651,104.43059 144.316291,105.235261 143.184409,105.59 C139.520116,106.72933 135.101979,108.015166 130.843838,109.150777 C125.832597,110.487185 121.035677,111.658493 117.695098,112.388051" id="Fill-14" fill="#000000"></path>
                    <path d="M161.938386,68.9222441 C160.645018,69.2673153 160.159819,70.0429818 160.159819,70.7970813 C160.159819,72.1431564 161.345282,72.6890233 164.254987,72.9359277 C173.417208,73.7242369 177.027176,76.5309151 177.027176,83.8026955 C177.027176,91.1257904 172.015191,98.7106634 161.023057,101.641537 C151.96874,104.055548 145.879197,101.586505 145.879197,93.8848725 C145.879197,90.330788 146.956755,87.7271366 148.411608,86.1014348 C148.681741,85.8136276 148.896806,85.7020744 149.112616,85.6448105 C149.434841,85.5585427 149.704975,85.6485289 149.920784,85.9140255 C152.992718,89.1877397 157.519504,90.6200826 161.023057,89.6860106 C162.800134,89.2115377 163.555467,88.4715682 163.555467,87.5017992 C163.555467,86.4249391 162.584325,86.0910232 158.974357,85.8694042 C152.400359,85.4150109 146.687366,83.4368011 146.687366,75.7887146 C146.687366,68.4656197 152.02232,61.2801071 161.830481,58.663813 C167.54273,57.1407402 172.231745,57.5058909 175.410839,59.0825093 C175.896038,59.3301574 176.111847,59.7570342 176.111847,60.2419188 C176.111847,62.1264239 173.848082,67.3619868 171.908031,70.3025288 C171.692222,70.6297515 171.476412,70.7955939 171.153443,70.881118 C170.884053,70.9525121 170.560339,70.9316888 170.345274,70.8275725 C167.21976,69.0218983 164.202151,68.3183695 161.938386,68.9222441" id="Fill-16" fill="#000000"></path>
                    <g id="Group-20" transform="translate(0.000000, 144.820294)">
                        <mask id="mask-4" fill="white">
                            <use xlink:href="#path-3"></use>
                        </mask>
                        <g id="Clip-19"></g>
                        <path d="M18.7001733,27.2944488 C18.7001733,24.9786046 17.7848442,23.3387728 16.5443129,23.6689702 C15.8440489,23.8556359 14.8193268,24.6134539 14.0111582,25.4753882 C13.2029896,26.3901243 12.880764,27.7153762 12.880764,29.0079058 C12.880764,31.0002457 13.1494094,31.897877 13.5802838,32.2139443 C13.9039977,32.4511808 14.2812919,32.4035848 14.7664907,32.2741831 C16.3292477,31.8577178 18.7001733,30.2022685 18.7001733,27.2944488 M18.1606501,11.3349062 C18.1606501,9.61178131 16.382828,9.54782415 14.9279756,9.93528556 C14.2812919,10.1078212 13.7960931,10.3986031 13.4187989,10.8760508 C12.7185349,11.7632704 12.394821,13.3034481 12.394821,16.2120115 C12.394821,17.2888716 12.6106303,17.931418 13.4187989,17.7157485 C14.9279756,17.3134133 18.1606501,13.8656762 18.1606501,11.3349062 M2.42517559,46.552991 C1.67058722,46.6994975 0.916743014,46.8474914 0.808838365,45.7453459 C0.26931512,39.9639161 -7.44169993e-05,34.3275054 -7.44169993e-05,28.8338828 C-7.44169993e-05,20.8637794 0.592284897,13.5964611 1.56342674,6.87426611 C1.67058722,5.98407168 2.2636907,5.44936007 3.07185931,5.18014504 C5.11981513,4.47215415 9.32288725,3.19003619 13.5267035,2.06929851 C21.0718431,0.0568790155 25.9215989,-0.912890022 28.7241431,1.1404323 C30.0175106,2.0878907 30.7177745,3.67863915 30.7177745,5.99373962 C30.7177745,9.81703918 28.8320478,13.0134098 26.2988931,15.7353076 C25.8144385,16.2953046 25.597885,16.6217836 25.597885,16.9460315 C25.597885,17.1609573 25.7601141,17.3877821 26.0830838,17.5164401 C30.3404804,19.3972269 32.2269513,21.6944788 32.2269513,26.5953822 C32.2269513,34.2977579 26.3524734,40.3870745 11.9096221,44.2386342 C8.89201283,45.0433045 5.55143373,45.8806971 2.42517559,46.552991" id="Fill-18" fill="#000000" mask="url(#mask-4)"></path>
                    </g>
                    <path d="M46.7765909,154.664255 C46.7765909,162.473721 47.9084735,166.319332 49.74062,165.830729 C51.3569572,165.39939 52.7046491,160.893385 52.7046491,153.083918 C52.7046491,149.206329 51.6270909,147.985193 49.74062,148.487926 C47.8541491,148.991403 46.7765909,150.786666 46.7765909,154.664255 M66.2857514,148.223174 C66.2857514,162.387454 60.6263386,176.714601 49.74062,179.617959 C38.8541572,182.520573 33.1962327,171.211311 33.1962327,157.047031 C33.1962327,148.376373 37.1299153,140.110282 49.8485246,136.719065 C62.3513247,133.385112 66.2857514,139.552516 66.2857514,148.223174" id="Fill-21" fill="#000000"></path>
                    <path d="M78.4103643,171.217855 C76.0922748,171.836603 73.7213492,172.468738 71.5654887,172.775138 C70.7037398,172.896359 70.3264457,172.673996 70.056312,171.614984 C69.5711131,169.697757 68.9787538,163.28568 68.9787538,155.960354 C68.9787538,143.734868 70.2721212,135.743198 70.9195491,133.308364 C71.1889387,132.267201 71.781298,131.732489 72.481562,131.491534 C74.5302619,130.837089 76.6861224,130.208673 78.8412387,129.633802 C81.1042597,129.029927 83.3680248,128.480342 85.4159806,128.04231 C86.1162446,127.909933 86.4935388,128.131552 86.4392143,128.846236 C86.4392143,130.300146 83.6366701,138.42568 83.6366701,148.874495 C83.6366701,159.915286 86.3320539,166.790681 86.3320539,167.867541 C86.3320539,168.513806 85.9547597,168.883419 85.2001713,169.139247 C82.9899864,169.943174 80.7269655,170.600594 78.4103643,171.217855" id="Fill-23" fill="#000000"></path>
                    <path d="M103.468726,132.707315 C102.176103,133.051643 101.690904,133.827309 101.690904,134.581409 C101.690904,135.927484 102.876367,136.473351 105.786071,136.720999 C114.948292,137.509308 118.558261,140.315986 118.558261,147.587023 C118.558261,154.910861 113.546276,162.495734 102.554141,165.426609 C93.4998248,167.84062 87.4102818,165.371576 87.4102818,157.669944 C87.4102818,154.115859 88.4878399,151.512208 89.9426923,149.885762 C90.212826,149.598699 90.4278911,149.487146 90.6437004,149.429882 C90.965926,149.343614 91.2360597,149.432856 91.451869,149.699097 C94.5230586,152.972811 99.0505888,154.405154 102.554141,153.471082 C104.331219,152.996609 105.086552,152.256639 105.086552,151.28687 C105.086552,150.21001 104.11541,149.876094 100.505441,149.654475 C93.9314434,149.200082 88.2184504,147.221872 88.2184504,139.573786 C88.2184504,132.249947 93.5534051,125.064434 103.361566,122.448884 C109.073814,120.925811 113.76283,121.290962 116.941924,122.86758 C117.426378,123.115228 117.642932,123.542105 117.642932,124.02699 C117.642932,125.910751 115.379167,131.147058 113.438371,134.0876 C113.223306,134.414823 113.007497,134.579921 112.684527,134.666189 C112.415138,134.737583 112.091424,134.71676 111.876359,134.612644 C108.750845,132.807713 105.732491,132.103441 103.468726,132.707315" id="Fill-25" fill="#000000"></path>
                    <path d="M136.233266,123.97047 C134.939898,124.315541 134.455444,125.090464 134.455444,125.844563 C134.455444,127.190638 135.640906,127.736505 138.549867,127.984153 C147.712088,128.772462 151.322801,131.579884 151.322801,138.850177 C151.322801,146.17476 146.310816,153.758889 135.317937,156.689763 C126.264365,159.103774 120.174077,156.63473 120.174077,148.933098 C120.174077,145.379013 121.251635,142.776106 122.706488,141.148917 C122.976621,140.861853 123.192431,140.7503 123.40824,140.693036 C123.730466,140.606768 124.000599,140.696011 124.216409,140.962251 C127.287598,144.235965 131.815128,145.668308 135.317937,144.734236 C137.095759,144.259763 137.850347,143.519794 137.850347,142.550025 C137.850347,141.473165 136.879949,141.139249 133.269981,140.91763 C126.695239,140.463236 120.982246,138.48577 120.982246,130.837684 C120.982246,123.513101 126.317201,116.327589 136.125361,113.712038 C141.83761,112.188966 146.526625,112.554116 149.705719,114.130735 C150.190918,114.378383 150.407472,114.80526 150.407472,115.290144 C150.407472,117.173906 148.143706,122.410212 146.202911,125.350754 C145.987102,125.677977 145.772037,125.843076 145.448323,125.929344 C145.178933,126.000738 144.855963,125.979914 144.640154,125.875798 C141.515384,124.070867 138.497031,123.366595 136.233266,123.97047" id="Fill-27" fill="#000000"></path>
                    <path d="M172.554417,128.126049 C172.554417,120.317326 171.206725,116.52898 169.590388,116.960319 C167.758241,117.449665 166.626359,121.897663 166.626359,129.706386 C166.626359,133.584718 167.703917,134.80511 169.590388,134.302377 C171.476859,133.799644 172.554417,132.004381 172.554417,128.126049 M169.698293,147.52143 C156.979683,150.91339 153.046001,144.745986 153.046001,136.074585 C153.046001,121.85676 158.704669,107.530356 169.590388,104.626998 C180.476851,101.724384 186.135519,113.032903 186.135519,127.251472 C186.135519,135.921386 182.201093,144.18822 169.698293,147.52143" id="Fill-29" fill="#000000"></path>
                    <path d="M191.200117,140.980843 C190.391949,141.142223 189.90675,140.948865 189.798845,140.223025 C188.990676,134.945816 188.667707,128.461601 188.667707,122.321713 C188.667707,112.951246 189.421551,104.239686 190.337624,101.302118 C190.607014,100.530914 191.092213,99.8630822 191.846801,99.6072535 C193.248073,99.1803767 194.86441,98.6954922 196.427167,98.2782833 C197.990668,97.861818 199.499101,97.5130284 200.631728,97.2653803 C201.169763,97.1211049 201.601381,97.3300812 202.032256,97.8075288 C203.541432,99.5053683 205.966682,103.652172 210.924343,112.886545 C211.085828,113.166172 211.247313,113.230872 211.463122,113.172865 C211.786836,113.086597 212.055481,112.691699 212.055481,112.207558 C212.055481,104.236711 208.929967,97.907183 208.929967,96.1840581 C208.929967,95.5377933 209.307261,95.0060564 209.953945,94.7792316 C211.463122,94.2690617 213.672563,93.6257717 215.882003,93.0367708 C217.71415,92.5481679 219.49346,92.1287279 220.840408,91.8766177 C221.594252,91.7293675 222.079451,91.92347 222.240936,92.7415267 C223.212078,98.245561 223.750113,107.472497 223.750113,116.198187 C223.750113,121.69181 223.534303,126.972738 223.049849,130.925439 C222.88762,132.046177 222.29526,132.635177 221.324863,132.947526 C219.81643,133.457696 217.230439,134.20064 214.911606,134.819389 C213.456753,135.20685 212.056225,135.526636 211.085828,135.677605 C209.846785,135.847166 209.468746,135.731894 209.254425,134.604463 C208.121799,128.551587 206.019518,124.26497 203.325623,120.890114 C203.001909,120.545043 202.733264,120.401511 202.40955,120.487779 C201.924351,120.617181 201.708542,121.32071 201.708542,122.021264 C201.708542,126.760787 203.917982,135.865758 203.917982,136.512023 C203.917982,137.319668 203.541432,137.635735 202.948329,137.847686 C201.493476,138.342982 199.176131,139.014532 196.91311,139.618407 C194.81083,140.179148 192.70855,140.686343 191.200117,140.980843" id="Fill-31" fill="#000000"></path>
                    <path d="M241.910465,95.790201 C240.617842,96.1352722 240.131899,96.9116823 240.131899,97.6650382 C240.131899,99.011857 241.318106,99.5569802 244.228555,99.8046283 C253.390031,100.592938 257,103.399616 257,110.670652 C257,117.994491 251.988759,125.57862 240.994392,128.510238 C231.94082,130.924249 225.851277,128.455205 225.851277,120.753573 C225.851277,117.199489 226.929579,114.595837 228.384431,112.969392 C228.654565,112.682328 228.86963,112.570775 229.085439,112.512767 C229.407665,112.427243 229.677799,112.516486 229.893608,112.782726 C232.964798,116.05644 237.492328,117.488783 240.994392,116.554711 C242.772958,116.080238 243.527546,115.340269 243.527546,114.3705 C243.527546,113.29364 242.557149,112.959724 238.94718,112.738105 C232.372438,112.283711 226.660189,110.305502 226.660189,102.657415 C226.660189,95.3335766 231.995144,88.148064 241.803305,85.5325136 C247.515553,84.0086971 252.203824,84.3745915 255.383663,85.9512099 C255.868862,86.1981143 256.083927,86.6264785 256.083927,87.1098757 C256.083927,88.9951245 253.820906,94.2299437 251.88011,97.1712294 C251.665045,97.4984521 251.449236,97.6635508 251.12701,97.7498186 C250.856877,97.8212127 250.533163,97.8003894 250.318098,97.6962731 C247.192584,95.8905988 244.17423,95.1863264 241.910465,95.790201" id="Fill-33" fill="#000000"></path>
                    <path d="M46.1022241,227.866646 C45.1325706,228.07116 44.863181,227.820537 44.5394671,226.990581 C43.7305543,224.944696 43.1925194,218.624836 43.1925194,211.031039 C43.1925194,203.7072 43.7856229,195.255187 45.3483799,188.268239 C45.5098647,187.525295 46.1565485,187.082801 46.7489078,186.871593 C49.8751659,185.714415 53.7009439,184.58624 57.527466,183.5659 C61.2460834,182.574564 64.4251776,181.779562 67.2820462,181.34153 C68.1981195,181.205435 68.3596044,181.592896 68.3596044,182.13207 C68.3596044,184.87851 67.1741416,192.572705 65.7728695,195.746765 C65.6113846,196.113403 65.2876706,196.361051 65.0190253,196.431701 C64.6409869,196.532843 64.3180171,196.458474 63.8328183,196.371463 C62.4858706,196.138688 60.9759497,196.002593 59.3060322,196.448062 C58.6593485,196.620598 58.0126648,196.955258 57.527466,197.5688 C57.0422671,198.182343 56.7192973,199.023454 56.7192973,200.208149 C56.7192973,201.607769 57.5817904,201.755019 58.4978636,201.51109 C60.1677811,201.065621 61.6226334,199.707647 64.8024718,198.859842 C66.4195532,198.428503 67.0662369,198.472381 67.0662369,199.280026 C67.0662369,202.67273 66.5267137,208.417719 65.7728695,211.687715 C65.6642207,212.148058 65.3955753,212.327287 65.0718613,212.414298 C64.5874067,212.5437 62.916745,212.611376 61.3004078,213.042715 C59.3060322,213.574451 58.066245,214.551657 58.066245,216.598286 C58.066245,219.075511 59.7912311,222.169996 59.7912311,223.085476 C59.7912311,223.78603 59.3060322,224.238192 58.3348904,224.604087 C57.6353706,224.845042 54.9943113,225.60286 52.353252,226.307132 C49.7129369,227.011405 47.0733659,227.661388 46.1022241,227.866646" id="Fill-35" fill="#000000"></path>
                    <path d="M84.7954172,198.806892 C85.2806161,198.569655 85.7665591,198.225328 86.2502696,197.933802 C86.7897928,197.521055 87.0591824,197.126157 87.0591824,196.372058 C87.0591824,194.379718 86.3589184,191.334316 85.6579103,189.851402 C85.4964254,189.51823 85.3349405,189.399983 85.1198754,189.457247 C84.8497417,189.528641 84.6339324,189.747286 84.4188672,190.181599 C82.8561102,193.022487 82.2630068,196.950647 82.2630068,199.374326 C82.2630068,199.85921 82.4788161,199.909037 82.7482056,199.837643 C83.17908,199.721628 83.9336684,199.305163 84.7954172,198.806892 M70.7306044,221.298989 C69.5987218,221.547381 69.0056183,221.489373 68.8984579,220.548608 C68.6826486,218.452152 68.5739997,216.165311 68.5739997,213.795922 C68.5211637,200.615541 72.0232277,184.440329 83.8808323,175.946669 C84.4188672,175.586724 84.8497417,175.310072 85.2270358,175.210418 C85.60433,175.109276 85.9272998,175.130843 86.4132428,175.2714 C97.0280836,178.09444 101.339805,189.763647 101.339805,204.626993 C101.339805,206.727168 101.232644,208.964925 101.071159,211.216068 C100.963255,212.591147 100.262991,213.208408 99.131108,213.61818 C97.4611905,214.22503 95.5203952,214.796182 93.6339242,215.299659 C91.2622545,215.931793 88.9456533,216.441963 87.4364765,216.736464 C86.6818882,216.885201 86.1974335,216.690355 86.1974335,215.935512 C86.1974335,214.858652 87.0591824,212.098082 87.0591824,208.758923 C87.0591824,207.305014 86.4132428,206.884086 85.2806161,207.186767 C83.4484696,207.674626 81.9928731,208.763386 81.9928731,211.241354 C81.9928731,213.825669 82.3701672,215.718355 82.3701672,217.172265 C82.3701672,217.711438 82.1558463,218.091463 81.3461893,218.360678 C79.8377568,218.870848 77.7362207,219.485134 75.4724556,220.088265 C73.8025381,220.533734 72.2926172,220.936069 70.7306044,221.298989" id="Fill-37" fill="#000000"></path>
                    <path d="M113.6262,210.02178 C111.309599,210.639784 108.937929,211.272663 106.782813,211.578319 C105.92032,211.700283 105.54377,211.477177 105.273636,210.418165 C104.789181,208.500938 104.195334,202.088861 104.195334,194.764279 C104.195334,182.538793 105.488701,174.546379 106.136129,172.112289 C106.405518,171.071125 106.998622,170.53567 107.698886,170.295459 C109.746098,169.641014 111.901958,169.012597 114.058563,168.437727 C116.321584,167.833852 118.585349,167.284267 120.63256,166.846234 C121.332824,166.713858 121.710119,166.935477 121.656538,167.650161 C121.656538,169.104071 118.853994,177.229605 118.853994,187.67842 C118.853994,198.719211 121.548634,205.593862 121.548634,206.670722 C121.548634,207.316987 121.172084,207.687343 120.416751,207.942428 C118.20731,208.746355 115.944289,209.403775 113.6262,210.02178" id="Fill-39" fill="#000000"></path>
                    <path d="M131.518205,205.08979 C130.602131,205.280918 129.901123,205.036989 129.739638,203.679758 C129.578153,202.429619 129.523829,200.235739 129.523829,197.758515 C129.523829,187.903163 130.710036,180.854489 130.710036,179.077075 C130.710036,178.270173 130.494227,177.734718 129.416669,178.021781 C126.722029,178.740184 124.781234,180.38894 123.542191,180.718394 C123.111316,180.834409 122.788346,180.650718 122.788346,179.950164 C122.788346,178.065659 123.595771,170.902457 124.188874,167.998356 C124.404684,167.401918 124.781234,166.870181 125.589402,166.38604 C127.368713,165.318848 132.056984,163.207518 138.470241,161.497036 C144.075329,160.002967 148.547791,159.509902 150.595747,159.98735 C151.674049,160.399353 151.781209,161.017357 151.726885,162.432595 C151.619725,165.85356 151.18885,170.439139 150.757976,172.923801 C150.595747,173.559654 150.380681,173.832587 150.002643,173.932242 C149.140894,174.162785 147.415908,173.3834 144.990658,174.029665 C144.18249,174.245334 143.805195,174.777815 143.59013,175.858393 C143.482226,176.478629 143.374321,177.316022 143.374321,178.339336 C143.374321,189.433672 146.014636,197.938487 146.014636,199.930827 C146.014636,200.684927 145.638086,201.163862 144.667688,201.583302 C143.482226,202.060749 140.787586,202.886987 138.146527,203.591259 C136.044991,204.152 133.350351,204.762568 131.518205,205.08979" id="Fill-41" fill="#000000"></path>
                    <path d="M154.583902,198.939119 C153.397695,199.202385 152.751012,199.158507 152.696687,197.880108 C152.589527,195.646813 152.535202,193.184462 152.535202,190.59866 C152.535202,181.012522 153.343371,169.056252 155.229098,159.020927 C155.392071,158.277239 155.93085,157.433897 156.684694,157.178068 C158.841299,156.441817 163.475245,155.099461 168.272165,153.819574 C173.175501,152.51217 178.187486,151.283598 180.935706,150.766735 C181.744619,150.603867 181.959684,150.869364 181.959684,151.300703 C181.959684,152.001257 180.289022,158.478779 178.995655,161.838761 C178.78059,162.328107 178.456876,162.575755 178.078837,162.675409 C177.595127,162.804811 177.109928,162.772833 176.140275,162.653843 C174.576773,162.479076 172.528818,162.485769 170.157892,163.118647 C168.70304,163.506109 167.679062,164.102547 166.978054,164.989766 C166.38495,165.740147 166.115561,166.566385 166.115561,167.53541 C166.115561,168.558725 166.600759,168.967753 167.517577,168.72308 C169.349723,168.234477 171.666325,166.809571 174.253804,166.119428 C176.247435,165.587691 177.595127,165.497705 177.595127,166.413185 C177.595127,167.705715 176.193111,173.842627 175.384942,176.481976 C175.169877,177.184761 174.954068,177.457694 174.523193,177.572966 C173.822185,177.759631 171.559164,177.555117 169.403304,178.130732 C166.816569,178.82013 166.0084,180.488966 166.0084,181.782239 C166.0084,183.613943 167.032378,184.147911 169.403304,183.51652 C173.876509,182.323644 176.571149,179.665704 178.079582,178.240054 C178.56478,177.787892 178.726265,177.582634 179.049979,177.49711 C179.319369,177.424972 179.534434,177.529088 179.642339,177.822845 C180.504832,179.909633 181.797455,187.373285 181.797455,190.066179 C181.797455,190.982402 181.205096,191.787073 180.073213,192.141812 C176.40892,193.280398 171.990783,194.566978 167.732642,195.701846 C162.721401,197.038253 157.924482,198.210305 154.583902,198.939119" id="Fill-43" fill="#000000"></path>
                    <path d="M198.826371,155.474056 C197.533004,155.818384 197.047061,156.594794 197.047061,157.348894 C197.047061,158.694969 198.233268,159.240092 201.143717,159.48774 C210.305193,160.276049 213.915162,163.082727 213.915162,170.353764 C213.915162,177.677603 208.903921,185.261732 197.910298,188.19335 C188.856726,190.607361 182.767183,188.138317 182.767183,180.436685 C182.767183,176.8826 183.844741,174.278949 185.299593,172.652503 C185.569727,172.36544 185.784792,172.253887 186.000601,172.196623 C186.323571,172.110355 186.593705,172.199597 186.80877,172.465838 C189.880704,175.739552 194.40749,177.171895 197.910298,176.237823 C199.68812,175.76335 200.443453,175.02338 200.443453,174.053611 C200.443453,172.976751 199.472311,172.642835 195.862342,172.421216 C189.2876,171.966823 183.575351,169.988613 183.575351,162.340527 C183.575351,155.016688 188.910306,147.831176 198.718467,145.215625 C204.430715,143.692552 209.118986,144.058447 212.298825,145.634322 C212.784768,145.88197 212.999089,146.30959 212.999089,146.793731 C212.999089,148.678236 210.736068,153.913799 208.796017,156.854341 C208.580207,157.181564 208.364398,157.346662 208.042172,157.43293 C207.772039,157.504324 207.448325,157.483501 207.23326,157.379385 C204.107746,155.574454 201.090136,154.870182 198.826371,155.474056" id="Fill-45" fill="#000000"></path>
                    <path d="M79.8369382,248.323195 C80.322137,248.086702 80.8073358,247.741631 81.2917905,247.450105 C81.8313137,247.037358 82.1007033,246.64246 82.1007033,245.889104 C82.1007033,243.896021 81.4004393,240.851362 80.6994312,239.368449 C80.5372021,239.034533 80.3764614,238.91703 80.1613963,238.974294 C79.8912626,239.045688 79.6754533,239.264332 79.459644,239.698646 C77.8976312,242.539534 77.3045277,246.46695 77.3045277,248.891372 C77.3045277,249.376257 77.520337,249.42534 77.7897265,249.35469 C78.2206009,249.238675 78.9751893,248.822209 79.8369382,248.323195 M65.7713811,270.816036 C64.6402427,271.063684 64.0463951,271.00642 63.9399788,270.065655 C63.7241695,267.969198 63.6155207,265.682358 63.6155207,263.312968 C63.5626846,250.131844 67.0647486,233.956632 78.9216091,225.463716 C79.459644,225.103771 79.8912626,224.827119 80.2678126,224.726721 C80.6458509,224.625579 80.9688207,224.64789 81.4540196,224.788447 C92.0696045,227.611486 96.3813254,239.27995 96.3813254,254.14404 C96.3813254,256.244215 96.274165,258.481972 96.1126801,260.733115 C96.0047754,262.10745 95.3045115,262.724711 94.1726289,263.135227 C92.5019673,263.741333 90.5619161,264.313229 88.6754452,264.816705 C86.3037754,265.448096 83.98643,265.95901 82.4779975,266.25351 C81.7226649,266.401504 81.2389544,266.207402 81.2389544,265.452558 C81.2389544,264.375698 82.1007033,261.615129 82.1007033,258.27597 C82.1007033,256.82206 81.4540196,256.401133 80.322137,256.70307 C78.4899905,257.191673 77.034394,258.280432 77.034394,260.7584 C77.034394,263.341972 77.4116882,265.234658 77.4116882,266.688568 C77.4116882,267.227741 77.196623,267.60851 76.3877102,267.877725 C74.8792777,268.387151 72.7777416,269.002181 70.5139765,269.605312 C68.8433149,270.050781 67.3341381,270.453116 65.7713811,270.816036" id="Fill-47" fill="#000000"></path>
                    <path d="M122.625969,214.293672 C124.35021,213.834073 125.966548,213.509825 127.206335,213.287462 C128.392542,213.07923 129.092806,213.323159 129.362195,214.490749 C130.278269,218.338591 130.763467,221.925397 130.763467,225.58806 C130.763467,239.21391 124.56602,250.720993 116.104807,258.093915 C115.566772,258.560951 115.080829,258.851733 114.596374,258.981135 C114.003271,259.13954 113.572396,259.092688 112.925713,258.942463 C103.386198,256.584972 97.889758,248.571735 97.889758,235.215844 C97.889758,231.176131 98.3749569,226.684256 99.3989348,221.726089 C99.5611638,220.983145 100.153523,220.446946 100.800207,220.221608 C102.362964,219.697308 104.356595,219.112026 106.350971,218.580289 C108.290278,218.061939 110.231073,217.598621 111.848155,217.275117 C112.872132,217.055729 113.303007,217.37254 113.303007,218.018805 C113.303007,218.82645 112.17038,224.514175 112.17038,232.646402 C112.17038,237.762975 112.925713,239.984371 113.733881,241.385479 C113.949691,241.704521 114.21908,241.848053 114.48847,241.775915 C114.757859,241.703777 115.027249,241.417457 115.243058,240.983144 C116.159131,239.445197 116.69791,235.801126 116.69791,231.492942 C116.69791,222.606615 115.458123,218.520794 115.458123,217.443934 C115.458123,216.797669 115.727513,216.456316 116.64433,216.104552 C118.368572,215.482829 120.578013,214.839539 122.625969,214.293672" id="Fill-49" fill="#000000"></path>
                    <path d="M134.642454,252.451258 C133.456991,252.713779 132.810307,252.670646 132.755983,251.392246 C132.648822,249.158951 132.594498,246.696601 132.594498,244.110798 C132.594498,234.52466 133.402666,222.567646 135.289137,212.532321 C135.451366,211.789377 135.990145,210.945291 136.74399,210.690207 C138.900594,209.953212 143.534541,208.610855 148.331461,207.331712 C153.234797,206.024309 158.246782,204.794992 160.995001,204.278129 C161.80317,204.116005 162.019723,204.381502 162.019723,204.812097 C162.019723,205.512651 160.348318,211.990173 159.05495,215.350899 C158.839885,215.839502 158.516171,216.08715 158.138877,216.187548 C157.654422,216.316949 157.169223,216.284971 156.198826,216.165981 C154.636069,215.991214 152.588113,215.997907 150.217187,216.630786 C148.762335,217.018247 147.738357,217.613941 147.037349,218.501904 C146.444245,219.252285 146.174856,220.077779 146.174856,221.047548 C146.174856,222.070119 146.660055,222.479147 147.576128,222.235218 C149.409019,221.746615 151.72562,220.321709 154.313099,219.631566 C156.30673,219.099829 157.654422,219.009843 157.654422,219.925323 C157.654422,221.217853 156.252406,227.354022 155.444237,229.99337 C155.229172,230.696899 155.013363,230.969089 154.582488,231.085104 C153.88148,231.27177 151.618459,231.067255 149.462599,231.642126 C146.875864,232.331525 146.06844,234.001104 146.06844,235.294377 C146.06844,237.125337 147.091673,237.660049 149.462599,237.027914 C153.935805,235.835039 156.6297,233.177842 158.138877,231.751448 C158.624076,231.30003 158.785561,231.094772 159.109275,231.009248 C159.378664,230.936366 159.593729,231.041226 159.701634,231.334983 C160.564127,233.421028 161.85675,240.884679 161.85675,243.577573 C161.85675,244.494541 161.264391,245.298467 160.132508,245.65395 C156.468215,246.792536 152.050078,248.079116 147.792681,249.213984 C142.780697,250.550391 137.983777,251.7217 134.642454,252.451258" id="Fill-51" fill="#000000"></path>
                    <path d="M162.125842,226.865196 C162.125842,214.963214 168.161805,201.50395 179.694951,198.429545 C188.371974,196.115188 192.359236,200.761006 192.359236,206.469555 C192.359236,208.301258 191.928362,209.600481 191.011544,211.029849 C189.018657,214.200934 183.790119,219.472194 181.312033,220.132589 C180.664605,220.305868 180.44954,219.878248 180.44954,219.016313 C180.44954,218.048032 180.557444,216.619407 180.557444,215.326134 C180.557444,212.687529 180.071501,210.499599 178.617393,210.888548 C177.054636,211.305013 176.300048,213.928744 176.300048,219.4774 C176.300048,226.371387 178.132194,227.013189 180.773254,226.308917 C183.898768,225.475243 186.431178,222.64551 188.963589,219.439472 C189.287303,219.0297 189.556692,218.850471 189.880406,218.763459 C191.281678,218.390128 192.521465,221.345544 192.521465,225.437315 C192.521465,231.793615 187.993935,239.03193 178.725298,241.503948 C168.270454,244.292034 162.125842,239.629111 162.125842,226.865196" id="Fill-53" fill="#000000"></path>
                    <path d="M42.8420897,306.382389 C43.3272886,306.145153 43.8132316,305.800825 44.2976862,305.508556 C44.8364653,305.096553 45.1058549,304.700911 45.1058549,303.947555 C45.1058549,301.955215 44.4055909,298.909813 43.7045828,297.4269 C43.5423537,297.092984 43.381613,296.975481 43.1665479,297.032745 C42.8964141,297.104139 42.6806048,297.322783 42.4647955,297.757097 C40.9027827,300.597985 40.3096792,304.526144 40.3096792,306.949823 C40.3096792,307.434708 40.5254885,307.484535 40.7948781,307.413141 C41.2257525,307.297126 41.9803409,306.881404 42.8420897,306.382389 M28.7772769,328.874487 C27.6453943,329.122878 27.0522908,329.064871 26.9451303,328.124106 C26.7293211,326.027649 26.6214164,323.740809 26.6214164,321.371419 C26.5678362,308.190295 30.0706443,292.015083 41.9267606,283.522167 C42.4647955,283.162222 42.8964141,282.88557 43.2729642,282.785916 C43.6510025,282.684774 43.9739723,282.706341 44.4591711,282.846898 C55.0755002,285.669937 59.3872212,297.338401 59.3872212,312.202491 C59.3872212,314.302666 59.2793165,316.540423 59.1178316,318.791566 C59.009927,320.166645 58.3089189,320.783906 57.1777805,321.194422 C55.5071188,321.800527 53.5670677,322.37168 51.6805967,322.875156 C49.308927,323.506547 46.9915816,324.017461 45.483149,324.311961 C44.7285607,324.459955 44.244106,324.265853 44.244106,323.511009 C44.244106,322.434149 45.1058549,319.67358 45.1058549,316.334421 C45.1058549,314.880511 44.4591711,314.459584 43.3272886,314.762265 C41.4943979,315.250868 40.0395455,316.338883 40.0395455,318.816851 C40.0395455,321.401167 40.4175839,323.293109 40.4175839,324.747019 C40.4175839,325.286192 40.2010304,325.666961 39.3928618,325.936176 C37.8844292,326.446346 35.7828932,327.060632 33.5198722,327.663763 C31.8492106,328.109975 30.3392897,328.512311 28.7772769,328.874487" id="Fill-55" fill="#000000"></path>
                    <path d="M77.9249422,315.769293 C76.2542806,316.321853 74.0448399,316.964399 71.6195899,317.612151 C69.2486643,318.244286 66.7690898,318.851879 64.6132294,319.318171 C64.1280305,319.447573 63.6971561,319.186539 63.5892515,318.675625 C62.5660177,313.563514 62.0808189,307.768698 62.0808189,301.520976 C62.0808189,294.789113 62.6731782,287.468249 63.7514805,279.587388 C63.8593852,278.642161 64.4524887,278.216028 64.9369433,278.085882 C66.4461201,277.575713 69.195084,276.788891 71.8897236,276.070488 C74.0448399,275.495617 76.1463759,274.989166 77.6012283,274.709539 C78.6795306,274.476021 79.3797945,274.612116 79.8649934,275.397451 C80.9961318,277.196432 82.6667934,281.382651 83.8530004,284.944172 C83.9601608,285.292962 84.1759701,285.44988 84.4453597,285.378486 C84.7147492,285.307092 84.8769783,285.101834 84.9841388,284.749326 C86.2782504,280.258195 87.948912,275.611633 88.9721457,273.29207 C89.3501841,272.437573 90.1576085,271.575638 90.9121969,271.320553 C92.6907632,270.685444 94.6843946,270.045872 96.7323504,269.499262 C98.6724016,268.982399 100.612453,268.572627 102.49818,268.231274 C103.468577,268.080305 104.17033,268.37778 104.33107,269.035201 C106.001732,275.106669 106.8099,281.999912 106.8099,289.270205 C106.8099,294.763828 106.378282,300.694739 105.516533,307.065169 C105.409373,307.956107 104.870593,308.530235 104.22391,308.756316 C102.553248,309.363165 99.2111807,310.361938 95.9785062,311.224616 C93.4989318,311.885011 91.2359109,312.380307 89.7267341,312.622005 C89.0264702,312.70158 88.8106609,312.489629 88.8106609,311.950455 C88.8106609,309.6889 91.8290143,302.582962 91.8290143,294.397189 C91.8290143,292.457651 91.7203655,290.601406 91.2902353,288.884975 C91.2359109,288.630633 91.074426,288.565189 90.8593608,288.623196 C90.6435515,288.68046 90.4813225,288.886462 90.4269981,289.114774 C88.9185655,294.149541 86.9777702,299.837266 84.9841388,304.839311 C84.7147492,305.55697 84.2302946,305.955587 83.7450957,306.084989 C83.2598969,306.213647 82.7754422,306.020288 82.5053085,305.499706 C80.2422876,301.633273 78.4093969,295.874897 77.4404875,292.686707 C77.3318387,292.392207 77.1160294,292.28809 76.9009643,292.345354 C76.685155,292.402618 76.5236701,292.607133 76.4693457,292.836932 C75.9856352,295.390013 75.9305666,297.774276 75.9305666,299.820905 C75.9305666,306.876273 78.9489201,313.234061 78.9489201,314.688714 C78.9489201,315.227144 78.5716259,315.542468 77.9249422,315.769293" id="Fill-57" fill="#000000"></path>
                    <path d="M128.743567,284.391315 C128.743567,276.582592 127.395875,272.794989 125.779538,273.225584 C123.947391,273.714931 122.814765,278.163672 122.814765,285.972395 C122.814765,289.850728 123.892323,291.070376 125.779538,290.567643 C127.666009,290.064166 128.743567,288.269647 128.743567,284.391315 M125.886698,303.787439 C113.168089,307.178656 109.234406,301.011252 109.234406,292.339851 C109.234406,278.122026 114.893075,263.795622 125.779538,260.892264 C136.665256,257.98965 142.323925,269.298912 142.323925,283.515994 C142.323925,292.187395 138.389498,300.453486 125.886698,303.787439" id="Fill-59" fill="#000000"></path>
                    <path d="M168.082848,250.419874 C170.346614,249.815999 172.663215,249.252284 174.010907,249.000917 C174.60401,248.896801 174.981304,249.065618 175.196369,249.599586 C175.950958,251.391874 177.136421,256.353016 177.136421,269.332601 C177.136421,282.312186 173.471383,291.098115 160.646358,294.518336 C149.436181,297.507218 144.101226,292.575823 144.101226,279.488403 C144.101226,265.970388 145.717563,259.991881 146.310667,257.46483 C146.472152,256.774687 147.011675,256.307651 147.334645,256.167838 C148.520108,255.743192 150.946102,255.043382 153.478512,254.368113 C155.580048,253.807372 157.681584,253.300921 158.813467,253.106818 C159.35299,253.016832 159.72954,253.293484 159.675216,253.954623 C159.513731,256.259312 158.382593,266.955031 158.382593,273.74044 C158.382593,279.503277 159.191505,281.334237 161.023652,280.846378 C162.747894,280.386035 163.448158,278.421955 163.448158,272.659117 C163.448158,264.958229 162.640733,255.424894 162.42418,253.328437 C162.3706,252.642757 162.532084,252.115482 163.178768,251.889401 C164.256326,251.493759 166.142797,250.936737 168.082848,250.419874" id="Fill-61" fill="#000000"></path>
                    <path d="M194.595393,263.600032 C195.727275,263.298838 197.883136,258.36075 197.883136,254.429616 C197.883136,252.382987 197.074967,251.844557 196.050989,252.11749 C195.620115,252.232762 195.134916,252.5228 194.757622,253.000248 C193.949453,254.024306 193.40993,255.945252 193.40993,259.607171 C193.40993,263.108454 193.680064,263.843961 194.595393,263.600032 M183.225219,246.758475 C185.273175,245.889848 192.440276,243.763644 194.864782,243.116636 C204.942332,240.429691 212.271663,241.168173 212.271663,249.569616 C212.271663,254.309139 210.332356,257.895946 207.421907,261.633721 C207.152517,261.975074 206.991032,262.341712 206.991032,262.610927 C206.991032,262.879398 207.098193,263.066064 207.367582,263.210339 C212.379567,266.235662 213.781584,277.549386 213.781584,278.249196 C213.781584,279.056841 213.296385,279.617582 212.488216,279.886053 C211.194849,280.286157 208.769599,280.985968 206.344349,281.632233 C204.349973,282.163969 202.357086,282.641417 201.009394,282.947817 C199.768863,283.224468 199.337988,283.016236 199.230828,282.29114 C198.368335,274.765762 197.613746,270.711919 195.727275,271.214652 C194.649717,271.50246 194.056614,273.061229 194.056614,275.161404 C194.056614,278.500563 195.080592,282.858574 195.080592,283.559128 C195.080592,284.151847 194.704042,284.52146 194.056614,284.748285 C192.493857,285.272585 190.28516,285.915131 187.967071,286.533136 C186.135668,287.020995 184.248453,287.470926 182.523467,287.822691 C181.770367,287.970685 181.068615,287.99597 180.962198,286.94737 C180.476255,282.390794 179.991057,276.703813 179.991057,270.186876 C179.991057,263.562847 180.476255,256.108863 181.878272,248.248826 C182.039757,247.451592 182.470631,247.068593 183.225219,246.758475" id="Fill-63" fill="#000000"></path>
                    <path d="M214.966302,273.409573 C214.966302,269.36986 217.768846,266.199519 222.186984,265.020773 C226.822418,263.785508 229.408409,265.519044 229.408409,269.558013 C229.408409,273.597726 226.822418,276.440845 222.186984,277.676854 C217.768846,278.855599 214.966302,277.449286 214.966302,273.409573 M229.732123,234.303488 C230.541036,234.195653 230.809681,234.6084 230.809681,235.201119 C230.809681,236.762864 228.438756,242.727241 227.253293,259.738358 C227.144644,261.436941 226.44438,262.054202 223.103801,263.268644 C222.025499,263.664286 221.109425,263.961762 220.354837,264.162557 C218.737756,264.593896 217.875263,264.500935 217.553037,263.618178 C216.097441,259.643166 215.127787,255.917289 214.696913,250.538938 C214.426779,247.217628 214.319618,244.714375 214.319618,240.944621 C214.319618,239.598546 214.696913,238.474833 216.63622,237.795102 C218.306881,237.188997 220.732131,236.488443 223.211706,235.826561 C225.636211,235.180296 228.115786,234.573446 229.732123,234.303488" id="Fill-65" fill="#000000"></path>
                </g>
            </g>
        </g>
    </g>
</svg>