<?xml version="1.0" encoding="UTF-8"?>
<svg width="259px" height="188px" viewBox="0 0 259 188" version="1.1" xmlns="http://www.w3.org/2000/svg" xmlns:xlink="http://www.w3.org/1999/xlink">
    <title>STICKER93923</title>
    <g id="Page-1" stroke="none" stroke-width="1" fill="none" fill-rule="evenodd">
        <g id="desktop-home" transform="translate(-438.000000, -2679.000000)">
            <g id="RecipesSection2" transform="translate(-6.000000, 2614.000000)">
                <g id="STICKER93923" transform="translate(445.000000, 66.801861)">
                    <path d="M255.878543,63.9196518 C256.26402,62.2502634 256.518222,61.1477082 256.518222,59.8592439 C256.518222,55.0817578 252.810662,51.3385337 248.077187,51.3385337 C247.667428,51.3385337 247.247046,51.3666098 246.829699,51.4220031 L246.579291,51.4591849 C244.874238,51.7444986 242.399749,52.31892 239.225635,53.166514 C236.052279,54.0133492 233.662777,54.731945 231.92206,55.3617597 C230.54178,55.8511941 229.33982,56.5265376 228.323011,57.3544025 C227.597586,57.1662168 226.838014,57.0637771 226.049607,57.0637771 C225.584455,57.0637771 225.112473,57.1093059 224.641251,57.1798755 C225.094262,52.4228773 225.196702,47.0800756 225.196702,43.221512 C225.196702,33.4343431 224.563093,23.7587196 223.542489,17.9704948 L223.515172,17.8217674 C222.684272,13.6042853 219.289343,10.7708779 215.067308,10.7708779 C214.454946,10.7708779 213.823614,10.8338593 213.245398,10.9461636 C211.310425,11.3088762 209.124285,11.8590156 207.627147,12.2581512 C206.138356,12.6550103 203.312537,13.4343112 201.110462,14.1787066 L201.023957,14.2083004 C199.502538,14.7432635 198.201932,15.6242452 197.196505,16.7472884 C196.071186,16.3610526 195.065,16.2692362 194.366892,16.2692362 C193.67789,16.2692362 192.98737,16.351188 192.30975,16.5128152 C190.699549,16.8679396 189.180406,17.2359639 187.791778,17.6062646 C186.067755,18.0661052 184.331591,18.5874097 182.861012,19.0366269 L182.637921,19.1079553 C179.734702,20.0936533 177.452193,22.4323147 176.37392,25.5244773 L176.294245,25.765021 C176.214569,26.0207409 176.137929,26.3015017 176.063566,26.5944035 C174.208268,25.274069 172.147332,24.3361763 169.90504,23.8217011 C165.329398,16.9233329 158.356666,6.41225651 154.6916,1.78501538 C153.242267,-0.044482548 151.829358,-0.474729468 149.287334,0.526903574 C142.816178,3.03326262 129.025512,11.3369523 122.817664,15.0042951 C121.20898,15.9808873 119.582085,16.2570952 116.757025,15.3973602 C110.168252,13.4707342 97.1675108,7.51025879 90.3639943,6.28932882 C87.0790932,5.67544917 85.6843951,5.94558657 83.6522941,8.56804399 C78.6858636,15.0042951 70.2015764,29.7055364 66.6040444,34.9383103 C65.4802425,36.602387 64.5658729,37.3270533 62.7181635,38.0767605 C56.9398032,40.3311936 45.795118,42.7275248 40.717142,44.9629876 C38.4149036,46.1915057 37.5058457,47.1498864 37.5862799,50.1828616 C37.638638,52.1777808 37.8731112,54.8594256 38.2047124,57.8377663 C35.2643124,59.1694829 33.1897179,61.8427808 32.5955674,65.1785224 C30.4966909,76.8027774 30.0565794,89.4430828 30.0565794,97.9994572 C30.0565794,100.823759 30.1597779,103.495539 30.2614589,105.817507 C29.6506145,107.042989 29.1027516,108.194109 28.6603636,109.221541 C26.4780177,109.379374 24.2122024,109.769404 21.8970642,110.386319 C9.2924229,113.750137 0.824070821,123.718662 0.824070821,135.191913 C0.824070821,137.530575 1.19057746,140.496015 2.5799639,143.340046 C0.901469738,146.25237 0,149.809685 0,153.656108 C0,160.020272 2.68923296,163.820407 4.94518374,165.887413 C7.02660755,167.79431 10.7781786,170.066955 16.8350232,170.066196 C19.3474528,170.066196 22.0898026,169.673889 24.9854327,168.902177 C33.1358422,166.727419 39.5189764,162.135083 43.2538535,156.165502 C45.9354984,158.35316 48.8296108,159.707641 51.558302,160.529435 L51.7146175,160.574964 C51.7958105,160.597728 51.874727,160.612905 51.9551612,160.634151 C52.7025919,162.806633 53.7618947,163.755908 56.4784449,164.100409 C63.2698205,164.854669 77.4725217,163.311243 84.2456858,163.365878 C86.5790355,163.304414 87.9972568,163.966858 89.8950479,165.084589 C95.8274472,168.663151 109.435998,179.978569 116.541522,183.760492 C119.857534,185.540667 121.251474,185.269771 124.01507,183.795398 C129.546817,181.081124 138.025792,175.018968 142.845772,171.856235 C144.68134,170.639858 146.535879,170.123866 149.814709,170.503272 C157.31861,171.706749 172.369664,175.745152 178.436374,175.584283 C180.303053,175.53496 181.218182,174.810294 182.083987,172.218189 C184.710998,165.611205 187.312208,149.197323 189.227452,142.141122 C189.864855,139.788802 190.761772,138.36451 192.1246,136.927318 C196.130373,132.520133 204.167719,124.847776 210.045484,118.708979 C210.715516,118.492717 211.38403,118.265074 212.045715,118.015424 L212.191407,117.959272 C212.702847,117.753634 213.170276,117.528266 213.597487,117.286964 L213.643016,117.286964 C214.263725,117.286964 214.892781,117.223982 215.56433,117.094984 C217.573667,116.720131 219.781813,116.209449 222.311695,115.534865 C224.683744,114.902774 226.943489,114.177348 228.99456,113.519458 C230.393811,113.058858 232.023741,112.198364 233.356217,110.612445 C234.583976,110.990334 235.913416,111.198249 237.333155,111.198249 C238.833328,111.198249 240.435182,110.97364 242.093189,110.531252 C250.231457,108.360289 255.089377,102.522741 255.089377,94.9156415 C255.089377,91.8158908 254.214466,89.1054111 252.671799,86.9997052 C252.768927,86.5042004 252.837221,85.9791019 252.872885,85.422892 C253.718202,73.2811266 255.1774,66.9579386 255.878543,63.9196518" id="Fill-1" fill="#BBEDBA"></path>
                    <path d="M255.878543,63.9196518 C256.26402,62.2502634 256.518222,61.1477082 256.518222,59.8592439 C256.518222,55.0817578 252.810662,51.3385337 248.077187,51.3385337 C247.667428,51.3385337 247.247046,51.3666098 246.829699,51.4220031 L246.579291,51.4591849 C244.874238,51.7444986 242.399749,52.31892 239.225635,53.166514 C236.052279,54.0133492 233.662777,54.731945 231.92206,55.3617597 C230.54178,55.8511941 229.33982,56.5265376 228.323011,57.3544025 C227.597586,57.1662168 226.838014,57.0637771 226.049607,57.0637771 C225.584455,57.0637771 225.112473,57.1093059 224.641251,57.1798755 C225.094262,52.4228773 225.196702,47.0800756 225.196702,43.221512 C225.196702,33.4343431 224.563093,23.7587196 223.542489,17.9704948 L223.515172,17.8217674 C222.684272,13.6042853 219.289343,10.7708779 215.067308,10.7708779 C214.454946,10.7708779 213.823614,10.8338593 213.245398,10.9461636 C211.310425,11.3088762 209.124285,11.8590156 207.627147,12.2581512 C206.138356,12.6550103 203.312537,13.4343112 201.110462,14.1787066 L201.023957,14.2083004 C199.502538,14.7432635 198.201932,15.6242452 197.196505,16.7472884 C196.071186,16.3610526 195.065,16.2692362 194.366892,16.2692362 C193.67789,16.2692362 192.98737,16.351188 192.30975,16.5128152 C190.699549,16.8679396 189.180406,17.2359639 187.791778,17.6062646 C186.067755,18.0661052 184.331591,18.5874097 182.861012,19.0366269 L182.637921,19.1079553 C179.734702,20.0936533 177.452193,22.4323147 176.37392,25.5244773 L176.294245,25.765021 C176.214569,26.0207409 176.137929,26.3015017 176.063566,26.5944035 C174.208268,25.274069 172.147332,24.3361763 169.90504,23.8217011 C165.329398,16.9233329 158.356666,6.41225651 154.6916,1.78501538 C153.242267,-0.044482548 151.829358,-0.474729468 149.287334,0.526903574 C142.816178,3.03326262 129.025512,11.3369523 122.817664,15.0042951 C121.20898,15.9808873 119.582085,16.2570952 116.757025,15.3973602 C110.168252,13.4707342 97.1675108,7.51025879 90.3639943,6.28932882 C87.0790932,5.67544917 85.6843951,5.94558657 83.6522941,8.56804399 C78.6858636,15.0042951 70.2015764,29.7055364 66.6040444,34.9383103 C65.4802425,36.602387 64.5658729,37.3270533 62.7181635,38.0767605 C56.9398032,40.3311936 45.795118,42.7275248 40.717142,44.9629876 C38.4149036,46.1915057 37.5058457,47.1498864 37.5862799,50.1828616 C37.638638,52.1777808 37.8731112,54.8594256 38.2047124,57.8377663 C35.2643124,59.1694829 33.1897179,61.8427808 32.5955674,65.1785224 C30.4966909,76.8027774 30.0565794,89.4430828 30.0565794,97.9994572 C30.0565794,100.823759 30.1597779,103.495539 30.2614589,105.817507 C29.6506145,107.042989 29.1027516,108.194109 28.6603636,109.221541 C26.4780177,109.379374 24.2122024,109.769404 21.8970642,110.386319 C9.2924229,113.750137 0.824070821,123.718662 0.824070821,135.191913 C0.824070821,137.530575 1.19057746,140.496015 2.5799639,143.340046 C0.901469738,146.25237 0,149.809685 0,153.656108 C0,160.020272 2.68923296,163.820407 4.94518374,165.887413 C7.02660755,167.79431 10.7781786,170.066955 16.8350232,170.066196 C19.3474528,170.066196 22.0898026,169.673889 24.9854327,168.902177 C33.1358422,166.727419 39.5189764,162.135083 43.2538535,156.165502 C45.9354984,158.35316 48.8296108,159.707641 51.558302,160.529435 L51.7146175,160.574964 C51.7958105,160.597728 51.874727,160.612905 51.9551612,160.634151 C52.7025919,162.806633 53.7618947,163.755908 56.4784449,164.100409 C63.2698205,164.854669 77.4725217,163.311243 84.2456858,163.365878 C86.5790355,163.304414 87.9972568,163.966858 89.8950479,165.084589 C95.8274472,168.663151 109.435998,179.978569 116.541522,183.760492 C119.857534,185.540667 121.251474,185.269771 124.01507,183.795398 C129.546817,181.081124 138.025792,175.018968 142.845772,171.856235 C144.68134,170.639858 146.535879,170.123866 149.814709,170.503272 C157.31861,171.706749 172.369664,175.745152 178.436374,175.584283 C180.303053,175.53496 181.218182,174.810294 182.083987,172.218189 C184.710998,165.611205 187.312208,149.197323 189.227452,142.141122 C189.864855,139.788802 190.761772,138.36451 192.1246,136.927318 C196.130373,132.520133 204.167719,124.847776 210.045484,118.708979 C210.715516,118.492717 211.38403,118.265074 212.045715,118.015424 L212.191407,117.959272 C212.702847,117.753634 213.170276,117.528266 213.597487,117.286964 L213.643016,117.286964 C214.263725,117.286964 214.892781,117.223982 215.56433,117.094984 C217.573667,116.720131 219.781813,116.209449 222.311695,115.534865 C224.683744,114.902774 226.943489,114.177348 228.99456,113.519458 C230.393811,113.058858 232.023741,112.198364 233.356217,110.612445 C234.583976,110.990334 235.913416,111.198249 237.333155,111.198249 C238.833328,111.198249 240.435182,110.97364 242.093189,110.531252 C250.231457,108.360289 255.089377,102.522741 255.089377,94.9156415 C255.089377,91.8158908 254.214466,89.1054111 252.671799,86.9997052 C252.768927,86.5042004 252.837221,85.9791019 252.872885,85.422892 C253.718202,73.2811266 255.1774,66.9579386 255.878543,63.9196518 Z" id="Stroke-3" stroke="#000000" stroke-width="2"></path>
                    <path d="M62.1529996,86.6247758 C63.0870983,88.6826764 64.2966461,96.1638129 64.2966461,98.9107156 C64.2966461,99.8455731 63.692631,100.666609 62.5384766,101.028562 C59.296069,102.058272 55.3942531,103.155515 51.6032238,104.167013 C47.0966339,105.368972 42.8108586,106.402475 39.7877479,107.099066 C38.5797178,107.366927 37.9195505,107.322916 37.864916,106.019275 C37.7556469,103.575139 37.6448603,100.85783 37.6448603,97.9993813 C37.6448603,88.0536205 38.2496341,76.5720223 40.063197,66.526857 C40.2271006,65.6033817 40.7226054,64.9219677 41.5466762,64.6472775 C42.8654931,64.1851604 45.0637741,63.5439635 47.5921387,62.86862 C50.5590972,62.0771781 53.6353247,61.3661704 55.3396185,61.0216694 C56.1636893,60.857007 56.3837451,61.1279032 56.3837451,61.5672558 C56.3837451,62.9407072 51.4378025,81.6803509 51.4378025,88.8792089 C51.4378025,91.5168426 52.097211,92.0002064 53.8553805,91.5312601 C55.9990269,90.9591151 58.4712394,88.9254965 59.9554775,87.3752418 C60.6695204,86.636158 61.0549974,86.3675382 61.3843222,86.2802747 C61.713647,86.1922524 61.9883372,86.2294343 62.1529996,86.6247758" id="Fill-5" fill="#000000"></path>
                    <path d="M67.6477157,99.6661139 C66.4389267,99.9339748 65.7795183,99.8892049 65.7248838,98.5848055 C65.6148559,96.3060903 65.5602214,93.7936608 65.5602214,91.1552683 C65.5602214,81.3741698 66.3842922,69.1739759 68.3078829,58.9353133 C68.4725453,58.1772592 69.0219259,57.3160065 69.7913622,57.0557337 C71.9896432,56.3037501 76.7147712,54.933334 81.6060792,53.6289346 C86.6058975,52.2941827 91.7172612,51.0406237 94.5187985,50.5132488 C95.3436281,50.3478276 95.5636839,50.6187238 95.5636839,51.0573176 C95.5636839,51.7721194 93.8601489,58.3813798 92.541332,61.8104554 C92.3212763,62.3089955 91.9919515,62.562439 91.6072333,62.6641199 C91.1124873,62.7961534 90.6177413,62.7627656 89.6282493,62.6428732 C88.035501,62.4637933 85.946489,62.4706226 83.5289111,63.1163724 C82.0454319,63.5117139 81.0020641,64.1202819 80.2865035,65.0263045 C79.6824885,65.7911879 79.4077982,66.6342291 79.4077982,67.6229623 C79.4077982,68.6670888 79.9017854,69.0844359 80.8358841,68.8355453 C82.7048403,68.3370052 85.0677837,66.8823609 87.7054174,66.1781825 C89.7382771,65.6356313 91.1124873,65.5438149 91.1124873,66.4779136 C91.1124873,67.7967304 89.6836426,74.0584546 88.8595718,76.7514816 C88.6395161,77.4693186 88.4194603,77.7470441 87.9801076,77.8646601 C87.2660647,78.0551222 84.9577558,77.8472074 82.7602336,78.4337698 C80.1218411,79.1371894 79.2985291,80.8407244 79.2985291,82.1603 C79.2985291,84.0277386 80.3418969,84.5740839 82.7602336,83.9290929 C87.3206992,82.711957 90.0683608,80.0007185 91.6072333,78.5453153 C92.1019794,78.0839571 92.2666418,77.8752835 92.5959666,77.7872612 C92.8706568,77.7136564 93.0907126,77.8198902 93.2007405,78.1196213 C94.0794458,80.2488503 95.3982627,87.8650555 95.3982627,90.6119582 C95.3982627,91.5468157 94.7934888,92.3678513 93.6400931,92.7298051 C89.9029396,93.8923064 85.3978673,95.204294 81.0566986,96.3622425 C75.9460937,97.7258293 71.0547857,98.9209596 67.6477157,99.6661139" id="Fill-7" fill="#000000"></path>
                    <path d="M113.587008,87.4080225 C111.883473,87.9718205 109.630558,88.6274348 107.157586,89.2883609 C104.740008,89.9333518 102.211644,90.553302 100.013363,91.0290777 C99.5186168,91.1611111 99.0792641,90.8947678 98.9692362,90.3734633 C97.9258685,85.1573834 97.4311224,79.2447132 97.4311224,72.8699259 C97.4311224,66.0011514 98.0351375,58.5313972 99.1346574,50.4902567 C99.2446853,49.5258055 99.8494592,49.0910057 100.343446,48.9582135 C101.882319,48.4376678 104.685374,47.6348438 107.433035,46.9018305 C109.630558,46.3152681 111.773445,45.7985165 113.256925,45.5132029 C114.356444,45.2749356 115.070487,45.4137984 115.565233,46.2151048 C116.718629,48.0506732 118.422164,52.3227899 119.631712,55.9559861 C119.740981,56.3118694 119.961037,56.4719789 120.235727,56.3998917 C120.510417,56.3262868 120.675838,56.1168545 120.785107,55.757936 C122.104683,51.174706 123.808218,46.4336429 124.852345,44.0669055 C125.237063,43.1950294 126.060375,42.3155653 126.829811,42.0552924 C128.644133,41.4072662 130.676992,40.7546871 132.764487,40.1969596 C134.743471,39.6695846 136.720937,39.2514787 138.643769,38.9031836 C139.63402,38.7491446 140.348822,39.0526697 140.512725,39.7234604 C142.21626,45.918409 143.040331,52.9518458 143.040331,60.3700008 C143.040331,65.9753518 142.600979,72.0268848 141.721514,78.5268762 C141.612245,79.435934 141.062865,80.0217376 140.403456,80.2524167 C138.699921,80.8716081 135.292851,81.8906938 131.995809,82.7709168 C129.468204,83.4447426 127.160653,83.950112 125.621022,84.1967262 C124.906979,84.2779192 124.686923,84.0616575 124.686923,83.5115182 C124.686923,81.2039681 127.764669,73.9535108 127.764669,65.601257 C127.764669,63.622273 127.653882,61.7282759 127.215288,59.9769358 C127.160653,59.7174217 126.995232,59.651405 126.775935,59.7098336 C126.55588,59.7682622 126.390458,59.9784534 126.335065,60.2114089 C124.796951,65.3485723 122.818726,71.1519735 120.785107,76.2557491 C120.510417,76.9887624 120.01643,77.3947273 119.521684,77.5267607 C119.026938,77.6580354 118.532951,77.460744 118.257502,76.929575 C115.949952,72.9845067 114.080995,67.1090183 113.093021,63.8559874 C112.982234,63.5554974 112.762178,63.4492636 112.542882,63.5076922 C112.322826,63.5661208 112.158163,63.7747944 112.10277,64.0092676 C111.609542,66.6142723 111.55339,69.0470265 111.55339,71.1352796 C111.55339,78.3341377 114.631135,84.8212293 114.631135,86.3054673 C114.631135,86.8548479 114.246417,87.1765845 113.587008,87.4080225" id="Fill-9" fill="#000000"></path>
                    <path d="M165.405659,55.3918846 C165.405659,47.4243491 164.031449,43.5597149 162.384066,43.9990676 C160.51511,44.4983665 159.360196,49.0375853 159.360196,57.0051209 C159.360196,60.9623302 160.459716,62.2067834 162.384066,61.6938258 C164.306898,61.1808683 165.405659,59.3490939 165.405659,55.3918846 M162.493335,75.1824841 C149.524463,78.6434298 145.51262,72.3498355 145.51262,63.502077 C145.51262,48.9950918 151.283392,34.3773199 162.384066,31.4149143 C173.483981,28.4532675 179.253236,39.9925354 179.253236,54.4987618 C179.253236,63.3465204 175.242151,71.7807259 162.493335,75.1824841" id="Fill-11" fill="#000000"></path>
                    <path d="M184.418247,68.5081175 C183.593418,68.6735388 183.099431,68.4754886 182.989403,67.7348872 C182.164573,62.3503508 181.835248,55.734261 181.835248,49.4695016 C181.835248,39.9084589 182.603926,31.0204833 183.538783,28.0231723 C183.813474,27.2347657 184.30822,26.5548693 185.076897,26.2938377 C186.506501,25.8575203 188.154642,25.3635331 189.748149,24.937839 C191.342415,24.5129038 192.880529,24.1570205 194.034684,23.903577 C194.584064,23.7563673 195.024176,23.9695938 195.463528,24.4567516 C197.001642,26.1891215 199.475372,30.4202623 204.530584,39.8424422 C204.695246,40.1277559 204.85915,40.1937726 205.079964,40.1345852 C205.410048,40.0465629 205.684738,39.6436332 205.684738,39.149646 C205.684738,31.0166893 202.496965,24.5584326 202.496965,22.8002631 C202.496965,22.1408546 202.881683,21.5990622 203.541092,21.3668655 C205.079964,20.8463198 207.33288,20.1907055 209.585795,19.5889668 C211.453993,19.0911856 213.268314,18.6624563 214.641766,18.4052187 C215.410443,18.2549737 215.905189,18.4530239 216.069852,19.2884769 C217.060102,24.9036924 217.608724,34.319043 217.608724,43.2214361 C217.608724,48.8267871 217.388668,54.2151176 216.893922,58.2482082 C216.72926,59.3917392 216.125245,59.9927191 215.135753,60.3114205 C213.597639,60.8319661 210.960764,61.590779 208.596303,62.2213526 C207.112824,62.6166941 205.684738,62.9429837 204.695246,63.0977815 C203.431823,63.270032 203.047104,63.152416 202.82629,62.0028145 C201.672894,55.8260774 199.530007,51.4515209 196.782345,48.0087868 C196.452261,47.6574564 196.177571,47.5110055 195.848246,47.598269 C195.352742,47.7303024 195.134203,48.4488983 195.134203,49.1637 C195.134203,53.9996147 197.38636,63.2890023 197.38636,63.9484108 C197.38636,64.7724816 197.001642,65.0957359 196.397627,65.3112388 C194.913389,65.817367 192.551204,66.5018162 190.243654,67.1187311 C188.100767,67.6901172 185.956361,68.2076276 184.418247,68.5081175" id="Fill-13" fill="#000000"></path>
                    <path d="M23.9633876,128.184579 C22.6453296,128.536669 22.1498247,129.328111 22.1498247,130.097547 C22.1498247,131.470998 23.3593725,132.027967 26.3270898,132.279893 C35.6688356,133.084993 39.349837,135.948753 39.349837,143.367667 C39.349837,150.840457 34.2399908,158.578831 23.0292889,161.570071 C13.797571,164.033178 7.58820499,161.513919 7.58820499,153.655652 C7.58820499,150.029286 8.68696608,147.372682 10.1704453,145.713917 C10.4458944,145.420256 10.6659502,145.305675 10.8860059,145.248005 C11.2145719,145.159983 11.490021,145.251041 11.7100767,145.522696 C14.8416976,148.86299 19.4583153,150.324464 23.0292889,149.371395 C24.8428518,148.887272 25.6122881,148.132253 25.6122881,147.142002 C25.6122881,146.044 24.622796,145.703293 20.9417946,145.476408 C14.2369237,145.013532 8.41227581,142.99509 8.41227581,135.191458 C8.41227581,127.718668 13.8529644,120.387018 23.8533597,117.718273 C29.6780076,116.164224 34.4592878,116.536801 37.7016953,118.144726 C38.1964414,118.397411 38.4157383,118.833728 38.4157383,119.328474 C38.4157383,121.250547 36.1081882,126.59259 34.1292042,129.593695 C33.9099072,129.927573 33.6898515,130.096029 33.3612855,130.183293 C33.0858364,130.256898 32.7557528,130.234892 32.5364559,130.128658 C29.3494416,128.28626 26.2716965,127.568423 23.9633876,128.184579" id="Fill-15" fill="#000000"></path>
                    <path d="M64.5168536,144.564998 C64.2429222,144.363912 64.0228664,144.257679 63.8035695,144.316107 C63.5835137,144.374536 63.3626992,144.598386 63.0880089,144.945922 C61.1105425,147.673096 59.0215305,150.263683 56.7139805,152.471828 C56.2192344,152.933946 55.779123,153.215465 55.2851358,153.347499 C54.8450243,153.465115 54.3517959,153.432486 53.7462632,153.264029 C44.8446289,150.583902 40.2826457,141.964546 40.2826457,127.347533 C40.2826457,123.611138 40.5580948,119.471055 41.1621099,114.968259 C41.2721377,114.225381 41.8769116,113.678277 42.4809267,113.462774 C44.0751926,112.927811 46.1634458,112.315449 48.3063334,111.743304 C49.9544751,111.303193 51.6587689,110.904057 52.9775857,110.661237 C53.9663189,110.452564 54.2956437,110.804653 54.2956437,111.57333 C54.2956437,112.288132 53.5816008,119.238099 53.5816008,126.272295 C53.5816008,131.49141 54.2956437,133.77392 55.06508,135.21794 C55.2851358,135.543471 55.5044327,135.70434 55.779123,135.631494 C55.9991787,135.572306 56.2746278,135.280163 56.4385314,134.851434 C57.3187544,133.297385 57.8127416,129.594378 57.8127416,125.197816 C57.8127416,118.658366 56.9340362,111.749375 56.9340362,110.649855 C56.9340362,109.990446 57.2087265,109.586758 58.0327973,109.312827 C59.4070075,108.836292 61.5498951,108.209513 63.6927828,107.638126 C65.9456983,107.036388 68.2532484,106.476384 69.792121,106.175135 C70.781613,105.965703 71.1109378,106.317792 71.1109378,107.086469 C71.1109378,107.801271 70.3422603,115.865176 70.3422603,121.799093 C70.3422603,127.020485 71.0016688,129.316652 71.7703462,130.760673 C71.990402,131.086204 72.2104577,131.247073 72.485148,131.174226 C72.7598383,131.100622 72.9791352,130.822137 73.1991909,130.378991 C74.0232618,128.840118 74.5187666,125.136352 74.5187666,120.73979 C74.5187666,114.310368 73.9139927,107.217744 73.9139927,106.118983 C73.9139927,105.459575 74.1879242,105.056645 75.0127538,104.781955 C76.1669082,104.419242 77.8150499,103.923737 79.4631915,103.484385 C81.6614725,102.898581 83.9143881,102.296842 85.2885982,102.039605 C86.3873593,101.802096 87.1029199,102.105621 87.2668235,103.325034 C87.7608107,106.76625 87.9816253,110.114133 87.9816253,113.246513 C87.9816253,128.907652 82.4863022,141.035 74.5187666,147.72166 C73.9686272,148.197435 73.5285158,148.479714 73.0352874,148.611747 C72.5951759,148.728604 72.1004299,148.695975 71.5510493,148.513101 C68.9126568,147.733801 66.879797,146.572817 64.5168536,144.564998" id="Fill-17" fill="#000000"></path>
                    <path d="M108.917046,119.639056 C108.917046,111.671521 107.542836,107.806886 105.893935,108.246998 C104.026497,108.745538 102.871583,113.284757 102.871583,121.252292 C102.871583,125.209502 103.970344,126.453955 105.893935,125.941756 C107.818285,125.42804 108.917046,123.596265 108.917046,119.639056 M106.003963,139.429656 C93.0350916,142.890601 89.0240066,136.597007 89.0240066,127.749249 C89.0240066,113.242263 94.7940199,98.6252502 105.893935,95.6628446 C116.994609,92.7011978 122.764623,104.239707 122.764623,118.746692 C122.764623,127.593692 118.752779,136.028656 106.003963,139.429656" id="Fill-19" fill="#000000"></path>
                    <path d="M149.0304,84.97671 C151.338709,84.3605539 153.701653,83.7853738 155.075863,83.5296538 C155.679878,83.4226612 156.064596,83.5949117 156.284652,84.1397394 C157.053329,85.9684785 158.262118,91.0312782 158.262118,104.27484 C158.262118,117.518402 154.525723,126.482259 141.447583,129.972798 C130.017584,133.022467 124.576896,127.99002 124.576896,114.63643 C124.576896,100.844247 126.225796,94.7441498 126.829811,92.1649447 C126.995232,91.4615252 127.544613,90.9849907 127.874696,90.841575 C129.083485,90.4090517 131.556457,89.6950087 134.138697,89.0060066 C136.281585,88.4338616 138.425231,87.9163512 139.578627,87.7190599 C140.128766,87.6272435 140.512725,87.9087631 140.458091,88.5833478 C140.293429,90.934909 139.139274,101.848915 139.139274,108.772324 C139.139274,114.652365 139.963345,116.520563 141.832301,116.022023 C143.590471,115.553076 144.304514,113.549051 144.304514,107.66901 C144.304514,99.8115024 143.480443,90.0842797 143.260387,87.9451861 C143.205752,87.2448018 143.370415,86.7068035 144.029823,86.4768831 C145.128584,86.0724359 147.052175,85.5048438 149.0304,84.97671" id="Fill-21" fill="#000000"></path>
                    <path d="M176.340229,87.526549 C175.021412,87.8778794 174.525907,88.6700801 174.525907,89.4395164 C174.525907,90.8129678 175.735455,91.3691776 178.703172,91.6211035 C188.044918,92.426204 191.725919,95.2899639 191.725919,102.708878 C191.725919,110.181667 186.616832,117.920041 175.40613,120.911282 C166.174412,123.374389 159.965046,120.85513 159.965046,112.996863 C159.965046,109.370496 161.063807,106.713892 162.547287,105.055127 C162.822736,104.761467 163.042791,104.647645 163.262088,104.589216 C163.591413,104.501194 163.866862,104.592251 164.086159,104.863906 C167.218539,108.204201 171.835157,109.665675 175.40613,108.712606 C177.218934,108.228483 177.989129,107.473464 177.989129,106.483972 C177.989129,105.385211 176.999637,105.044504 173.318636,104.818378 C166.613765,104.354743 160.789117,102.336301 160.789117,94.5326687 C160.789117,87.0598791 166.229047,79.7282288 176.230201,77.0594838 C182.054849,75.5054349 186.83537,75.8787709 190.077778,77.4866954 C190.573283,77.7393801 190.792579,78.1749387 190.792579,78.6696848 C190.792579,80.5925167 188.485029,85.9345596 186.506045,88.9349058 C186.28599,89.2687835 186.066693,89.43724 185.737368,89.5252623 C185.461919,89.5981083 185.132594,89.5768615 184.912538,89.4706277 C181.726283,87.6274712 178.648538,86.910393 176.340229,87.526549" id="Fill-23" fill="#000000"></path>
                    <path d="M196.671862,114.302856 C195.793157,114.482695 195.408438,114.200416 195.133748,113.119867 C194.638243,111.163647 194.034228,104.620403 194.034228,97.1483726 C194.034228,84.6734884 195.353045,76.5177672 196.012453,74.0349314 C196.287144,72.9718345 196.891918,72.4254892 197.605961,72.1803926 C199.364889,71.6014184 201.287721,71.0330675 203.156677,70.5345274 C205.190296,69.9919762 207.113128,69.5336532 208.92669,69.1603172 C209.640733,69.0244897 209.970058,69.2657922 209.970058,69.9259595 C209.970058,71.0247206 208.761269,74.5349891 208.761269,82.2278344 C208.761269,83.7120724 208.981325,84.476197 209.476071,84.8396684 C209.915424,85.1621639 210.464804,85.1249821 211.23424,84.9193438 C212.388395,84.6112657 213.212466,84.1172785 213.761846,83.4214471 C214.36662,82.655046 214.585917,81.8271812 214.585917,80.6183922 C214.585917,75.1777036 212.883141,70.2469373 212.883141,69.1481762 C212.883141,68.4887678 213.212466,68.0714207 213.926509,67.8255653 C215.685437,67.2458323 217.663662,66.6638228 219.586494,66.1508652 C221.620113,65.6075552 223.708366,65.1059799 225.685832,64.6878739 C226.401393,64.5528052 227.005408,64.7751374 227.280098,65.6910246 C227.939507,67.8232889 229.258324,75.2740729 229.258324,87.7489571 C229.258324,95.2217467 228.65355,102.087486 228.159562,104.307772 C227.884872,105.534773 227.500154,106.02269 226.62069,106.312556 C224.587071,106.964376 222.499577,107.631373 220.356689,108.202759 C218.268436,108.759728 216.180183,109.262062 214.146564,109.639951 C213.377128,109.791713 212.993169,109.673339 212.993169,109.01393 C212.993169,107.585085 214.642069,100.770945 214.642069,97.1445786 C214.642069,94.6716073 213.871874,94.052416 212.168339,94.5069449 C209.970058,95.0935073 208.871297,96.8152538 208.871297,99.8929989 C208.871297,103.794056 210.519439,108.299887 210.519439,109.673339 C210.519439,110.278112 210.190114,110.58619 209.366043,110.916274 C207.387059,111.662946 205.189537,112.250267 202.991256,112.836071 C200.848368,113.408216 198.650087,113.88475 196.671862,114.302856" id="Fill-25" fill="#000000"></path>
                    <path d="M232.774738,98.8450783 C232.774738,94.7232066 235.632428,91.4883871 240.1375,90.2864275 C244.864146,89.0252804 247.501021,90.7940733 247.501021,94.9151862 C247.501021,99.037058 244.864146,101.938759 240.1375,103.199147 C235.632428,104.401865 232.774738,102.96695 232.774738,98.8450783 M247.831104,58.9436602 C248.655175,58.8336323 248.929865,59.2547735 248.929865,59.8595474 C248.929865,61.4530545 246.512287,67.5387341 245.303498,84.8958206 C245.192712,86.6289493 244.479428,87.258764 241.072358,88.4979055 C239.972838,88.9015939 239.038739,89.2051191 238.269303,89.4099986 C236.620402,89.8501101 235.741697,89.7552584 235.412372,88.8545475 C233.928893,84.7986925 232.939401,80.9970398 232.500048,75.5093049 C232.224599,72.1204464 232.11533,69.5662821 232.11533,65.7198595 C232.11533,64.3464081 232.500048,63.1998418 234.477515,62.5062868 C236.18105,61.8878543 238.654021,61.1730525 241.181627,60.4984679 C243.654598,59.8383006 246.182963,59.2191093 247.831104,58.9436602" id="Fill-27" fill="#000000"></path>
                </g>
            </g>
        </g>
    </g>
</svg>