<?xml version="1.0" encoding="UTF-8"?>
<svg width="198px" height="171px" viewBox="0 0 198 171" version="1.1" xmlns="http://www.w3.org/2000/svg" xmlns:xlink="http://www.w3.org/1999/xlink">
    <title>stickerrecipes</title>
    <g id="Page-1" stroke="none" stroke-width="1" fill="none" fill-rule="evenodd">
        <g id="desktop-home" transform="translate(-59.000000, -2674.000000)">
            <g id="RecipesSection2" transform="translate(-6.000000, 2614.000000)">
                <g id="stickerrecipes" transform="translate(66.000000, 61.801861)">
                    <path d="M195.089372,67.6958886 C195.439427,66.1805925 195.67027,65.1793532 195.67027,64.0092883 C195.67027,59.6701254 192.302716,56.2708732 188.004898,56.2708732 C187.632103,56.2708732 187.25104,56.2963694 186.872043,56.3466725 L186.644646,56.3804376 C185.105232,56.6381551 182.858817,57.1597918 179.966731,57.930877 C177.130461,58.6881805 174.899206,59.3579703 173.336363,59.9250865 C173.092427,60.011222 172.856072,60.1049375 172.624539,60.2041656 C174.579471,52.9522439 176.506839,44.9540441 176.397275,40.809892 C176.34077,38.6909582 175.894933,37.8544101 174.383082,36.8338764 C171.077545,34.7114972 163.784968,32.4568139 157.159424,30.6279845 C157.095339,30.0973897 157.035388,29.5647277 156.959589,29.0382674 C156.384893,24.7997107 153.072465,21.8387161 148.904885,21.8387161 C148.280574,21.8387161 147.636281,21.9062463 146.986474,22.0392396 C145.599348,22.304537 143.734686,22.7944758 141.741166,23.3257597 C137.695553,17.2349448 130.447765,6.22406911 126.801821,1.62098694 C125.48567,-0.0403949625 124.202596,-0.431105679 121.894164,0.478485407 C116.017654,2.75453038 103.494239,10.2951783 97.8568411,13.625522 C96.3959827,14.5123733 94.9185862,14.7632 92.3531259,13.9831567 C86.3698082,12.232883 74.5637293,6.8201269 68.3854008,5.71139049 C65.4023555,5.15392141 64.1358188,5.39923537 62.2904514,7.78071022 C57.7803956,13.625522 50.0757457,26.9758385 46.8087977,31.7277628 C45.788264,33.2389244 44.9579176,33.8969998 43.2799977,34.5778149 C38.0326219,36.6250839 27.9120429,38.8012117 23.3006917,40.8312536 C21.2100103,41.94757 20.3844875,42.8171942 20.4575304,45.5721526 C20.6201543,51.716716 22.6688015,65.0215529 23.6948478,71.7800904 C24.2033919,74.9471211 24.0304318,76.436232 23.0271253,78.5834182 C20.4182526,84.165689 14.7319302,93.6461088 12.3346064,99.2228669 C11.7922972,100.627909 11.5097727,101.770411 11.5690339,102.826088 C9.81600381,103.38149 8.19114337,103.931379 7.2284928,104.33725 C3.38064687,105.933168 2.22849816,109.00924 1.88395608,110.705076 L1.8529473,110.8677 C0.622932078,117.769567 0,125.015976 0,132.403647 C0,139.087764 0.534729306,144.884339 0.933709032,148.636403 C1.35473945,152.73163 4.60377125,155.704339 8.66178785,155.704339 C9.45905822,155.704339 10.1260917,155.592018 10.6194759,155.495546 C12.3235811,155.146181 14.2027136,154.701032 16.0529045,154.206959 C18.4261103,153.573691 20.576742,152.9418 22.107887,152.427744 L22.1885098,152.40018 C23.0519323,152.098361 23.8367991,151.679398 24.5272615,151.164652 C24.8607782,151.205998 25.2018749,151.227359 25.5491733,151.227359 C26.2734007,151.227359 27.0272588,151.137089 27.8789668,150.946902 C28.6672791,150.768429 30.7524477,150.284692 33.0698378,149.666583 C34.2040703,149.363386 35.3245211,149.05192 36.3250713,148.767329 C36.7033785,148.875515 37.1278544,148.959583 37.6136587,149.020912 C43.7809619,149.705861 56.6785501,148.304264 62.8293152,148.353878 C64.948249,148.298062 66.2361473,148.899633 67.9595468,149.914654 C73.3468067,153.164375 85.704842,163.439998 92.157426,166.874393 C95.1687238,168.490984 96.4345714,168.244981 98.9442159,166.906091 C103.967639,164.441237 111.667466,158.936144 116.044528,156.064041 C117.711423,154.959439 119.395545,154.490862 122.373077,154.836093 C129.18743,155.928291 142.855415,159.595597 148.364643,159.449511 C150.05979,159.404721 150.890825,158.746645 151.67707,156.393423 C154.062679,150.392878 156.42486,135.487299 158.164108,129.079505 C158.742939,126.943344 159.557436,125.649933 160.795032,124.344808 C163.503132,121.365897 168.241964,116.741453 172.690691,112.272054 C173.91037,111.844132 174.989476,111.212931 175.885286,110.413594 C176.639144,110.555545 177.428145,110.630655 178.249533,110.630655 C179.611164,110.630655 181.065131,110.426686 182.571469,110.02495 C189.961897,108.052102 194.373413,102.750978 194.373413,95.8435982 C194.373413,93.0286894 193.579589,90.5672808 192.177991,88.6557613 C192.266194,88.2057894 192.328901,87.7282541 192.360599,87.2238445 C193.128238,76.1971198 194.452658,70.4556706 195.089372,67.6958886" id="Fill-1" fill="#F6EE19"></path>
                    <path d="M195.089372,67.6958886 C195.439427,66.1805925 195.67027,65.1793532 195.67027,64.0092883 C195.67027,59.6701254 192.302716,56.2708732 188.004898,56.2708732 C187.632103,56.2708732 187.25104,56.2963694 186.872043,56.3466725 L186.644646,56.3804376 C185.105232,56.6381551 182.858817,57.1597918 179.966731,57.930877 C177.130461,58.6881805 174.899206,59.3579703 173.336363,59.9250865 C173.092427,60.011222 172.856072,60.1049375 172.624539,60.2041656 C174.579471,52.9522439 176.506839,44.9540441 176.397275,40.809892 C176.34077,38.6909582 175.894933,37.8544101 174.383082,36.8338764 C171.077545,34.7114972 163.784968,32.4568139 157.159424,30.6279845 C157.095339,30.0973897 157.035388,29.5647277 156.959589,29.0382674 C156.384893,24.7997107 153.072465,21.8387161 148.904885,21.8387161 C148.280574,21.8387161 147.636281,21.9062463 146.986474,22.0392396 C145.599348,22.304537 143.734686,22.7944758 141.741166,23.3257597 C137.695553,17.2349448 130.447765,6.22406911 126.801821,1.62098694 C125.48567,-0.0403949625 124.202596,-0.431105679 121.894164,0.478485407 C116.017654,2.75453038 103.494239,10.2951783 97.8568411,13.625522 C96.3959827,14.5123733 94.9185862,14.7632 92.3531259,13.9831567 C86.3698082,12.232883 74.5637293,6.8201269 68.3854008,5.71139049 C65.4023555,5.15392141 64.1358188,5.39923537 62.2904514,7.78071022 C57.7803956,13.625522 50.0757457,26.9758385 46.8087977,31.7277628 C45.788264,33.2389244 44.9579176,33.8969998 43.2799977,34.5778149 C38.0326219,36.6250839 27.9120429,38.8012117 23.3006917,40.8312536 C21.2100103,41.94757 20.3844875,42.8171942 20.4575304,45.5721526 C20.6201543,51.716716 22.6688015,65.0215529 23.6948478,71.7800904 C24.2033919,74.9471211 24.0304318,76.436232 23.0271253,78.5834182 C20.4182526,84.165689 14.7319302,93.6461088 12.3346064,99.2228669 C11.7922972,100.627909 11.5097727,101.770411 11.5690339,102.826088 C9.81600381,103.38149 8.19114337,103.931379 7.2284928,104.33725 C3.38064687,105.933168 2.22849816,109.00924 1.88395608,110.705076 L1.8529473,110.8677 C0.622932078,117.769567 0,125.015976 0,132.403647 C0,139.087764 0.534729306,144.884339 0.933709032,148.636403 C1.35473945,152.73163 4.60377125,155.704339 8.66178785,155.704339 C9.45905822,155.704339 10.1260917,155.592018 10.6194759,155.495546 C12.3235811,155.146181 14.2027136,154.701032 16.0529045,154.206959 C18.4261103,153.573691 20.576742,152.9418 22.107887,152.427744 L22.1885098,152.40018 C23.0519323,152.098361 23.8367991,151.679398 24.5272615,151.164652 C24.8607782,151.205998 25.2018749,151.227359 25.5491733,151.227359 C26.2734007,151.227359 27.0272588,151.137089 27.8789668,150.946902 C28.6672791,150.768429 30.7524477,150.284692 33.0698378,149.666583 C34.2040703,149.363386 35.3245211,149.05192 36.3250713,148.767329 C36.7033785,148.875515 37.1278544,148.959583 37.6136587,149.020912 C43.7809619,149.705861 56.6785501,148.304264 62.8293152,148.353878 C64.948249,148.298062 66.2361473,148.899633 67.9595468,149.914654 C73.3468067,153.164375 85.704842,163.439998 92.157426,166.874393 C95.1687238,168.490984 96.4345714,168.244981 98.9442159,166.906091 C103.967639,164.441237 111.667466,158.936144 116.044528,156.064041 C117.711423,154.959439 119.395545,154.490862 122.373077,154.836093 C129.18743,155.928291 142.855415,159.595597 148.364643,159.449511 C150.05979,159.404721 150.890825,158.746645 151.67707,156.393423 C154.062679,150.392878 156.42486,135.487299 158.164108,129.079505 C158.742939,126.943344 159.557436,125.649933 160.795032,124.344808 C163.503132,121.365897 168.241964,116.741453 172.690691,112.272054 C173.91037,111.844132 174.989476,111.212931 175.885286,110.413594 C176.639144,110.555545 177.428145,110.630655 178.249533,110.630655 C179.611164,110.630655 181.065131,110.426686 182.571469,110.02495 C189.961897,108.052102 194.373413,102.750978 194.373413,95.8435982 C194.373413,93.0286894 193.579589,90.5672808 192.177991,88.6557613 C192.266194,88.2057894 192.328901,87.7282541 192.360599,87.2238445 C193.128238,76.1971198 194.452658,70.4556706 195.089372,67.6958886 Z" id="Stroke-3" stroke="#000000" stroke-width="2"></path>
                    <path d="M46.4860307,94.1987543 C45.7376853,94.3489747 45.2890915,94.1691237 45.1891743,93.4972666 C44.4401398,88.6075255 44.1410773,82.5987116 44.1410773,76.9096328 C44.1410773,68.2271724 44.8391195,60.1559297 45.6880712,57.4340473 C45.9375197,56.7187779 46.3868025,56.1006695 47.0848448,55.8636245 C48.3830793,55.4674011 49.8797701,55.0188073 51.3268469,54.6322311 C52.7746127,54.246344 54.1713863,53.9231635 55.2187942,53.6936985 C55.7183802,53.5600162 56.118049,53.7529597 56.5170287,54.1953518 C57.9138023,55.7685309 60.1602167,59.6108641 64.7508953,68.1672221 C64.9004266,68.4270068 65.0492688,68.4869572 65.2491032,68.4325195 C65.5488548,68.3532748 65.7989923,67.9873712 65.7989923,67.5380883 C65.7989923,60.1531734 62.9041498,54.287689 62.9041498,52.691081 C62.9041498,52.0922669 63.2535154,51.6002608 63.8523296,51.3900902 C65.2491032,50.9173784 67.2956831,50.3213206 69.341574,49.775566 C71.0380992,49.3228377 72.6856994,48.9335051 73.9329417,48.6999056 C74.630984,48.5634669 75.0802668,48.7433179 75.2297981,49.5019996 C76.1290529,54.6019114 76.6272608,63.1513785 76.6272608,71.2357139 C76.6272608,76.3259785 76.4274264,81.2191651 75.9781435,84.8816474 C75.8286122,85.9207863 75.2801012,86.4658519 74.3815355,86.7552672 C72.9847619,87.227979 70.5895054,87.9170631 68.4430082,88.4896921 C67.0958487,88.8487049 65.7989923,89.1457002 64.9004266,89.2855843 C63.7531015,89.4426955 63.4037358,89.3351983 63.2032123,88.2912358 C62.1558044,82.6820908 60.2098307,78.7102097 57.714657,75.5831458 C57.4149054,75.2640998 57.1654569,75.1311066 56.8657053,75.2110404 C56.4164224,75.330941 56.2179662,75.9828146 56.2179662,76.6319319 C56.2179662,81.0234652 58.263168,89.4592335 58.263168,90.0580476 C58.263168,90.806393 57.9138023,91.0999429 57.3652913,91.2963318 C56.0174427,91.7552619 53.8723237,92.3775049 51.7761297,92.9370412 C49.8308452,93.4566107 47.8834933,93.925877 46.4860307,94.1987543" id="Fill-5" fill="#E4D9C0"></path>
                    <path d="M81.0183117,84.9849411 C79.9199116,85.2281878 79.3217865,85.188221 79.2714834,84.0029962 C79.1715662,81.9343656 79.1219521,79.6528079 79.1219521,77.2568623 C79.1219521,68.3745675 79.8702975,57.2954725 81.6164368,47.9969709 C81.7666571,47.3085758 82.2655541,46.5264653 82.9642854,46.2901094 C84.9605622,45.6079161 89.2514892,44.3634301 93.6933257,43.1782054 C98.2337012,41.9661063 102.875372,40.8277393 105.42016,40.3488258 C106.169194,40.1986055 106.36834,40.4446085 106.36834,40.8435882 C106.36834,41.4927055 104.821346,47.4939394 103.623717,50.6079107 C103.424572,51.0613281 103.124821,51.2907931 102.774766,51.3838195 C102.326861,51.5037201 101.877578,51.4734004 100.979702,51.363836 C99.5319358,51.2019013 97.6348871,51.208103 95.440154,51.7938246 C94.0929945,52.1535265 93.1448147,52.706172 92.4956974,53.5282494 C91.9464974,54.2228462 91.6970489,54.9891078 91.6970489,55.8862954 C91.6970489,56.8351643 92.1463318,57.2134715 92.9952835,56.9874519 C94.6918087,56.5347236 96.8369276,55.2137492 99.2321842,54.5749682 C101.078241,54.081584 102.326861,53.9988939 102.326861,54.8471565 C102.326861,56.0447847 101.028627,61.7304181 100.280281,64.1759778 C100.080447,64.8278514 99.8813014,65.0800562 99.4816326,65.1875533 C98.8332044,65.3605134 96.7376995,65.1710153 94.7414227,65.7036774 C92.3454771,66.3424584 91.5971317,67.8894523 91.5971317,69.0877696 C91.5971317,70.7842948 92.5460006,71.2797463 94.7414227,70.6940248 C98.8835076,69.5887338 101.378681,67.1266361 102.775455,65.8056618 C103.224738,65.3866986 103.374269,65.1965114 103.674021,65.1172667 C103.923469,65.0504256 104.122614,65.1462083 104.222532,65.4190856 C105.02118,67.3519667 106.218119,74.2683043 106.218119,76.7634781 C106.218119,77.6117407 105.669608,78.3573297 104.621511,78.6867119 C101.228461,79.7416998 97.1366792,80.9338154 93.1937397,81.9853578 C88.5541361,83.223642 84.1116105,84.3089496 81.0183117,84.9849411" id="Fill-7" fill="#E4D9C0"></path>
                    <path d="M129.47154,67.4146044 C129.22278,67.2319971 129.023635,67.1355253 128.823801,67.1885848 C128.624655,67.2416443 128.424132,67.4449241 128.174683,67.7612137 C126.378241,70.2370931 124.481881,72.5896264 122.386377,74.5955504 C121.936405,75.0145136 121.537425,75.2701638 121.088142,75.3907535 C120.689162,75.4968725 120.240568,75.4679309 119.691368,75.3142652 C111.607033,72.881109 107.464948,65.053113 107.464948,51.7792849 C107.464948,48.3862345 107.715086,44.6265913 108.264286,40.538255 C108.363514,39.8629526 108.912025,39.3661229 109.461914,39.1697339 C110.908302,38.6846187 112.804661,38.1285277 114.751324,37.6089583 C116.248704,37.2099786 117.795009,36.8468312 118.992637,36.6263243 C119.891203,36.4368261 120.190265,36.7565612 120.190265,37.4546034 C120.190265,38.1037207 119.541837,44.4150425 119.541837,50.8028526 C119.541837,55.5430626 120.190265,57.6158277 120.888997,58.9271548 C121.088142,59.2227719 121.287976,59.3681687 121.537425,59.3020166 C121.737259,59.2482681 121.987397,58.9829707 122.136239,58.5936381 C122.934888,57.1823938 123.38417,53.8196631 123.38417,49.8271095 C123.38417,43.8885822 122.585522,37.614471 122.585522,36.6166771 C122.585522,36.017863 122.834281,35.6512702 123.584005,35.4018217 C124.831936,34.9690769 126.77791,34.3998934 128.723194,33.881013 C130.769774,33.3352583 132.865279,32.8260252 134.262053,32.5524587 C135.161308,32.3622715 135.459681,32.6826957 135.459681,33.3807379 C135.459681,34.0298552 134.761639,41.3520634 134.761639,46.7413906 C134.761639,51.4822896 135.360453,53.5674583 136.059184,54.8787854 C136.259019,55.1744025 136.458164,55.3204884 136.707613,55.2543363 C136.957061,55.1874951 137.156895,54.9352903 137.35673,54.5328652 C138.105075,53.1347134 138.554358,49.7712937 138.554358,45.7794291 C138.554358,39.9408191 138.005158,33.4999495 138.005158,32.5021556 C138.005158,31.9033415 138.254607,31.5374378 139.003641,31.2873002 C140.051738,30.9586071 141.548429,30.5086351 143.04512,30.1089663 C145.041396,29.5769934 147.087287,29.0312387 148.335219,28.7976392 C149.333012,28.5812668 149.981441,28.8575895 150.130972,29.9642587 C150.580944,33.0892553 150.780089,36.1294946 150.780089,38.974034 C150.780089,53.1960419 145.790431,64.2089849 138.554358,70.2811945 C138.054772,70.7139393 137.655792,70.9695896 137.207199,71.0894902 C136.80753,71.1956092 136.358247,71.1659786 135.85935,71.0005984 C133.464093,70.2922198 131.617348,69.2379211 129.47154,67.4146044" id="Fill-9" fill="#E4D9C0"></path>
                    <path d="M20.4146005,126.299671 C21.4620084,126.020592 23.4582852,121.445073 23.4582852,117.803263 C23.4582852,115.906904 22.7099398,115.407318 21.76176,115.660901 C21.3627803,115.76702 20.9134974,116.035762 20.5641318,116.478843 C19.8150973,117.427712 19.3162004,119.207617 19.3162004,122.600667 C19.3162004,125.844875 19.5663379,126.52638 20.4146005,126.299671 M9.8847055,110.69536 C11.7817542,109.889821 18.4190128,107.919729 20.6633599,107.320226 C29.9956266,104.830565 36.7824165,105.514825 36.7824165,113.299409 C36.7824165,117.690942 34.985285,121.015084 32.2902769,124.477732 C32.0408284,124.794022 31.8912971,125.13374 31.8912971,125.383189 C31.8912971,125.631948 31.9919034,125.805597 32.2406628,125.93928 C36.8816446,128.742474 38.178501,139.224822 38.178501,139.873251 C38.178501,140.622285 37.7305963,141.141165 36.9822509,141.390614 C35.7846226,141.760652 33.5388973,142.40908 31.292483,143.008583 C29.4457375,143.501279 27.6003701,143.943671 26.3524387,144.227573 C25.2051136,144.483913 24.8061338,144.29028 24.7062166,143.619112 C23.906879,136.64558 23.2095258,132.889383 21.4620084,133.355893 C20.4635255,133.622568 19.9150145,135.066199 19.9150145,137.012173 C19.9150145,140.106161 20.8625052,144.144194 20.8625052,144.793311 C20.8625052,145.342512 20.5145177,145.685675 19.9150145,145.895157 C18.4679378,146.380961 16.4220469,146.97633 14.2762388,147.548959 C12.5797136,148.001687 10.8335744,148.417894 9.23627731,148.74452 C8.53754598,148.881648 7.8884287,148.904388 7.78920058,147.933468 C7.33922863,143.711449 6.89063484,138.442023 6.89063484,132.403578 C6.89063484,126.265906 7.33922863,119.359215 8.63677409,112.076285 C8.78699444,111.337587 9.18666325,110.982019 9.8847055,110.69536" id="Fill-11" fill="#E4D9C0"></path>
                    <path d="M40.9242257,140.339071 C39.8258256,140.582318 39.2270114,140.542351 39.1767083,139.357127 C39.0774802,137.288496 39.027177,135.006938 39.027177,132.610993 C39.027177,123.728698 39.7755224,112.649603 41.5223508,103.35179 C41.6725711,102.662706 42.171468,101.881285 42.8695103,101.64424 C44.8664762,100.962046 49.1574032,99.7175604 53.5992397,98.5323357 C58.1396152,97.3202366 62.780597,96.1818696 65.3253848,95.7029561 C66.0744193,95.5527358 66.2735646,95.7994279 66.2735646,96.1977185 C66.2735646,96.8468358 64.7265706,102.848759 63.5289424,105.962041 C63.3297971,106.415458 63.0300455,106.644923 62.6806798,106.73795 C62.232086,106.85785 61.7828031,106.827531 60.8849265,106.717966 C59.4371607,106.556032 57.5408011,106.562233 55.3453789,107.148644 C53.9982194,107.507657 53.0500396,108.060302 52.4009223,108.88238 C51.8524113,109.576977 51.6022738,110.343238 51.6022738,111.240426 C51.6022738,112.189295 52.0515567,112.567602 52.9005083,112.341582 C54.5970335,111.889543 56.7421525,110.56788 59.1380981,109.929099 C60.9841546,109.436403 62.232086,109.353024 62.232086,110.201287 C62.232086,111.398915 60.9338514,117.084548 60.1855061,119.530108 C59.9863607,120.182671 59.7865263,120.434186 59.3875466,120.541684 C58.7391184,120.714644 56.6429244,120.525146 54.6466476,121.057808 C52.2513911,121.696589 51.5030457,123.243583 51.5030457,124.4419 C51.5030457,126.138425 52.4512255,126.633877 54.6466476,126.048155 C58.7887325,124.942864 61.2839062,122.480766 62.6813689,121.159792 C63.1299627,120.740829 63.2794939,120.550642 63.5792455,120.471397 C63.828694,120.404556 64.0285284,120.500339 64.1277565,120.773216 C64.9264051,122.706097 66.1240333,129.623124 66.1240333,132.117608 C66.1240333,132.96656 65.5748332,133.71146 64.5274253,134.040842 C61.1336859,135.09583 57.0425932,136.287946 53.0996537,137.339488 C48.459361,138.577772 44.0175245,139.66308 40.9242257,140.339071" id="Fill-13" fill="#E4D9C0"></path>
                    <path d="M66.372586,116.631613 C66.372586,105.602821 71.9610585,93.1331546 82.6404847,90.2844807 C90.675206,88.1400508 94.3673189,92.4447595 94.3673189,97.7341695 C94.3673189,99.4313838 93.9683392,100.635214 93.1193875,101.959634 C91.2740201,104.897199 86.4332039,109.782117 84.1378646,110.394024 C83.5383614,110.55458 83.3399052,110.158357 83.3399052,109.359019 C83.3399052,108.461832 83.4391333,107.138101 83.4391333,105.939784 C83.4391333,103.494913 82.9898504,101.468317 81.6426909,101.828018 C80.1956142,102.213906 79.4968828,104.645684 79.4968828,109.786251 C79.4968828,116.174062 81.193408,116.76943 83.6389677,116.116868 C86.5338102,115.344404 88.8787636,112.722439 91.223717,109.751108 C91.5227795,109.371423 91.772228,109.206043 92.0726687,109.12542 C93.3695251,108.77881 94.5182284,111.517231 94.5182284,115.309261 C94.5182284,121.198174 90.3251513,127.90503 81.7432972,130.196235 C72.0616648,132.778922 66.372586,128.458365 66.372586,116.631613" id="Fill-15" fill="#E4D9C0"></path>
                    <path d="M105.794401,123.179291 C103.649283,123.75192 101.453171,124.337642 99.4575836,124.621544 C98.658935,124.733865 98.3095694,124.52714 98.0594318,123.545884 C97.6115271,121.769425 97.061638,115.828141 97.061638,109.041351 C97.061638,97.713497 98.2592662,90.3085986 98.8587695,88.0525371 C99.1082179,87.0878193 99.6567289,86.5923678 100.305846,86.3691045 C102.201517,85.7627104 104.197794,85.1804343 106.194759,84.6477723 C108.290264,84.0882359 110.386458,83.5790027 112.282129,83.1731322 C112.930557,83.0504752 113.279923,83.2558223 113.230309,83.9180321 C113.230309,85.2651917 110.635218,92.7941252 110.635218,102.475758 C110.635218,112.705901 113.130391,119.076484 113.130391,120.074278 C113.130391,120.673092 112.781715,121.015567 112.082294,121.251923 C110.036404,121.997512 107.940899,122.606662 105.794401,123.179291" id="Fill-17" fill="#E4D9C0"></path>
                    <path d="M129.597436,98.2141166 C130.795064,96.6974424 131.793547,93.1872477 131.793547,89.8941145 C131.793547,87.4485548 131.094126,86.4872824 130.145947,86.7408654 C129.79727,86.8332027 129.447215,87.0764494 129.148153,87.4561347 C128.249587,88.5938127 127.651462,91.1482477 127.651462,95.9890639 C127.651462,98.2347891 128.000828,99.0396394 128.798787,98.8267124 C129.09785,98.7467786 129.347987,98.5304062 129.597436,98.2141166 M118.469415,119.597776 C117.770684,119.734215 117.221484,119.731458 117.022339,118.786035 C116.22369,115.256546 115.724104,110.000901 115.724104,103.962457 C115.724104,97.4754184 116.22369,89.9561321 117.770684,82.7565808 C117.920215,82.1184889 118.369498,81.5996085 119.117844,81.3494709 C120.815058,80.7465223 123.459074,79.9912861 126.004551,79.3118491 C134.338335,77.0888636 137.631468,76.9579376 140.525621,79.0796277 C142.671429,80.6534959 143.320546,83.6241377 143.320546,87.466471 C143.320546,96.948269 137.681082,102.295562 133.339852,105.849169 C130.495312,108.154845 129.347987,109.508895 129.347987,111.305337 C129.347987,113.002552 130.296167,114.944391 130.296167,115.593508 C130.296167,116.142708 129.946801,116.485872 129.347987,116.695354 C127.900221,117.180469 125.755102,117.803401 123.558991,118.389123 C121.812852,118.854943 120.016409,119.284932 118.469415,119.597776" id="Fill-19" fill="#E4D9C0"></path>
                    <path d="M146.713459,112.111566 C145.615059,112.354813 145.016245,112.314846 144.966631,111.129621 C144.866714,109.06099 144.817099,106.779433 144.817099,104.383487 C144.817099,95.5011923 145.565445,84.4220972 147.311584,75.1242847 C147.461804,74.4352005 147.960701,73.65309 148.659433,73.4167341 C150.65571,72.7338517 154.946637,71.4900548 159.388473,70.3048301 C163.928849,69.092731 168.570519,67.954364 171.115307,67.4754505 C171.864342,67.3252302 172.062798,67.5712332 172.062798,67.970213 C172.062798,68.6193302 170.516493,74.6212532 169.318865,77.7345355 C169.11903,78.1879528 168.819968,78.4174179 168.469913,78.5104442 C168.021319,78.6303449 167.572726,78.6000252 166.67416,78.4904608 C165.227083,78.328526 163.330034,78.3347278 161.134612,78.9211384 C159.787453,79.2801512 158.839962,79.8321076 158.190845,80.6548741 C157.641645,81.3494709 157.392196,82.1150434 157.392196,83.0129201 C157.392196,83.9610999 157.841479,84.3400962 158.690431,84.1140766 C160.386267,83.6613483 162.532075,82.341063 164.927331,81.7015929 C166.773388,81.2088978 168.021319,81.1255186 168.021319,81.9737812 C168.021319,83.1714095 166.723774,88.8570428 165.975428,91.3026025 C165.775594,91.9544761 165.576449,92.2066809 165.17678,92.314178 C164.528352,92.4871382 162.432847,92.29764 160.43657,92.8303021 C158.040624,93.4690831 157.292279,95.016077 157.292279,96.2143944 C157.292279,97.9109196 158.241148,98.4063711 160.43657,97.8206495 C164.577966,96.7153586 167.073829,94.2532609 168.470602,92.9315975 C168.919885,92.5133234 169.069416,92.3231361 169.368479,92.2438915 C169.617927,92.1763612 169.817762,92.272833 169.917679,92.5457103 C170.715638,94.4785914 171.913267,101.395618 171.913267,103.889414 C171.913267,104.739054 171.364756,105.483954 170.316659,105.812648 C166.923608,106.868325 162.831827,108.06044 158.888887,109.111983 C154.248594,110.350267 149.806758,111.435574 146.713459,112.111566" id="Fill-21" fill="#E4D9C0"></path>
                    <path d="M174.10862,99.4119516 C174.10862,95.6688464 176.703711,92.7312807 180.794803,91.6397714 C185.087109,90.4945135 187.482365,92.1007687 187.482365,95.8431847 C187.482365,99.5862899 185.087109,102.221348 180.794803,103.366606 C176.703711,104.458115 174.10862,103.155057 174.10862,99.4119516 M187.781428,63.1771503 C188.529773,63.0772331 188.779222,63.4603639 188.779222,64.009564 C188.779222,65.4566407 186.583799,70.9830956 185.486777,86.7452066 C185.386171,88.3183857 184.737743,88.8910147 181.643755,90.0156 C180.645272,90.3821928 179.79701,90.6585155 179.098967,90.8438792 C177.600898,91.243548 176.802939,91.1581016 176.504566,90.3394696 C175.156717,86.6570038 174.258151,83.2040031 173.859171,78.2205465 C173.609034,75.1430967 173.509806,72.8243285 173.509806,69.3306718 C173.509806,68.0841186 173.859171,67.0422233 175.655614,66.4130895 C177.201919,65.8514859 179.447644,65.2016795 181.742983,64.5890837 C183.988709,63.9902696 186.284737,63.4272878 187.781428,63.1771503" id="Fill-23" fill="#E4D9C0"></path>
                    <path d="M46.4860307,94.1987543 C45.7376853,94.3489747 45.2890915,94.1691237 45.1891743,93.4972666 C44.4401398,88.6075255 44.1410773,82.5987116 44.1410773,76.9096328 C44.1410773,68.2271724 44.8391195,60.1559297 45.6880712,57.4340473 C45.9375197,56.7187779 46.3868025,56.1006695 47.0848448,55.8636245 C48.3830793,55.4674011 49.8797701,55.0188073 51.3268469,54.6322311 C52.7746127,54.246344 54.1713863,53.9231635 55.2187942,53.6936985 C55.7183802,53.5600162 56.118049,53.7529597 56.5170287,54.1953518 C57.9138023,55.7685309 60.1602167,59.6108641 64.7508953,68.1672221 C64.9004266,68.4270068 65.0492688,68.4869572 65.2491032,68.4325195 C65.5488548,68.3532748 65.7989923,67.9873712 65.7989923,67.5380883 C65.7989923,60.1531734 62.9041498,54.287689 62.9041498,52.691081 C62.9041498,52.0922669 63.2535154,51.6002608 63.8523296,51.3900902 C65.2491032,50.9173784 67.2956831,50.3213206 69.341574,49.775566 C71.0380992,49.3228377 72.6856994,48.9335051 73.9329417,48.6999056 C74.630984,48.5634669 75.0802668,48.7433179 75.2297981,49.5019996 C76.1290529,54.6019114 76.6272608,63.1513785 76.6272608,71.2357139 C76.6272608,76.3259785 76.4274264,81.2191651 75.9781435,84.8816474 C75.8286122,85.9207863 75.2801012,86.4658519 74.3815355,86.7552672 C72.9847619,87.227979 70.5895054,87.9170631 68.4430082,88.4896921 C67.0958487,88.8487049 65.7989923,89.1457002 64.9004266,89.2855843 C63.7531015,89.4426955 63.4037358,89.3351983 63.2032123,88.2912358 C62.1558044,82.6820908 60.2098307,78.7102097 57.714657,75.5831458 C57.4149054,75.2640998 57.1654569,75.1311066 56.8657053,75.2110404 C56.4164224,75.330941 56.2179662,75.9828146 56.2179662,76.6319319 C56.2179662,81.0234652 58.263168,89.4592335 58.263168,90.0580476 C58.263168,90.806393 57.9138023,91.0999429 57.3652913,91.2963318 C56.0174427,91.7552619 53.8723237,92.3775049 51.7761297,92.9370412 C49.8308452,93.4566107 47.8834933,93.925877 46.4860307,94.1987543" id="Fill-25" fill="#000000"></path>
                    <path d="M81.0183117,84.9849411 C79.9199116,85.2281878 79.3217865,85.188221 79.2714834,84.0029962 C79.1715662,81.9343656 79.1219521,79.6528079 79.1219521,77.2568623 C79.1219521,68.3745675 79.8702975,57.2954725 81.6164368,47.9969709 C81.7666571,47.3085758 82.2655541,46.5264653 82.9642854,46.2901094 C84.9605622,45.6079161 89.2514892,44.3634301 93.6933257,43.1782054 C98.2337012,41.9661063 102.875372,40.8277393 105.42016,40.3488258 C106.169194,40.1986055 106.36834,40.4446085 106.36834,40.8435882 C106.36834,41.4927055 104.821346,47.4939394 103.623717,50.6079107 C103.424572,51.0613281 103.124821,51.2907931 102.774766,51.3838195 C102.326861,51.5037201 101.877578,51.4734004 100.979702,51.363836 C99.5319358,51.2019013 97.6348871,51.208103 95.440154,51.7938246 C94.0929945,52.1535265 93.1448147,52.706172 92.4956974,53.5282494 C91.9464974,54.2228462 91.6970489,54.9891078 91.6970489,55.8862954 C91.6970489,56.8351643 92.1463318,57.2134715 92.9952835,56.9874519 C94.6918087,56.5347236 96.8369276,55.2137492 99.2321842,54.5749682 C101.078241,54.081584 102.326861,53.9988939 102.326861,54.8471565 C102.326861,56.0447847 101.028627,61.7304181 100.280281,64.1759778 C100.080447,64.8278514 99.8813014,65.0800562 99.4816326,65.1875533 C98.8332044,65.3605134 96.7376995,65.1710153 94.7414227,65.7036774 C92.3454771,66.3424584 91.5971317,67.8894523 91.5971317,69.0877696 C91.5971317,70.7842948 92.5460006,71.2797463 94.7414227,70.6940248 C98.8835076,69.5887338 101.378681,67.1266361 102.775455,65.8056618 C103.224738,65.3866986 103.374269,65.1965114 103.674021,65.1172667 C103.923469,65.0504256 104.122614,65.1462083 104.222532,65.4190856 C105.02118,67.3519667 106.218119,74.2683043 106.218119,76.7634781 C106.218119,77.6117407 105.669608,78.3573297 104.621511,78.6867119 C101.228461,79.7416998 97.1366792,80.9338154 93.1937397,81.9853578 C88.5541361,83.223642 84.1116105,84.3089496 81.0183117,84.9849411" id="Fill-27" fill="#000000"></path>
                    <path d="M129.47154,67.4146044 C129.22278,67.2319971 129.023635,67.1355253 128.823801,67.1885848 C128.624655,67.2416443 128.424132,67.4449241 128.174683,67.7612137 C126.378241,70.2370931 124.481881,72.5896264 122.386377,74.5955504 C121.936405,75.0145136 121.537425,75.2701638 121.088142,75.3907535 C120.689162,75.4968725 120.240568,75.4679309 119.691368,75.3142652 C111.607033,72.881109 107.464948,65.053113 107.464948,51.7792849 C107.464948,48.3862345 107.715086,44.6265913 108.264286,40.538255 C108.363514,39.8629526 108.912025,39.3661229 109.461914,39.1697339 C110.908302,38.6846187 112.804661,38.1285277 114.751324,37.6089583 C116.248704,37.2099786 117.795009,36.8468312 118.992637,36.6263243 C119.891203,36.4368261 120.190265,36.7565612 120.190265,37.4546034 C120.190265,38.1037207 119.541837,44.4150425 119.541837,50.8028526 C119.541837,55.5430626 120.190265,57.6158277 120.888997,58.9271548 C121.088142,59.2227719 121.287976,59.3681687 121.537425,59.3020166 C121.737259,59.2482681 121.987397,58.9829707 122.136239,58.5936381 C122.934888,57.1823938 123.38417,53.8196631 123.38417,49.8271095 C123.38417,43.8885822 122.585522,37.614471 122.585522,36.6166771 C122.585522,36.017863 122.834281,35.6512702 123.584005,35.4018217 C124.831936,34.9690769 126.77791,34.3998934 128.723194,33.881013 C130.769774,33.3352583 132.865279,32.8260252 134.262053,32.5524587 C135.161308,32.3622715 135.459681,32.6826957 135.459681,33.3807379 C135.459681,34.0298552 134.761639,41.3520634 134.761639,46.7413906 C134.761639,51.4822896 135.360453,53.5674583 136.059184,54.8787854 C136.259019,55.1744025 136.458164,55.3204884 136.707613,55.2543363 C136.957061,55.1874951 137.156895,54.9352903 137.35673,54.5328652 C138.105075,53.1347134 138.554358,49.7712937 138.554358,45.7794291 C138.554358,39.9408191 138.005158,33.4999495 138.005158,32.5021556 C138.005158,31.9033415 138.254607,31.5374378 139.003641,31.2873002 C140.051738,30.9586071 141.548429,30.5086351 143.04512,30.1089663 C145.041396,29.5769934 147.087287,29.0312387 148.335219,28.7976392 C149.333012,28.5812668 149.981441,28.8575895 150.130972,29.9642587 C150.580944,33.0892553 150.780089,36.1294946 150.780089,38.974034 C150.780089,53.1960419 145.790431,64.2089849 138.554358,70.2811945 C138.054772,70.7139393 137.655792,70.9695896 137.207199,71.0894902 C136.80753,71.1956092 136.358247,71.1659786 135.85935,71.0005984 C133.464093,70.2922198 131.617348,69.2379211 129.47154,67.4146044" id="Fill-29" fill="#000000"></path>
                    <path d="M20.4146005,126.299671 C21.4620084,126.020592 23.4582852,121.445073 23.4582852,117.803263 C23.4582852,115.906904 22.7099398,115.407318 21.76176,115.660901 C21.3627803,115.76702 20.9134974,116.035762 20.5641318,116.478843 C19.8150973,117.427712 19.3162004,119.207617 19.3162004,122.600667 C19.3162004,125.844875 19.5663379,126.52638 20.4146005,126.299671 M9.8847055,110.69536 C11.7817542,109.889821 18.4190128,107.919729 20.6633599,107.320226 C29.9956266,104.830565 36.7824165,105.514825 36.7824165,113.299409 C36.7824165,117.690942 34.985285,121.015084 32.2902769,124.477732 C32.0408284,124.794022 31.8912971,125.13374 31.8912971,125.383189 C31.8912971,125.631948 31.9919034,125.805597 32.2406628,125.93928 C36.8816446,128.742474 38.178501,139.224822 38.178501,139.873251 C38.178501,140.622285 37.7305963,141.141165 36.9822509,141.390614 C35.7846226,141.760652 33.5388973,142.40908 31.292483,143.008583 C29.4457375,143.501279 27.6003701,143.943671 26.3524387,144.227573 C25.2051136,144.483913 24.8061338,144.29028 24.7062166,143.619112 C23.906879,136.64558 23.2095258,132.889383 21.4620084,133.355893 C20.4635255,133.622568 19.9150145,135.066199 19.9150145,137.012173 C19.9150145,140.106161 20.8625052,144.144194 20.8625052,144.793311 C20.8625052,145.342512 20.5145177,145.685675 19.9150145,145.895157 C18.4679378,146.380961 16.4220469,146.97633 14.2762388,147.548959 C12.5797136,148.001687 10.8335744,148.417894 9.23627731,148.74452 C8.53754598,148.881648 7.8884287,148.904388 7.78920058,147.933468 C7.33922863,143.711449 6.89063484,138.442023 6.89063484,132.403578 C6.89063484,126.265906 7.33922863,119.359215 8.63677409,112.076285 C8.78699444,111.337587 9.18666325,110.982019 9.8847055,110.69536" id="Fill-31" fill="#000000"></path>
                    <path d="M40.9242257,140.339071 C39.8258256,140.582318 39.2270114,140.542351 39.1767083,139.357127 C39.0774802,137.288496 39.027177,135.006938 39.027177,132.610993 C39.027177,123.728698 39.7755224,112.649603 41.5223508,103.35179 C41.6725711,102.662706 42.171468,101.881285 42.8695103,101.64424 C44.8664762,100.962046 49.1574032,99.7175604 53.5992397,98.5323357 C58.1396152,97.3202366 62.780597,96.1818696 65.3253848,95.7029561 C66.0744193,95.5527358 66.2735646,95.7994279 66.2735646,96.1977185 C66.2735646,96.8468358 64.7265706,102.848759 63.5289424,105.962041 C63.3297971,106.415458 63.0300455,106.644923 62.6806798,106.73795 C62.232086,106.85785 61.7828031,106.827531 60.8849265,106.717966 C59.4371607,106.556032 57.5408011,106.562233 55.3453789,107.148644 C53.9982194,107.507657 53.0500396,108.060302 52.4009223,108.88238 C51.8524113,109.576977 51.6022738,110.343238 51.6022738,111.240426 C51.6022738,112.189295 52.0515567,112.567602 52.9005083,112.341582 C54.5970335,111.889543 56.7421525,110.56788 59.1380981,109.929099 C60.9841546,109.436403 62.232086,109.353024 62.232086,110.201287 C62.232086,111.398915 60.9338514,117.084548 60.1855061,119.530108 C59.9863607,120.182671 59.7865263,120.434186 59.3875466,120.541684 C58.7391184,120.714644 56.6429244,120.525146 54.6466476,121.057808 C52.2513911,121.696589 51.5030457,123.243583 51.5030457,124.4419 C51.5030457,126.138425 52.4512255,126.633877 54.6466476,126.048155 C58.7887325,124.942864 61.2839062,122.480766 62.6813689,121.159792 C63.1299627,120.740829 63.2794939,120.550642 63.5792455,120.471397 C63.828694,120.404556 64.0285284,120.500339 64.1277565,120.773216 C64.9264051,122.706097 66.1240333,129.623124 66.1240333,132.117608 C66.1240333,132.96656 65.5748332,133.71146 64.5274253,134.040842 C61.1336859,135.09583 57.0425932,136.287946 53.0996537,137.339488 C48.459361,138.577772 44.0175245,139.66308 40.9242257,140.339071" id="Fill-33" fill="#000000"></path>
                    <path d="M66.372586,116.631613 C66.372586,105.602821 71.9610585,93.1331546 82.6404847,90.2844807 C90.675206,88.1400508 94.3673189,92.4447595 94.3673189,97.7341695 C94.3673189,99.4313838 93.9683392,100.635214 93.1193875,101.959634 C91.2740201,104.897199 86.4332039,109.782117 84.1378646,110.394024 C83.5383614,110.55458 83.3399052,110.158357 83.3399052,109.359019 C83.3399052,108.461832 83.4391333,107.138101 83.4391333,105.939784 C83.4391333,103.494913 82.9898504,101.468317 81.6426909,101.828018 C80.1956142,102.213906 79.4968828,104.645684 79.4968828,109.786251 C79.4968828,116.174062 81.193408,116.76943 83.6389677,116.116868 C86.5338102,115.344404 88.8787636,112.722439 91.223717,109.751108 C91.5227795,109.371423 91.772228,109.206043 92.0726687,109.12542 C93.3695251,108.77881 94.5182284,111.517231 94.5182284,115.309261 C94.5182284,121.198174 90.3251513,127.90503 81.7432972,130.196235 C72.0616648,132.778922 66.372586,128.458365 66.372586,116.631613" id="Fill-35" fill="#000000"></path>
                    <path d="M105.794401,123.179291 C103.649283,123.75192 101.453171,124.337642 99.4575836,124.621544 C98.658935,124.733865 98.3095694,124.52714 98.0594318,123.545884 C97.6115271,121.769425 97.061638,115.828141 97.061638,109.041351 C97.061638,97.713497 98.2592662,90.3085986 98.8587695,88.0525371 C99.1082179,87.0878193 99.6567289,86.5923678 100.305846,86.3691045 C102.201517,85.7627104 104.197794,85.1804343 106.194759,84.6477723 C108.290264,84.0882359 110.386458,83.5790027 112.282129,83.1731322 C112.930557,83.0504752 113.279923,83.2558223 113.230309,83.9180321 C113.230309,85.2651917 110.635218,92.7941252 110.635218,102.475758 C110.635218,112.705901 113.130391,119.076484 113.130391,120.074278 C113.130391,120.673092 112.781715,121.015567 112.082294,121.251923 C110.036404,121.997512 107.940899,122.606662 105.794401,123.179291" id="Fill-37" fill="#000000"></path>
                    <path d="M129.597436,98.2141166 C130.795064,96.6974424 131.793547,93.1872477 131.793547,89.8941145 C131.793547,87.4485548 131.094126,86.4872824 130.145947,86.7408654 C129.79727,86.8332027 129.447215,87.0764494 129.148153,87.4561347 C128.249587,88.5938127 127.651462,91.1482477 127.651462,95.9890639 C127.651462,98.2347891 128.000828,99.0396394 128.798787,98.8267124 C129.09785,98.7467786 129.347987,98.5304062 129.597436,98.2141166 M118.469415,119.597776 C117.770684,119.734215 117.221484,119.731458 117.022339,118.786035 C116.22369,115.256546 115.724104,110.000901 115.724104,103.962457 C115.724104,97.4754184 116.22369,89.9561321 117.770684,82.7565808 C117.920215,82.1184889 118.369498,81.5996085 119.117844,81.3494709 C120.815058,80.7465223 123.459074,79.9912861 126.004551,79.3118491 C134.338335,77.0888636 137.631468,76.9579376 140.525621,79.0796277 C142.671429,80.6534959 143.320546,83.6241377 143.320546,87.466471 C143.320546,96.948269 137.681082,102.295562 133.339852,105.849169 C130.495312,108.154845 129.347987,109.508895 129.347987,111.305337 C129.347987,113.002552 130.296167,114.944391 130.296167,115.593508 C130.296167,116.142708 129.946801,116.485872 129.347987,116.695354 C127.900221,117.180469 125.755102,117.803401 123.558991,118.389123 C121.812852,118.854943 120.016409,119.284932 118.469415,119.597776" id="Fill-39" fill="#000000"></path>
                    <path d="M146.713459,112.111566 C145.615059,112.354813 145.016245,112.314846 144.966631,111.129621 C144.866714,109.06099 144.817099,106.779433 144.817099,104.383487 C144.817099,95.5011923 145.565445,84.4220972 147.311584,75.1242847 C147.461804,74.4352005 147.960701,73.65309 148.659433,73.4167341 C150.65571,72.7338517 154.946637,71.4900548 159.388473,70.3048301 C163.928849,69.092731 168.570519,67.954364 171.115307,67.4754505 C171.864342,67.3252302 172.062798,67.5712332 172.062798,67.970213 C172.062798,68.6193302 170.516493,74.6212532 169.318865,77.7345355 C169.11903,78.1879528 168.819968,78.4174179 168.469913,78.5104442 C168.021319,78.6303449 167.572726,78.6000252 166.67416,78.4904608 C165.227083,78.328526 163.330034,78.3347278 161.134612,78.9211384 C159.787453,79.2801512 158.839962,79.8321076 158.190845,80.6548741 C157.641645,81.3494709 157.392196,82.1150434 157.392196,83.0129201 C157.392196,83.9610999 157.841479,84.3400962 158.690431,84.1140766 C160.386267,83.6613483 162.532075,82.341063 164.927331,81.7015929 C166.773388,81.2088978 168.021319,81.1255186 168.021319,81.9737812 C168.021319,83.1714095 166.723774,88.8570428 165.975428,91.3026025 C165.775594,91.9544761 165.576449,92.2066809 165.17678,92.314178 C164.528352,92.4871382 162.432847,92.29764 160.43657,92.8303021 C158.040624,93.4690831 157.292279,95.016077 157.292279,96.2143944 C157.292279,97.9109196 158.241148,98.4063711 160.43657,97.8206495 C164.577966,96.7153586 167.073829,94.2532609 168.470602,92.9315975 C168.919885,92.5133234 169.069416,92.3231361 169.368479,92.2438915 C169.617927,92.1763612 169.817762,92.272833 169.917679,92.5457103 C170.715638,94.4785914 171.913267,101.395618 171.913267,103.889414 C171.913267,104.739054 171.364756,105.483954 170.316659,105.812648 C166.923608,106.868325 162.831827,108.06044 158.888887,109.111983 C154.248594,110.350267 149.806758,111.435574 146.713459,112.111566" id="Fill-41" fill="#000000"></path>
                    <path d="M174.10862,99.4119516 C174.10862,95.6688464 176.703711,92.7312807 180.794803,91.6397714 C185.087109,90.4945135 187.482365,92.1007687 187.482365,95.8431847 C187.482365,99.5862899 185.087109,102.221348 180.794803,103.366606 C176.703711,104.458115 174.10862,103.155057 174.10862,99.4119516 M187.781428,63.1771503 C188.529773,63.0772331 188.779222,63.4603639 188.779222,64.009564 C188.779222,65.4566407 186.583799,70.9830956 185.486777,86.7452066 C185.386171,88.3183857 184.737743,88.8910147 181.643755,90.0156 C180.645272,90.3821928 179.79701,90.6585155 179.098967,90.8438792 C177.600898,91.243548 176.802939,91.1581016 176.504566,90.3394696 C175.156717,86.6570038 174.258151,83.2040031 173.859171,78.2205465 C173.609034,75.1430967 173.509806,72.8243285 173.509806,69.3306718 C173.509806,68.0841186 173.859171,67.0422233 175.655614,66.4130895 C177.201919,65.8514859 179.447644,65.2016795 181.742983,64.5890837 C183.988709,63.9902696 186.284737,63.4272878 187.781428,63.1771503" id="Fill-43" fill="#000000"></path>
                </g>
            </g>
        </g>
    </g>
</svg>