<?xml version="1.0" encoding="UTF-8"?>
<svg width="240px" height="179px" viewBox="0 0 240 179" version="1.1" xmlns="http://www.w3.org/2000/svg" xmlns:xlink="http://www.w3.org/1999/xlink">
    <title>STICKER030</title>
    <g id="Page-1" stroke="none" stroke-width="1" fill="none" fill-rule="evenodd">
        <g id="desktop-home" transform="translate(-838.000000, -2684.000000)">
            <g id="RecipesSection2" transform="translate(-6.000000, 2614.000000)">
                <g id="STICKER030" transform="translate(845.739886, 71.801618)">
                    <path d="M232.420246,44.8578014 C234.2813,41.6677323 235.779239,37.733386 235.779239,32.8908915 C235.779239,23.7429948 229.824299,18.0594886 220.238932,18.0594886 C217.239444,18.0594886 213.828474,18.5806993 209.813997,19.6519965 C207.781853,20.1941422 200.278441,22.3735535 197.598754,23.5018807 C196.963484,23.7653737 196.406178,24.0707367 195.903737,24.3992005 C195.518965,24.3436143 195.128418,24.3053537 194.726321,24.3053537 C194.152411,24.3053537 193.556845,24.3652712 192.954782,24.4822188 C190.288811,24.9861039 185.514897,26.1353661 180.172849,27.5603936 C177.383433,28.3046709 174.681368,29.0619423 172.460086,29.717426 C171.657335,29.5066317 170.926774,29.3138848 170.288616,29.1406292 C168.722818,28.737088 167.361318,27.6621813 166.204115,25.915909 C162.271934,20.0223304 153.705887,6.92059619 149.569409,1.6976612 C148.190584,-0.0428358675 146.846409,-0.451430367 144.428049,0.501475533 C138.271699,2.88590598 125.151918,10.7856403 119.246789,14.2745753 C117.715642,15.2029366 116.167892,15.4664296 113.480264,14.6485187 C107.21202,12.8148967 94.8437349,7.14438469 88.3711937,5.98285015 C85.2460955,5.39955624 83.9199682,5.65655207 81.9860023,8.15143297 C77.2611772,14.2745753 69.1896311,28.2606351 65.7671108,33.2388465 C64.6987011,34.8219697 63.8280916,35.5113827 62.070269,36.2238964 C56.5730126,38.3686566 45.9704907,40.6484118 41.1395465,42.7758464 C38.9493068,43.9445999 38.0844725,44.8563576 38.1609937,47.7417855 C38.2685566,51.8132926 39.1665982,58.8835656 40.0841311,65.3228994 C40.0480361,65.3358936 40.0040003,65.3503315 39.9679054,65.3626038 L39.7426731,65.4434564 L39.5224941,65.538747 C37.8397489,66.2700301 36.4161652,67.57811 35.4538747,69.1763931 C33.5639446,68.6768394 31.5274692,68.4198436 29.3574426,68.4198436 C26.6517674,68.4198436 23.783665,68.8183315 20.8318224,69.6059226 C8.84036792,72.8068202 0.783981672,82.2903996 0.783981672,93.2055035 C0.783981672,95.4303944 1.1326586,98.2508515 2.45445459,100.956527 C0.85761531,103.727173 0,107.112154 0,110.771458 C0,116.826019 2.55840796,120.441287 4.70461193,122.407738 C6.68477927,124.221869 10.253845,126.383954 16.0160381,126.383233 C18.4062437,126.383233 21.0151846,126.010011 23.7699489,125.275118 C26.0179406,124.675221 28.1229963,123.878967 30.0685125,122.916676 C29.5068756,126.529778 28.935132,131.84656 28.935132,133.83539 C28.935132,136.111535 29.7674809,137.730754 30.4662786,138.687991 C31.7317665,140.421991 33.682336,141.540212 35.8032735,141.782047 C35.6141361,144.468231 35.4697564,147.612821 35.4697564,151.121247 C35.4697564,154.233351 35.5534966,156.344904 35.7346931,157.761269 C36.2948863,162.327276 39.7462826,165.512292 44.1390344,165.512292 C44.7367663,165.512292 45.3511019,165.450931 45.968325,165.330374 C47.9123974,164.979531 50.6902625,164.351479 52.9151534,163.758801 C55.2541042,163.134359 58.3647645,162.220435 60.0799951,161.528135 L60.2467536,161.458832 C61.2003814,161.045907 61.9951916,160.560069 62.6571724,160.033083 C63.1184655,160.10816 63.5920309,160.152196 64.0807561,160.152196 C65.0712007,160.152196 65.9374788,159.987603 66.5034471,159.864159 L66.5929625,159.843224 C68.2338376,159.462061 69.7823097,159.048414 71.4202972,158.610943 C73.1254212,158.156147 75.5769882,157.471788 77.5405519,156.807641 C78.4299308,156.510941 79.2370132,156.105234 79.948805,155.608568 C80.2144636,155.633112 80.4837317,155.646828 80.7544436,155.646828 C81.3384594,155.646828 81.9398008,155.586911 82.5541364,155.467798 C82.6183853,155.454803 82.7079007,155.436756 82.7865877,155.421596 C84.8634894,155.413655 86.1867292,156.029434 87.9250605,157.053086 C93.5688623,160.458281 106.515388,171.222508 113.275245,174.82045 C116.429941,176.514024 117.756068,176.257028 120.385222,174.854379 C125.647862,172.272149 133.714355,166.50418 138.299853,163.495308 C140.046848,162.338105 141.810445,161.847936 144.929768,162.208885 C152.068622,163.353094 166.387477,167.195037 172.159054,167.042717 C173.934925,166.995793 174.805534,166.305658 175.62922,163.840375 C178.128432,157.554084 180.6031,141.938699 182.425172,135.226488 C183.031566,132.988603 183.88485,131.6336 185.18138,130.266324 C186.106854,129.247725 187.260447,128.045043 188.554811,126.72469 C188.943914,126.75862 189.339515,126.778833 189.743778,126.778833 C191.170249,126.778833 192.694177,126.565873 194.271525,126.145006 C202.013885,124.078211 206.635479,118.524646 206.635479,111.287615 C206.635479,110.288507 206.532969,109.335602 206.348885,108.428897 C206.426128,108.33866 206.5142,108.23976 206.588555,108.151688 C208.095879,106.33467 208.486426,104.324905 207.540017,102.128168 C207.026748,100.551542 206.110659,98.716476 204.988828,96.7774569 C205.788692,88.7369524 206.834001,84.1933238 207.385531,81.8002306 C207.752256,80.212776 207.994092,79.1631357 207.994092,77.9380741 C207.994092,77.0956186 207.872091,76.2885362 207.646136,75.529821 C209.813276,74.9393081 211.75807,74.3617894 213.185263,73.8831707 L213.278388,73.8506853 C214.179317,73.5352157 215.000116,73.0963014 215.721292,72.559209 C216.071413,72.6025229 216.428031,72.6241799 216.791867,72.6241799 C217.549861,72.6241799 218.339618,72.5303331 219.233328,72.3310891 C220.059902,72.1433955 222.243644,71.6366229 224.670667,70.98908 C227.138115,70.3314305 229.576688,69.6254139 230.897762,69.2175413 L231.049361,69.1691741 C234.811896,67.9166804 237.243971,64.6046105 237.243971,60.7294598 C237.243971,60.614678 236.721317,51.4747222 232.420246,44.8578014" id="Fill-1" fill="#FF91C3"></path>
                    <path d="M232.420246,44.8578014 C234.2813,41.6677323 235.779239,37.733386 235.779239,32.8908915 C235.779239,23.7429948 229.824299,18.0594886 220.238932,18.0594886 C217.239444,18.0594886 213.828474,18.5806993 209.813997,19.6519965 C207.781853,20.1941422 200.278441,22.3735535 197.598754,23.5018807 C196.963484,23.7653737 196.406178,24.0707367 195.903737,24.3992005 C195.518965,24.3436143 195.128418,24.3053537 194.726321,24.3053537 C194.152411,24.3053537 193.556845,24.3652712 192.954782,24.4822188 C190.288811,24.9861039 185.514897,26.1353661 180.172849,27.5603936 C177.383433,28.3046709 174.681368,29.0619423 172.460086,29.717426 C171.657335,29.5066317 170.926774,29.3138848 170.288616,29.1406292 C168.722818,28.737088 167.361318,27.6621813 166.204115,25.915909 C162.271934,20.0223304 153.705887,6.92059619 149.569409,1.6976612 C148.190584,-0.0428358675 146.846409,-0.451430367 144.428049,0.501475533 C138.271699,2.88590598 125.151918,10.7856403 119.246789,14.2745753 C117.715642,15.2029366 116.167892,15.4664296 113.480264,14.6485187 C107.21202,12.8148967 94.8437349,7.14438469 88.3711937,5.98285015 C85.2460955,5.39955624 83.9199682,5.65655207 81.9860023,8.15143297 C77.2611772,14.2745753 69.1896311,28.2606351 65.7671108,33.2388465 C64.6987011,34.8219697 63.8280916,35.5113827 62.070269,36.2238964 C56.5730126,38.3686566 45.9704907,40.6484118 41.1395465,42.7758464 C38.9493068,43.9445999 38.0844725,44.8563576 38.1609937,47.7417855 C38.2685566,51.8132926 39.1665982,58.8835656 40.0841311,65.3228994 C40.0480361,65.3358936 40.0040003,65.3503315 39.9679054,65.3626038 L39.7426731,65.4434564 L39.5224941,65.538747 C37.8397489,66.2700301 36.4161652,67.57811 35.4538747,69.1763931 C33.5639446,68.6768394 31.5274692,68.4198436 29.3574426,68.4198436 C26.6517674,68.4198436 23.783665,68.8183315 20.8318224,69.6059226 C8.84036792,72.8068202 0.783981672,82.2903996 0.783981672,93.2055035 C0.783981672,95.4303944 1.1326586,98.2508515 2.45445459,100.956527 C0.85761531,103.727173 0,107.112154 0,110.771458 C0,116.826019 2.55840796,120.441287 4.70461193,122.407738 C6.68477927,124.221869 10.253845,126.383954 16.0160381,126.383233 C18.4062437,126.383233 21.0151846,126.010011 23.7699489,125.275118 C26.0179406,124.675221 28.1229963,123.878967 30.0685125,122.916676 C29.5068756,126.529778 28.935132,131.84656 28.935132,133.83539 C28.935132,136.111535 29.7674809,137.730754 30.4662786,138.687991 C31.7317665,140.421991 33.682336,141.540212 35.8032735,141.782047 C35.6141361,144.468231 35.4697564,147.612821 35.4697564,151.121247 C35.4697564,154.233351 35.5534966,156.344904 35.7346931,157.761269 C36.2948863,162.327276 39.7462826,165.512292 44.1390344,165.512292 C44.7367663,165.512292 45.3511019,165.450931 45.968325,165.330374 C47.9123974,164.979531 50.6902625,164.351479 52.9151534,163.758801 C55.2541042,163.134359 58.3647645,162.220435 60.0799951,161.528135 L60.2467536,161.458832 C61.2003814,161.045907 61.9951916,160.560069 62.6571724,160.033083 C63.1184655,160.10816 63.5920309,160.152196 64.0807561,160.152196 C65.0712007,160.152196 65.9374788,159.987603 66.5034471,159.864159 L66.5929625,159.843224 C68.2338376,159.462061 69.7823097,159.048414 71.4202972,158.610943 C73.1254212,158.156147 75.5769882,157.471788 77.5405519,156.807641 C78.4299308,156.510941 79.2370132,156.105234 79.948805,155.608568 C80.2144636,155.633112 80.4837317,155.646828 80.7544436,155.646828 C81.3384594,155.646828 81.9398008,155.586911 82.5541364,155.467798 C82.6183853,155.454803 82.7079007,155.436756 82.7865877,155.421596 C84.8634894,155.413655 86.1867292,156.029434 87.9250605,157.053086 C93.5688623,160.458281 106.515388,171.222508 113.275245,174.82045 C116.429941,176.514024 117.756068,176.257028 120.385222,174.854379 C125.647862,172.272149 133.714355,166.50418 138.299853,163.495308 C140.046848,162.338105 141.810445,161.847936 144.929768,162.208885 C152.068622,163.353094 166.387477,167.195037 172.159054,167.042717 C173.934925,166.995793 174.805534,166.305658 175.62922,163.840375 C178.128432,157.554084 180.6031,141.938699 182.425172,135.226488 C183.031566,132.988603 183.88485,131.6336 185.18138,130.266324 C186.106854,129.247725 187.260447,128.045043 188.554811,126.72469 C188.943914,126.75862 189.339515,126.778833 189.743778,126.778833 C191.170249,126.778833 192.694177,126.565873 194.271525,126.145006 C202.013885,124.078211 206.635479,118.524646 206.635479,111.287615 C206.635479,110.288507 206.532969,109.335602 206.348885,108.428897 C206.426128,108.33866 206.5142,108.23976 206.588555,108.151688 C208.095879,106.33467 208.486426,104.324905 207.540017,102.128168 C207.026748,100.551542 206.110659,98.716476 204.988828,96.7774569 C205.788692,88.7369524 206.834001,84.1933238 207.385531,81.8002306 C207.752256,80.212776 207.994092,79.1631357 207.994092,77.9380741 C207.994092,77.0956186 207.872091,76.2885362 207.646136,75.529821 C209.813276,74.9393081 211.75807,74.3617894 213.185263,73.8831707 L213.278388,73.8506853 C214.179317,73.5352157 215.000116,73.0963014 215.721292,72.559209 C216.071413,72.6025229 216.428031,72.6241799 216.791867,72.6241799 C217.549861,72.6241799 218.339618,72.5303331 219.233328,72.3310891 C220.059902,72.1433955 222.243644,71.6366229 224.670667,70.98908 C227.138115,70.3314305 229.576688,69.6254139 230.897762,69.2175413 L231.049361,69.1691741 C234.811896,67.9166804 237.243971,64.6046105 237.243971,60.7294598 C237.243971,60.614678 236.721317,51.4747222 232.420246,44.8578014 Z" id="Stroke-3" stroke="#000000" stroke-width="2"></path>
                    <path d="M22.7976239,86.5389883 C21.5429645,86.8739492 21.0722868,87.6268892 21.0722868,88.3588942 C21.0722868,89.6655303 22.2222709,90.1954037 25.0456156,90.435074 C33.9329069,91.2010082 37.435558,93.9254528 37.435558,100.983454 C37.435558,108.092709 32.5742941,115.454629 21.908967,118.300353 C13.126351,120.643635 7.21905628,118.246932 7.21905628,110.770952 C7.21905628,107.321 8.26436518,104.793633 9.67567657,103.215563 C9.93772569,102.936189 10.1470762,102.827182 10.3557049,102.771596 C10.6690088,102.688578 10.9310579,102.775205 11.1396865,103.033645 C14.1196832,106.211442 18.5117131,107.601818 21.908967,106.695114 C23.6335823,106.233821 24.3663092,105.516254 24.3663092,104.574176 C24.3663092,103.529589 23.4249537,103.205457 19.9230245,102.989609 C13.5443301,102.548529 8.00303795,100.629001 8.00303795,93.2049982 C8.00303795,86.0957427 13.1783276,79.1207602 22.6929487,76.5811216 C28.2342409,75.1026737 32.7822008,75.4578477 35.8668727,76.9875504 C36.3382724,77.2279426 36.546901,77.6423123 36.546901,78.1129901 C36.546901,79.9422806 34.351608,85.0244454 32.4688969,87.8788317 C32.2595464,88.1971889 32.0509178,88.3574504 31.7376138,88.4404687 C31.4755647,88.5097709 31.1622608,88.4895578 30.9529103,88.388492 C27.9216589,86.6357227 24.9936389,85.9528068 22.7976239,86.5389883" id="Fill-5" fill="#000000"></path>
                    <path d="M62.5273751,66.580302 C64.72339,65.9941205 66.9713817,65.4469215 68.2787397,65.2029199 C68.8540927,65.1011322 69.2193733,65.265725 69.4287239,65.7840481 C70.1607289,67.5238232 71.310713,72.3403294 71.310713,84.9396224 C71.310713,97.5389153 67.7553634,106.066701 55.3134443,109.386712 C44.4394885,112.288022 39.2641988,107.500391 39.2641988,94.7964232 C39.2641988,81.6751978 40.8321622,75.8718565 41.4067933,73.4188457 C41.5641672,72.7489239 42.0875435,72.2955717 42.4001255,72.1598548 C43.5508316,71.7476508 45.9034985,71.0683444 48.3601188,70.4128607 C50.3987599,69.8685493 52.4381229,69.3762146 53.5361304,69.188521 C54.0595067,69.1011713 54.4247873,69.3689956 54.3720888,70.0107633 C54.2154368,72.2486483 53.1174293,82.6309913 53.1174293,89.2175923 C53.1174293,94.8115831 53.9021329,96.588897 55.6794468,96.1146097 C57.3520854,95.6691984 58.0321137,93.7619428 58.0321137,88.1679521 C58.0321137,80.692694 57.248132,71.4386783 57.0380596,69.4036467 C56.9860829,68.7380564 57.1434567,68.2255085 57.7707865,68.0067733 C58.8160954,67.6220014 60.6461078,67.0820214 62.5273751,66.580302" id="Fill-7" fill="#000000"></path>
                    <path d="M89.2933468,99.5359751 C87.6726848,100.072346 85.5293685,100.696788 83.1767016,101.324839 C80.8767332,101.938453 78.4713677,102.528244 76.380028,102.980874 C75.9100722,103.106485 75.492093,102.853098 75.3866958,102.357876 C74.3940855,97.3948244 73.9234077,91.7705139 73.9234077,85.7051234 C73.9234077,79.1712209 74.4980389,72.0641311 75.5440697,64.4141737 C75.6487449,63.4966408 76.224098,63.082993 76.6940538,62.9573827 C78.1580638,62.4621604 80.8247565,61.6976699 83.4387507,61.0003161 C85.5293685,60.4430105 87.5680096,59.9506758 88.979321,59.679242 C90.0253518,59.4525659 90.7046582,59.5846733 91.174614,60.3477199 C92.2726215,62.0932703 93.8940053,66.1575583 95.0439895,69.6147298 C95.1486648,69.9525783 95.3565715,70.1056207 95.6186206,70.0363185 C95.8799479,69.9662943 96.0373217,69.7670504 96.1412751,69.4255924 C97.3966564,65.065326 99.0173183,60.5556267 100.010651,58.3040255 C100.375931,57.4738424 101.159913,56.6371621 101.891918,56.3902728 C103.617255,55.7730497 105.551943,55.1522171 107.537885,54.6223436 C109.420596,54.1199023 111.301864,53.7228582 113.131876,53.390785 C114.073232,53.2442396 114.75326,53.5337208 114.90919,54.1711571 C116.529852,60.0647357 117.314555,66.7560121 117.314555,73.8132909 C117.314555,79.1459545 116.896576,84.9038162 116.059896,91.0868761 C115.955221,91.9517104 115.431844,92.5097378 114.805237,92.7284731 C113.184575,93.3175422 109.943251,94.2870517 106.806602,95.1251758 C104.401959,95.7662216 102.206666,96.2470059 100.741934,96.4816229 C100.062627,96.5581441 99.8532767,96.3524031 99.8532767,95.8290267 C99.8532767,93.6337337 102.781297,86.7359944 102.781297,78.7900586 C102.781297,76.9073475 102.676621,75.106211 102.258642,73.4400695 C102.206666,73.1931802 102.049292,73.1296532 101.840663,73.1852393 C101.631312,73.2408255 101.473939,73.4407914 101.421962,73.6624142 C99.9572301,78.5503883 98.0759628,84.0707454 96.1412751,88.9262341 C95.8799479,89.623588 95.409992,90.0098037 94.9393142,90.135414 C94.4686365,90.2603024 93.9986806,90.0726088 93.7366315,89.5672799 C91.5413384,85.8141301 89.7633026,80.2244707 88.8233909,77.1296922 C88.7179937,76.8438205 88.5086432,76.7427547 88.3000146,76.7983409 C88.090664,76.853927 87.9340121,77.053171 87.8813135,77.2762376 C87.4113576,79.753793 87.358659,82.0681993 87.358659,84.0548637 C87.358659,90.9035139 90.286679,97.0750234 90.286679,98.4870567 C90.286679,99.0097111 89.9199546,99.3165179 89.2933468,99.5359751" id="Fill-9" fill="#000000"></path>
                    <path d="M135.925602,87.0931175 C134.30494,87.629488 132.161623,88.2539302 129.808957,88.8819818 C127.508988,89.4955954 125.103623,90.0853864 123.012283,90.5380167 C122.541605,90.6643489 122.123626,90.4102407 122.018951,89.9150184 C121.02634,84.9519668 120.555663,79.3276563 120.555663,73.2622659 C120.555663,66.7283634 121.130294,59.6212736 122.176325,51.9713161 C122.281,51.0537832 122.856353,50.6401354 123.326309,50.5145251 C124.790319,50.0193028 127.457011,49.2548124 130.071006,48.5574585 C132.161623,48.000153 134.200265,47.5078183 135.611576,47.2363844 C136.657607,47.0097083 137.336913,47.1418158 137.807591,47.9048624 C138.904876,49.6504127 140.525538,53.7147008 141.676244,57.1718723 C141.780198,57.5097207 141.989548,57.6627632 142.250876,57.5934609 C142.512203,57.5234368 142.669577,57.3249147 142.77353,56.9827349 C144.028911,52.6224685 145.649573,48.1127691 146.642906,45.861168 C147.008908,45.0309848 147.792168,44.1943046 148.524173,43.9474153 C150.250232,43.3301922 152.184198,42.7093595 154.17014,42.1794861 C156.052851,41.6770448 157.934119,41.2800007 159.763409,40.9486493 C160.705487,40.801382 161.385515,41.0908633 161.541445,41.7282996 C163.162107,47.6218782 163.946088,54.3138765 163.946088,61.3704334 C163.946088,66.7030969 163.528109,72.4609587 162.691429,78.6440185 C162.587476,79.5088528 162.064821,80.0668803 161.437492,80.2856155 C159.81683,80.8746846 156.575506,81.8441942 153.438857,82.6823182 C151.034214,83.323364 148.83892,83.8041484 147.374189,84.0387653 C146.694882,84.1152866 146.485532,83.9095455 146.485532,83.3861692 C146.485532,81.1908761 149.413552,74.2931368 149.413552,66.347201 C149.413552,64.46449 149.308154,62.6633535 148.890897,60.9972119 C148.83892,60.7503227 148.681547,60.6867956 148.472918,60.7423818 C148.263567,60.797968 148.106194,60.9979338 148.053495,61.2202785 C146.590207,66.1068089 144.708218,71.6278879 142.77353,76.4833766 C142.512203,77.1807305 142.042247,77.5669461 141.571569,77.6925564 C141.100891,77.8174449 140.630936,77.6297513 140.368886,77.1244224 C138.173593,73.3712726 136.395558,67.7816132 135.455646,64.6868347 C135.350249,64.4009629 135.140898,64.2998971 134.93227,64.3554833 C134.722919,64.4110695 134.566267,64.6103135 134.513568,64.8333801 C134.044334,67.3109354 133.990914,69.6253417 133.990914,71.6120061 C133.990914,78.4606563 136.918934,84.6321658 136.918934,86.0441991 C136.918934,86.5668536 136.552931,86.8736604 135.925602,87.0931175" id="Fill-11" fill="#000000"></path>
                    <path d="M168.755015,78.3330247 C167.605031,78.5878548 166.977701,78.5459847 166.925724,77.3050414 C166.821049,75.1371804 166.769072,72.7469748 166.769072,70.236934 C166.769072,60.9316635 167.553054,49.3249809 169.383066,39.5844057 C169.539718,38.8625073 170.062373,38.0438745 170.794378,37.7962633 C172.885717,37.080862 177.380979,35.7771135 182.034336,34.5354482 C186.790925,33.2663508 191.653632,32.0730527 194.319603,31.5713334 C195.103585,31.4146814 195.312935,31.6716772 195.312935,32.0896564 C195.312935,32.7696847 193.692273,39.0574199 192.437614,42.3196788 C192.228263,42.793966 191.914959,43.0343582 191.548957,43.1318145 C191.079001,43.2574248 190.607601,43.2256613 189.666968,43.1116013 C188.150981,42.9412333 186.163595,42.9477304 183.864348,43.5620659 C182.453037,43.938175 181.459705,44.5171375 180.779677,45.3783623 C180.204324,46.1067578 179.942996,46.908787 179.942996,47.8494206 C179.942996,48.8427528 180.413674,49.2397969 181.302331,49.0022923 C183.079645,48.528727 185.327637,47.1448477 187.836955,46.474926 C189.770921,45.9587686 191.079001,45.8714189 191.079001,46.7600759 C191.079001,48.0147353 189.718945,53.971841 188.934963,56.5331365 C188.725612,57.2167743 188.516984,57.4809892 188.098283,57.5928834 C187.418976,57.7740799 185.222961,57.5755578 183.132343,58.1343072 C180.622303,58.8027851 179.839043,60.4234471 179.839043,61.6788284 C179.839043,63.4561423 180.831653,63.9751872 183.132343,63.3622955 C187.471675,62.2036485 190.084947,59.6243055 191.548957,58.2404263 C192.019635,57.801512 192.176287,57.60299 192.489591,57.5192498 C192.750918,57.4492256 192.960268,57.5502914 193.064944,57.8354413 C193.900902,59.8610882 195.155561,67.1067825 195.155561,69.7200548 C195.155561,70.6094336 194.58093,71.3898058 193.482923,71.7348732 C189.928295,72.8408216 185.641662,74.088984 181.511682,75.1906009 C176.649696,76.4878524 171.996339,77.6248424 168.755015,78.3330247" id="Fill-13" fill="#000000"></path>
                    <path d="M211.412569,46.510299 C212.510577,46.2172083 214.601916,41.4245247 214.601916,37.6085697 C214.601916,35.6219053 213.817935,35.098529 212.824603,35.3641876 C212.406623,35.4753599 211.936667,35.7576222 211.570665,36.221081 C210.786683,37.2151351 210.263307,39.0797987 210.263307,42.6344265 C210.263307,46.0331242 210.525356,46.7470817 211.412569,46.510299 M200.382683,30.1621877 C202.369348,29.3190103 209.321951,27.2543809 211.673896,26.6270511 C221.449845,24.0188322 228.560544,24.7356773 228.560544,32.8909636 C228.560544,37.4916222 226.678555,40.9733382 223.85521,44.6008777 C223.593883,44.9322291 223.437231,45.2888469 223.437231,45.5494522 C223.437231,45.8100576 223.541906,45.991976 223.803234,46.1320243 C228.664497,49.068707 230.024554,60.0502256 230.024554,60.729532 C230.024554,61.5142356 229.553876,62.058547 228.769895,62.3191523 C227.515235,62.7068117 225.162568,63.38684 222.809901,64.0141698 C220.875214,64.5303271 218.94197,64.9937859 217.634612,65.291208 C216.431207,65.5597542 216.013228,65.3576227 215.909274,64.6537717 C215.072594,57.3481598 214.340589,53.4138135 212.510577,53.9018168 C211.465268,54.1811915 210.889915,55.6942906 210.889915,57.7329317 C210.889915,60.9742556 211.883247,65.2045802 211.883247,65.8838866 C211.883247,66.4592397 211.517966,66.8187451 210.889915,67.0389241 C209.37465,67.5471406 207.231334,68.1708608 204.983342,68.7714803 C203.206028,69.2450456 201.376016,69.6817942 199.702655,70.0232521 C198.971372,70.1669099 198.291344,70.1907325 198.18739,69.1735777 C197.715991,64.7505061 197.245313,59.230149 197.245313,52.9041532 C197.245313,46.4742041 197.715991,39.2386164 199.076047,31.6088721 C199.232699,30.834997 199.650678,30.4632193 200.382683,30.1621877" id="Fill-15" fill="#000000"></path>
                    <path d="M44.6230673,158.237433 C43.7344104,158.422961 43.0543821,158.186178 42.8977301,156.868714 C42.7410782,155.655924 42.6883796,153.525602 42.6883796,151.12168 C42.6883796,141.555083 43.8390856,134.712208 43.8390856,132.98687 C43.8390856,132.203611 43.6297351,131.683844 42.5844262,131.963218 C39.9704321,132.660572 38.087721,134.260299 36.8857602,134.580822 C36.467781,134.692716 36.1544771,134.515129 36.1544771,133.835101 C36.1544771,132.00581 36.9377368,125.052485 37.5130899,122.23275 C37.7217185,121.653787 38.087721,121.138352 38.8717027,120.667674 C40.5977618,119.63175 45.1457218,117.583002 51.3670422,115.922636 C56.8036592,114.47162 61.1429905,113.993723 63.1296549,114.457182 C64.1756857,114.857114 64.2796391,115.456289 64.2269405,116.830062 C64.1229871,120.151517 63.705008,124.60202 63.2870288,127.013883 C63.1296549,127.631106 62.9210263,127.896043 62.5543019,127.993499 C61.7183435,128.216566 60.044983,127.460016 57.6923161,128.088068 C56.9083344,128.296696 56.5423319,128.813576 56.3337033,129.862494 C56.229028,130.465279 56.1243528,131.277415 56.1243528,132.270747 C56.1243528,143.040028 58.6856483,151.29638 58.6856483,153.230346 C58.6856483,153.962351 58.3203677,154.426531 57.3790122,154.833682 C56.229028,155.297863 53.6150339,156.099892 51.0530164,156.78353 C49.0143753,157.327119 46.4003812,157.92052 44.6230673,158.237433" id="Fill-17" fill="#000000"></path>
                    <path d="M78.6037639,130.978044 C79.0737198,130.747758 79.5451194,130.413519 80.0150753,130.130535 C80.5384516,129.729881 80.7997789,129.345831 80.7997789,128.614548 C80.7997789,126.680582 80.1197506,123.724408 79.4397223,122.284943 C79.2830703,121.961533 79.1271402,121.846751 78.9177897,121.902337 C78.6557406,121.971639 78.4471119,122.183877 78.2377614,122.606188 C76.7217747,125.363118 76.1471436,129.176185 76.1471436,131.528852 C76.1471436,131.99953 76.3557722,132.047897 76.6170995,131.978595 C77.0358005,131.866701 77.7670836,131.462438 78.6037639,130.978044 M64.9591621,152.811861 C63.8611546,153.052253 63.2858016,152.996667 63.1818482,152.082744 C62.9724976,150.047712 62.8678224,147.827874 62.8678224,145.527906 C62.8158457,132.732979 66.2138215,117.031688 77.7158288,108.787609 C78.2377614,108.438932 78.6557406,108.169663 79.0217431,108.072929 C79.3884675,107.974751 79.7017714,107.996408 80.1724491,108.132125 C90.4703299,110.872451 94.6522874,122.199037 94.6522874,136.628343 C94.6522874,138.666984 94.549056,140.838454 94.3916821,143.023641 C94.2870068,144.358431 93.6077004,144.957606 92.5104148,145.356094 C90.8897529,145.944442 89.0070419,146.498859 87.1770294,146.987585 C84.8763392,147.600476 82.6290694,148.096421 81.1657813,148.383014 C80.4330545,148.52595 79.9630986,148.338257 79.9630986,147.604808 C79.9630986,146.560221 80.7997789,143.879812 80.7997789,140.638488 C80.7997789,139.227177 80.1724491,138.818582 79.0737198,139.112395 C77.2971278,139.586682 75.8850945,140.64282 75.8850945,143.048185 C75.8850945,145.556782 76.2503751,147.393292 76.2503751,148.804603 C76.2503751,149.327979 76.0424683,149.697591 75.2577648,149.958919 C73.7937548,150.454141 71.7558356,151.050429 69.5598206,151.635889 C67.9391587,152.069028 66.4751487,152.459575 64.9591621,152.811861" id="Fill-19" fill="#000000"></path>
                    <path d="M111.852672,109.558668 C110.598013,109.894351 110.126613,110.647291 110.126613,111.378574 C110.126613,112.685932 111.277319,113.215084 114.100664,113.455476 C122.987955,114.220688 126.489884,116.945133 126.489884,124.003133 C126.489884,131.112389 121.629342,138.474309 110.964015,141.320032 C102.181399,143.663315 96.2741044,141.266612 96.2741044,133.790632 C96.2741044,130.34068 97.3194133,127.813313 98.7307247,126.235243 C98.9927738,125.955869 99.2021243,125.847584 99.410753,125.791998 C99.7240569,125.708258 99.986106,125.794885 100.194735,126.053325 C103.174731,129.231122 107.566761,130.621498 110.964015,129.714794 C112.68863,129.254222 113.421357,128.535934 113.421357,127.594578 C113.421357,126.549269 112.480002,126.225137 108.978073,126.010011 C102.599378,125.568931 97.0580861,123.648681 97.0580861,116.224678 C97.0580861,109.115423 102.233376,102.14044 111.747997,99.6015234 C117.289289,98.1230755 121.837249,98.4775276 124.921921,100.007952 C125.393321,100.247623 125.601949,100.662714 125.601949,101.133392 C125.601949,102.962682 123.406656,108.044125 121.523945,110.899234 C121.314595,111.216869 121.105966,111.37713 120.792662,111.460871 C120.530613,111.530173 120.217309,111.50996 120.007958,111.408894 C116.976707,109.655403 114.048687,108.972487 111.852672,109.558668" id="Fill-21" fill="#000000"></path>
                    <path d="M134.33165,134.300581 C133.442993,134.486109 132.762965,134.249326 132.606313,132.931862 C132.450383,131.719072 132.396962,129.58875 132.396962,127.184829 C132.396962,117.618231 133.547668,110.775356 133.547668,109.050019 C133.547668,108.266759 133.33904,107.746992 132.293731,108.026367 C129.679015,108.72372 127.797026,110.323447 126.594343,110.64397 C126.176364,110.755865 125.863782,110.578278 125.863782,109.898249 C125.863782,108.068959 126.647041,101.115633 127.221673,98.295898 C127.431023,97.7169354 127.797026,97.2015 128.581007,96.7308222 C130.306345,95.694898 134.854304,93.6461503 141.076347,91.985784 C146.512964,90.5347682 150.852295,90.0561495 152.838238,90.5203302 C153.884268,90.9202619 153.988222,91.5194376 153.936245,92.8932103 C153.832292,96.2146649 153.414313,100.665169 152.995612,103.077031 C152.838238,103.694254 152.629609,103.959191 152.263607,104.056647 C151.426926,104.279714 149.753566,103.523164 147.400899,104.151216 C146.617639,104.359845 146.251637,104.876724 146.042286,105.925642 C145.937611,106.528427 145.833657,107.340563 145.833657,108.333895 C145.833657,119.103176 148.394953,127.359528 148.394953,129.293494 C148.394953,130.025499 148.029672,130.489679 147.087595,130.89683 C145.937611,131.361011 143.323617,132.16304 140.761599,132.846678 C138.722958,133.390267 136.108964,133.983668 134.33165,134.300581" id="Fill-23" fill="#000000"></path>
                    <path d="M156.70552,128.330842 C155.555535,128.585672 154.928206,128.543802 154.876229,127.302859 C154.771554,125.134998 154.719577,122.744792 154.719577,120.234752 C154.719577,110.929481 155.503559,99.3227985 157.333571,89.5815013 C157.490223,88.8603248 158.012878,88.0409701 158.744883,87.793359 C160.836222,87.0786795 165.331484,85.774931 169.984841,84.5332658 C174.741429,83.2641684 179.604137,82.0708703 182.270108,81.5691509 C183.05409,81.411777 183.26344,81.6694948 183.26344,82.0874739 C183.26344,82.7675022 181.642778,89.0552374 180.388119,92.3174963 C180.178768,92.7917836 179.865464,93.0321757 179.499462,93.129632 C179.028784,93.2552423 178.558106,93.2234788 177.616751,93.108697 C176.101486,92.9390508 174.1141,92.9455479 171.814131,93.5598835 C170.40282,93.9359925 169.41021,94.5142332 168.72946,95.3761799 C168.154828,96.1045754 167.893501,96.9058826 167.893501,97.8472381 C167.893501,98.8398484 168.364179,99.2368925 169.252836,99.0001099 C171.03015,98.5258226 173.278141,97.1426653 175.78746,96.4727435 C177.721426,95.9565862 179.028784,95.8692365 179.028784,96.7578934 C179.028784,98.0125528 177.669449,103.968937 176.885468,106.530954 C176.676117,107.21387 176.467489,107.478807 176.048788,107.590701 C175.369481,107.771897 173.173466,107.573375 171.082848,108.132125 C168.572808,108.800603 167.789548,110.421265 167.789548,111.676646 C167.789548,113.45396 168.782158,113.973005 171.082848,113.360113 C175.421458,112.201466 178.035452,109.622123 179.499462,108.238244 C179.97014,107.79933 180.126792,107.600086 180.440096,107.517067 C180.701423,107.446321 180.910773,107.548109 181.015449,107.833259 C181.851407,109.858906 183.106066,117.1046 183.106066,119.71715 C183.106066,120.607251 182.531435,121.387623 181.433428,121.732691 C177.8788,122.837917 173.592167,124.086801 169.462186,125.188418 C164.600201,126.48567 159.946843,127.62266 156.70552,128.330842" id="Fill-25" fill="#000000"></path>
                    <path d="M185.405962,115.026471 C185.405962,111.105119 188.124632,108.027666 192.410543,106.884179 C196.907248,105.684384 199.416567,107.367129 199.416567,111.287759 C199.416567,115.209111 196.907248,117.969651 192.410543,119.169446 C188.124632,120.312933 185.405962,118.947823 185.405962,115.026471 M199.729871,77.0668871 C200.514574,76.9614899 200.77518,77.3628654 200.77518,77.9382185 C200.77518,79.4542051 198.475211,85.2438304 197.325949,101.756535 C197.220552,103.405351 196.540524,104.004526 193.299922,105.183386 C192.253891,105.566714 191.365234,105.856196 190.633951,106.050386 C189.064544,106.469087 188.228585,106.379572 187.915281,105.521957 C186.50397,101.664132 185.562614,98.0466986 185.144635,92.8259293 C184.882586,89.6019311 184.778633,87.1727429 184.778633,83.512718 C184.778633,82.2068038 185.144635,81.1152934 187.026624,80.4562001 C188.646564,79.8678529 190.999231,79.1871027 193.404597,78.545335 C195.756542,77.9180053 198.161907,77.3282143 199.729871,77.0668871" id="Fill-27" fill="#000000"></path>
                </g>
            </g>
        </g>
    </g>
</svg>